<?xml version="1.0" standalone="no"?>
<!DOCTYPE svg PUBLIC "-//W3C//DTD SVG 1.1//EN" "http://www.w3.org/Graphics/SVG/1.1/DTD/svg11.dtd" >
<svg xmlns="http://www.w3.org/2000/svg" xmlns:xlink="http://www.w3.org/1999/xlink" version="1.1">
<metadata></metadata>
<defs>
<font id="calendas_plusitalic" horiz-adv-x="587" >
<font-face units-per-em="1000" ascent="750" descent="-250" />
<missing-glyph horiz-adv-x="233" />
<glyph unicode="&#x2e;&#x2e;&#x2e;" horiz-adv-x="893" d="M95 -16c-30 0 -50 21 -50 50c0 34 28 70 67 70c30 0 49 -21 49 -50c0 -34 -28 -70 -66 -70zM407 -16c-30 0 -50 21 -50 50c0 34 28 70 67 70c30 0 49 -21 49 -50c0 -34 -28 -70 -66 -70zM720 -16c-30 0 -50 21 -50 50c0 34 28 70 67 70c30 0 49 -21 49 -50 c0 -34 -28 -70 -66 -70z" />
<glyph unicode="ffl" horiz-adv-x="872" d="M939 750l-203 -585c-16 -46 -24 -71 -24 -90c0 -14 6 -21 20 -21c41 0 84 61 106 93l15 -11c-31 -58 -93 -152 -167 -152c-30 0 -58 16 -58 66c0 20 6 47 17 81l169 500c5 15 8 32 8 47c0 31 -14 57 -62 57c-84 0 -144 -74 -192 -227l-19 -62h166l-17 -50h-165l-83 -248 c-60 -182 -174 -451 -344 -451c-60 0 -81 30 -81 60c0 39 31 54 58 54c7 0 13 -1 13 -1c-4 -9 -6 -17 -6 -25c0 -24 16 -40 48 -40c82 0 137 90 186 252l120 399h-208l-83 -248c-60 -182 -174 -451 -344 -451c-60 0 -81 30 -81 60c0 39 31 54 58 54c7 0 13 -1 13 -1 c-4 -9 -6 -17 -6 -25c0 -24 16 -40 48 -40c82 0 137 90 186 252l123 408h-76l7 24l83 17l8 26c51 156 171 236 306 236c49 0 88 -13 109 -32c59 63 133 103 216 103c59 0 87 -24 101 -43c9 3 25 9 35 14zM270 507l-18 -61h209l9 27c14 43 33 84 56 122c-5 42 -41 69 -93 69 c-61 0 -128 -38 -163 -157z" />
<glyph unicode="fi" horiz-adv-x="551" d="M546 465l-118 -307c-18 -48 -27 -78 -27 -94c0 -10 4 -14 13 -14c25 0 96 67 117 97l15 -10c-32 -59 -118 -153 -187 -153c-24 0 -38 9 -38 38c0 28 6 58 25 110l73 205c3 8 7 20 7 32c0 23 -22 28 -64 28h-126l-83 -249c-60 -182 -174 -451 -344 -451 c-60 0 -81 30 -81 60c0 39 31 54 58 54c7 0 13 -1 13 -1c-4 -9 -6 -17 -6 -25c0 -24 16 -40 48 -40c82 0 137 90 186 252l123 408h-76l7 24l83 17l9 27c55 167 178 306 333 306c97 0 124 -50 124 -85c0 -33 -31 -69 -71 -69c-15 0 -28 4 -36 8c4 13 7 30 7 40 c0 22 -7 62 -67 62c-84 0 -144 -74 -192 -227l-19 -62h246c16 5 32 11 48 19z" />
<glyph unicode="ffi" horiz-adv-x="849" d="M462 446l9 27c14 42 32 83 55 121c-4 43 -40 70 -93 70c-61 0 -128 -38 -163 -157l-18 -61h210zM660 397h-126l-83 -249c-60 -182 -174 -451 -344 -451c-60 0 -81 30 -81 60c0 39 31 54 58 54c7 0 13 -1 13 -1c-4 -9 -6 -17 -6 -25c0 -24 16 -40 48 -40 c82 0 137 90 186 252l120 399h-209l-83 -248c-60 -182 -174 -451 -344 -451c-60 0 -81 30 -81 60c0 39 31 54 58 54c7 0 13 -1 13 -1c-4 -9 -6 -17 -6 -25c0 -24 16 -40 48 -40c82 0 137 90 186 252l123 408h-76l7 24l83 17l8 26c51 156 171 236 306 236 c50 0 89 -13 110 -32c59 63 133 103 216 103c97 0 124 -50 124 -85c0 -33 -31 -69 -71 -69c-16 0 -28 5 -36 9c5 12 9 26 9 39c0 22 -9 62 -69 62c-84 0 -144 -74 -192 -227l-19 -62h246c16 5 32 11 48 19l-118 -307c-18 -48 -27 -78 -27 -94c0 -10 4 -14 13 -14 c25 0 96 67 117 97l15 -10c-32 -59 -118 -153 -187 -153c-24 0 -38 9 -38 38c0 28 6 58 25 110l73 205c3 8 7 20 7 32c0 23 -22 28 -64 28z" />
<glyph unicode="fl" horiz-adv-x="575" d="M642 750l-203 -585c-16 -46 -24 -71 -24 -90c0 -14 6 -21 20 -21c41 0 84 61 106 93l15 -11c-31 -58 -93 -152 -167 -152c-30 0 -58 16 -58 66c0 20 6 47 17 81l169 500c5 15 8 32 8 47c0 31 -14 57 -62 57c-84 0 -144 -74 -192 -227l-19 -62h166l-17 -50h-165l-83 -248 c-60 -182 -174 -451 -344 -451c-60 0 -81 30 -81 60c0 39 31 54 58 54c7 0 13 -1 13 -1c-4 -9 -6 -17 -6 -25c0 -24 16 -40 48 -40c82 0 137 90 186 252l123 408h-76l7 24l83 17l9 27c55 167 178 306 333 306c59 0 87 -24 101 -43c9 3 25 9 35 14z" />
<glyph unicode="ff" horiz-adv-x="605" d="M687 446l-21 -50h-131l-83 -248c-60 -182 -174 -451 -344 -451c-60 0 -81 30 -81 60c0 39 31 54 58 54c7 0 13 -1 13 -1c-4 -9 -6 -17 -6 -25c0 -24 16 -40 48 -40c82 0 137 90 186 252l120 399h-209l-83 -248c-60 -182 -174 -451 -344 -451c-60 0 -81 30 -81 60 c0 39 31 54 58 54c7 0 13 -1 13 -1c-4 -9 -6 -17 -6 -25c0 -24 16 -40 48 -40c82 0 137 90 186 252l123 408h-76l7 24l83 17l8 26c51 156 171 236 306 236c50 0 89 -13 110 -32c59 63 133 103 216 103c78 0 114 -30 114 -66c0 -33 -30 -58 -63 -58c-16 0 -26 4 -34 8 c5 9 9 20 9 31c0 17 -16 41 -74 41c-80 0 -139 -74 -187 -227l-19 -62h136zM463 446l9 27c14 42 32 83 55 121c-4 43 -40 70 -93 70c-61 0 -128 -38 -163 -157l-18 -61h210z" />
<glyph unicode="Th" horiz-adv-x="996" d="M542 48l193 571c1 3 3 10 3 14c0 24 -27 26 -88 26h-161l-130 -560c-2 -10 -4 -20 -4 -29c0 -24 16 -31 46 -36l32 -5l-7 -29s-54 3 -140 3c-85 0 -132 -3 -132 -3l7 29l21 5c55 13 81 40 94 98l122 526h-150c-53 0 -77 -21 -77 -43c0 -11 4 -21 10 -30 c-6 -11 -24 -18 -41 -18c-23 0 -46 11 -46 42c0 60 77 74 156 79c408 24 539 34 612 57c-150 -395 -214 -558 -216 -565h4c69 138 178 286 279 286c39 0 53 -18 53 -50c0 -19 -8 -57 -19 -88l-60 -170c-17 -48 -27 -78 -27 -94c0 -10 5 -14 15 -14c25 0 65 52 86 82l15 -11 c-32 -59 -89 -137 -158 -137c-24 0 -38 9 -38 38c0 27 11 70 34 136l60 171c8 23 12 38 12 50c0 11 -3 20 -15 20c-101 0 -276 -303 -276 -407c0 0 -12 -8 -36 -8c-23 0 -38 13 -38 35c0 9 2 19 5 29z" />
<glyph unicode="&#x164;h" horiz-adv-x="996" d="M542 48l193 571c1 3 3 10 3 14c0 24 -27 26 -88 26h-161l-130 -560c-2 -10 -4 -20 -4 -29c0 -24 16 -31 46 -36l32 -5l-7 -29s-54 3 -140 3c-85 0 -132 -3 -132 -3l7 29l21 5c55 13 81 40 94 98l122 526h-150c-53 0 -77 -21 -77 -43c0 -11 4 -21 10 -30 c-6 -11 -24 -18 -41 -18c-23 0 -46 11 -46 42c0 60 77 74 156 79c408 24 539 34 612 57c-150 -395 -214 -558 -216 -565h4c69 138 178 286 279 286c39 0 53 -18 53 -50c0 -19 -8 -57 -19 -88l-60 -170c-17 -48 -27 -78 -27 -94c0 -10 5 -14 15 -14c25 0 65 52 86 82l15 -11 c-32 -59 -89 -137 -158 -137c-24 0 -38 9 -38 38c0 27 11 70 34 136l60 171c8 23 12 38 12 50c0 11 -3 20 -15 20c-101 0 -276 -303 -276 -407c0 0 -12 -8 -36 -8c-23 0 -38 13 -38 35c0 9 2 19 5 29zM467 751l-130 131l63 35l77 -120c27 46 92 118 146 118 c26 0 36 -14 36 -28z" />
<glyph unicode="&#x162;h" horiz-adv-x="996" d="M542 48l193 571c1 3 3 10 3 14c0 24 -27 26 -88 26h-161l-130 -560c-2 -10 -4 -20 -4 -29c0 -24 16 -31 46 -36l32 -5l-7 -29s-54 3 -140 3c-85 0 -132 -3 -132 -3l7 29l21 5c55 13 81 40 94 98l122 526h-150c-53 0 -77 -21 -77 -43c0 -11 4 -21 10 -30 c-6 -11 -24 -18 -41 -18c-23 0 -46 11 -46 42c0 60 77 74 156 79c408 24 539 34 612 57c-150 -395 -214 -558 -216 -565h4c69 138 178 286 279 286c39 0 53 -18 53 -50c0 -19 -8 -57 -19 -88l-60 -170c-17 -48 -27 -78 -27 -94c0 -10 5 -14 15 -14c25 0 65 52 86 82l15 -11 c-32 -59 -89 -137 -158 -137c-24 0 -38 9 -38 38c0 27 11 70 34 136l60 171c8 23 12 38 12 50c0 11 -3 20 -15 20c-101 0 -276 -303 -276 -407c0 0 -12 -8 -36 -8c-23 0 -38 13 -38 35c0 9 2 19 5 29zM268 -62c32 0 55 -21 55 -55c0 -93 -109 -153 -190 -163l-2 18 c62 16 96 56 96 91c0 20 -11 38 -35 48c8 35 38 61 76 61z" />
<glyph unicode="fj" horiz-adv-x="535" d="M362 397h-126l-83 -249c-60 -182 -174 -451 -344 -451c-60 0 -81 30 -81 60c0 39 31 54 58 54c7 0 13 -1 13 -1c-4 -9 -6 -17 -6 -25c0 -24 16 -40 48 -40c82 0 137 90 186 252l123 408h-76l7 24l83 17l9 27c55 167 178 306 333 306c97 0 124 -50 124 -85 c0 -33 -31 -69 -71 -69c-15 0 -28 4 -36 8c4 13 7 30 7 40c0 22 -7 62 -67 62c-84 0 -144 -74 -192 -227l-19 -62h246c15 5 32 12 48 19l-134 -416c-26 -80 -55 -142 -120 -189c-58 -42 -125 -30 -190 -71l-6 19c50 43 115 47 156 86c33 31 51 66 70 127l102 315 c1 4 6 21 6 33c0 23 -26 28 -68 28z" />
<glyph unicode="ffj" horiz-adv-x="834" d="M661 397h-126l-83 -249c-60 -182 -174 -451 -344 -451c-60 0 -81 30 -81 60c0 39 31 54 58 54c7 0 13 -1 13 -1c-4 -9 -6 -17 -6 -25c0 -24 16 -40 48 -40c82 0 137 90 186 252l120 399h-209l-83 -248c-60 -182 -174 -451 -344 -451c-60 0 -81 30 -81 60 c0 39 31 54 58 54c7 0 13 -1 13 -1c-4 -9 -6 -17 -6 -25c0 -24 16 -40 48 -40c82 0 137 90 186 252l123 408h-76l7 24l83 17l8 26c51 156 171 236 306 236c50 0 89 -13 110 -32c59 63 133 103 216 103c97 0 124 -50 124 -85c0 -33 -31 -69 -71 -69c-15 0 -28 4 -36 8 c4 13 7 30 7 40c0 22 -7 62 -67 62c-84 0 -144 -74 -192 -227l-19 -62h246c15 5 32 12 48 19l-134 -416c-26 -80 -55 -142 -120 -189c-58 -42 -125 -30 -190 -71l-6 19c50 43 115 47 156 86c33 31 51 66 70 127l102 315c1 4 6 21 6 33c0 23 -26 28 -68 28zM463 446l9 27 c14 42 32 84 55 121c-4 43 -40 70 -93 70c-61 0 -128 -38 -163 -157l-18 -61h210z" />
<glyph unicode="fb" horiz-adv-x="769" d="M642 750l-175 -462h4c36 68 111 178 204 178c61 0 95 -35 95 -101c0 -162 -151 -381 -325 -381c-75 0 -103 50 -103 117c0 42 13 87 27 126l147 400c7 20 9 34 9 51c0 35 -18 57 -62 57c-84 0 -144 -74 -192 -227l-19 -62h166l-17 -50h-165l-83 -248 c-60 -182 -174 -451 -344 -451c-60 0 -81 30 -81 60c0 39 31 54 58 54c7 0 13 -1 13 -1c-4 -9 -6 -17 -6 -25c0 -24 16 -40 48 -40c82 0 137 90 186 252l123 408h-76l7 24l83 17l9 27c55 167 178 306 333 306c58 0 87 -25 101 -44c12 4 23 9 35 15zM640 409 c-83 0 -226 -211 -226 -330c0 -41 17 -58 52 -58c125 0 222 220 222 325c0 42 -13 63 -48 63z" />
<glyph unicode="ffb" horiz-adv-x="1065" d="M938 750l-175 -462h4c36 68 111 178 204 178c61 0 95 -35 95 -101c0 -162 -151 -381 -325 -381c-75 0 -103 50 -103 117c0 42 13 87 27 126l147 400c7 20 9 34 9 51c0 35 -18 57 -62 57c-84 0 -144 -74 -192 -227l-19 -62h166l-17 -50h-165l-83 -248 c-60 -182 -174 -451 -344 -451c-60 0 -81 30 -81 60c0 39 31 54 58 54c7 0 13 -1 13 -1c-4 -9 -6 -17 -6 -25c0 -24 16 -40 48 -40c82 0 137 90 186 252l120 399h-207l-83 -248c-60 -182 -174 -451 -344 -451c-60 0 -81 30 -81 60c0 39 31 54 58 54c7 0 13 -1 13 -1 c-4 -9 -6 -17 -6 -25c0 -24 16 -40 48 -40c82 0 137 90 186 252l123 408h-76l7 24l83 17l8 26c51 156 171 236 306 236c48 0 87 -13 108 -32c59 63 133 103 216 103c58 0 87 -25 101 -44c12 4 23 9 35 15zM936 409c-83 0 -226 -211 -226 -330c0 -41 17 -58 52 -58 c125 0 222 220 222 325c0 42 -13 63 -48 63zM270 507l-18 -61h208l9 27c14 43 33 85 56 123c-5 41 -41 68 -92 68c-61 0 -128 -38 -163 -157z" />
<glyph unicode="fh" horiz-adv-x="775" d="M642 750c-150 -395 -215 -563 -217 -570h4c69 138 178 286 279 286c39 0 53 -18 53 -50c0 -19 -8 -57 -19 -88l-60 -170c-17 -48 -27 -78 -27 -94c0 -10 5 -14 15 -14c25 0 65 52 86 82l15 -11c-32 -59 -89 -137 -158 -137c-24 0 -38 9 -38 38c0 27 11 70 34 136l60 171 c8 23 12 38 12 50c0 11 -3 20 -15 20c-101 0 -276 -303 -276 -407c0 0 -12 -8 -36 -8c-23 0 -38 13 -38 35c0 9 2 19 5 29l194 573c6 19 10 36 10 53c0 33 -15 61 -62 61c-84 0 -144 -74 -192 -227l-19 -62h166l-17 -50h-165l-83 -248c-60 -182 -174 -451 -344 -451 c-60 0 -81 30 -81 60c0 39 31 54 58 54c7 0 13 -1 13 -1c-4 -9 -6 -17 -6 -25c0 -24 16 -40 48 -40c82 0 137 90 186 252l123 408h-76l7 24l83 17l9 27c55 167 178 306 333 306c58 0 87 -25 101 -44c12 4 23 9 35 15z" />
<glyph unicode="ffh" horiz-adv-x="1070" d="M937 750c-150 -395 -215 -563 -217 -570h4c69 138 178 286 279 286c39 0 53 -18 53 -50c0 -19 -8 -57 -19 -88l-60 -170c-17 -48 -27 -78 -27 -94c0 -10 5 -14 15 -14c25 0 65 52 86 82l15 -11c-32 -59 -89 -137 -158 -137c-24 0 -38 9 -38 38c0 27 11 70 34 136l60 171 c8 23 12 38 12 50c0 11 -3 20 -15 20c-101 0 -276 -303 -276 -407c0 0 -12 -8 -36 -8c-23 0 -38 13 -38 35c0 9 2 19 5 29l194 573c6 19 10 36 10 53c0 33 -15 61 -62 61c-84 0 -144 -74 -192 -227l-19 -62h166l-17 -50h-165l-83 -248c-60 -182 -174 -451 -344 -451 c-60 0 -81 30 -81 60c0 39 31 54 58 54c7 0 13 -1 13 -1c-4 -9 -6 -17 -6 -25c0 -24 16 -40 48 -40c82 0 137 90 186 252l120 399h-206l-83 -248c-60 -182 -174 -451 -344 -451c-60 0 -81 30 -81 60c0 39 31 54 58 54c7 0 13 -1 13 -1c-4 -9 -6 -17 -6 -25 c0 -24 16 -40 48 -40c82 0 137 90 186 252l123 408h-76l7 24l83 17l8 26c51 156 171 236 306 236c47 0 86 -13 107 -32c59 63 133 103 216 103c58 0 87 -25 101 -44c12 4 23 9 35 15zM270 507l-18 -61h207l9 27c14 44 34 86 57 124c-6 40 -42 67 -92 67 c-61 0 -128 -38 -163 -157z" />
<glyph unicode="fk" horiz-adv-x="804" d="M320 48l195 573c6 19 10 36 10 53c0 33 -15 61 -62 61c-84 0 -144 -74 -192 -227l-19 -62h166l-17 -50h-165l-83 -248c-60 -182 -174 -451 -344 -451c-60 0 -81 30 -81 60c0 39 31 54 58 54c7 0 13 -1 13 -1c-4 -9 -6 -17 -6 -25c0 -24 16 -40 48 -40 c82 0 137 90 186 252l123 408h-76l7 24l83 17l9 27c55 167 178 306 333 306c58 0 87 -25 101 -44c12 4 23 9 35 15c-153 -399 -216 -563 -218 -570h4c71 148 171 286 285 286c73 0 92 -49 92 -79c0 -102 -112 -152 -219 -178l14 -51c26 -96 61 -131 120 -131 c21 0 41 5 58 12l7 -10s-34 -46 -98 -46c-88 0 -129 47 -152 158l-15 72c71 21 207 81 207 151c0 21 -10 35 -42 35c-126 0 -296 -303 -296 -407c0 0 -12 -8 -36 -8c-23 0 -38 13 -38 35c0 9 2 19 5 29z" />
<glyph unicode="ffk" horiz-adv-x="1099" d="M615 48l195 573c6 19 10 36 10 53c0 33 -15 61 -62 61c-84 0 -144 -74 -192 -227l-19 -62h166l-17 -50h-165l-83 -248c-60 -182 -174 -451 -344 -451c-60 0 -81 30 -81 60c0 39 31 54 58 54c7 0 13 -1 13 -1c-4 -9 -6 -17 -6 -25c0 -24 16 -40 48 -40 c82 0 137 90 186 252l120 399h-206l-83 -248c-60 -182 -174 -451 -344 -451c-60 0 -81 30 -81 60c0 39 31 54 58 54c7 0 13 -1 13 -1c-4 -9 -6 -17 -6 -25c0 -24 16 -40 48 -40c82 0 137 90 186 252l123 408h-76l7 24l83 17l8 26c51 156 171 236 306 236 c47 0 86 -13 107 -32c59 63 133 103 216 103c58 0 87 -25 101 -44c12 4 23 9 35 15c-153 -399 -216 -563 -218 -570h4c71 148 171 286 285 286c73 0 92 -49 92 -79c0 -102 -112 -152 -219 -178l14 -51c26 -96 61 -131 120 -131c21 0 41 5 58 12l7 -10s-34 -46 -98 -46 c-88 0 -129 47 -152 158l-15 72c71 21 207 81 207 151c0 21 -10 35 -42 35c-126 0 -296 -303 -296 -407c0 0 -12 -8 -36 -8c-23 0 -38 13 -38 35c0 9 2 19 5 29zM270 507l-18 -61h207l9 27c14 44 34 86 57 124c-7 39 -43 67 -92 67c-61 0 -128 -38 -163 -157z" />
<glyph unicode="fr" horiz-adv-x="693" d="M338 48l81 287c2 7 7 25 7 34c0 23 -22 28 -64 28h-125l-84 -249c-61 -182 -174 -451 -344 -451c-60 0 -81 30 -81 60c0 39 31 54 58 54c7 0 13 -1 13 -1c-4 -9 -6 -17 -6 -25c0 -24 16 -40 48 -40c82 0 137 90 186 252l123 408h-76l7 24l82 10l10 34 c50 169 178 306 333 306c97 0 124 -50 124 -85c0 -33 -31 -69 -71 -69c-15 0 -28 4 -36 8c4 13 7 30 7 40c0 22 -7 62 -67 62c-84 0 -150 -72 -192 -227l-17 -62h245c16 5 31 11 47 19c-78 -193 -106 -263 -114 -285h4s119 285 242 285c42 0 64 -26 64 -59 c0 -41 -35 -59 -62 -59c-4 0 -7 1 -7 1s2 6 2 13c0 11 -6 31 -36 31c-96 0 -232 -300 -232 -400c0 0 -12 -7 -36 -7c-23 0 -36 18 -36 40c0 9 0 13 3 23z" />
<glyph unicode="ffr" horiz-adv-x="987" d="M632 48l81 287c2 7 7 25 7 34c0 23 -22 28 -64 28h-125l-84 -249c-61 -182 -174 -451 -344 -451c-60 0 -81 30 -81 60c0 39 31 54 58 54c7 0 13 -1 13 -1c-4 -9 -6 -17 -6 -25c0 -24 16 -40 48 -40c82 0 137 90 186 252l120 399h-205l-83 -248 c-60 -182 -174 -451 -344 -451c-60 0 -81 30 -81 60c0 39 31 54 58 54c7 0 13 -1 13 -1c-4 -9 -6 -17 -6 -25c0 -24 16 -40 48 -40c82 0 137 90 186 252l123 408h-76l7 24l83 17l8 26c51 156 171 236 306 236c45 0 83 -12 104 -30c60 62 135 101 218 101 c97 0 124 -50 124 -85c0 -33 -31 -69 -71 -69c-15 0 -28 4 -36 8c4 13 7 30 7 40c0 22 -7 62 -67 62c-84 0 -150 -72 -192 -227l-17 -62h245c16 5 31 11 47 19c-78 -193 -106 -263 -114 -285h4s119 285 242 285c42 0 64 -26 64 -59c0 -41 -35 -59 -62 -59c-4 0 -7 1 -7 1 s2 6 2 13c0 11 -6 31 -36 31c-96 0 -232 -300 -232 -400c0 0 -12 -7 -36 -7c-23 0 -36 18 -36 40c0 9 0 13 3 23zM270 507l-18 -61h207l8 27c13 46 33 89 57 128c-9 37 -44 63 -91 63c-61 0 -128 -38 -163 -157z" />
<glyph unicode="ft" horiz-adv-x="603" d="M584 573c-23 -23 -53 -120 -53 -120h127l-18 -44h-124l-67 -182c-29 -78 -44 -125 -44 -148c0 -14 8 -19 17 -19c35 0 89 65 121 112l17 -10c-30 -58 -112 -178 -185 -178c-34 0 -52 22 -52 62c0 22 4 50 16 84l98 278h-197l-87 -260c-60 -182 -174 -451 -344 -451 c-60 0 -81 30 -81 60c0 39 31 54 58 54c7 0 13 -1 13 -1c-4 -9 -6 -17 -6 -25c0 -24 16 -40 48 -40c82 0 137 90 186 252l123 408h-76l7 24l83 17l9 27c55 167 178 306 333 306c78 0 114 -30 114 -66c0 -33 -30 -58 -63 -58c-16 0 -26 4 -34 8c5 9 9 20 9 31 c0 21 -16 41 -74 41c-80 0 -139 -74 -187 -227l-19 -62l201 10l26 71c14 40 38 57 71 57c15 0 30 -7 34 -11z" />
<glyph unicode="fft" horiz-adv-x="902" d="M883 573c-23 -23 -53 -120 -53 -120h127l-18 -44h-124l-67 -182c-29 -78 -44 -125 -44 -148c0 -14 8 -19 17 -19c35 0 89 65 121 112l17 -10c-30 -58 -112 -178 -185 -178c-34 0 -52 22 -52 62c0 22 4 50 16 84l98 278h-197l-87 -260c-60 -182 -174 -451 -344 -451 c-60 0 -81 30 -81 60c0 39 31 54 58 54c7 0 13 -1 13 -1c-4 -9 -6 -17 -6 -25c0 -24 16 -40 48 -40c82 0 137 90 186 252l120 399h-209l-83 -248c-60 -182 -174 -451 -344 -451c-60 0 -81 30 -81 60c0 39 31 54 58 54c7 0 13 -1 13 -1c-4 -9 -6 -17 -6 -25 c0 -24 16 -40 48 -40c82 0 137 90 186 252l123 408h-76l7 24l83 17l8 26c51 156 171 236 306 236c50 0 89 -13 110 -32c59 63 133 103 216 103c78 0 114 -30 114 -66c0 -33 -30 -58 -63 -58c-16 0 -26 4 -34 8c5 9 9 20 9 31c0 21 -16 41 -74 41c-80 0 -139 -74 -187 -227 l-19 -62l201 10l26 71c14 40 38 57 71 57c15 0 30 -7 34 -11zM463 446l9 27c14 42 32 84 55 121c-4 43 -40 70 -93 70c-61 0 -128 -38 -163 -157l-18 -61h210z" />
<glyph unicode="fy" horiz-adv-x="760" d="M775 396c0 -181 -353 -639 -583 -639c-40 0 -65 21 -65 53c0 31 22 49 45 55c6 -20 21 -32 53 -32c103 0 200 71 222 117c5 11 6 44 6 86c0 127 -20 308 -24 341c-3 27 -21 33 -57 32l-132 -3l-87 -258c-61 -182 -174 -451 -344 -451c-60 0 -81 30 -81 60 c0 39 31 54 58 54c7 0 13 -1 13 -1c-4 -9 -6 -17 -6 -25c0 -24 16 -40 48 -40c82 0 137 90 186 252l123 408h-76l7 24l82 10l10 34c50 169 178 306 333 306c97 0 124 -50 124 -85c0 -33 -31 -69 -71 -69c-15 0 -28 4 -36 8c4 13 7 30 7 40c0 22 -7 62 -67 62 c-84 0 -143 -74 -192 -227l-22 -69l171 13c19 1 30 2 44 2c30 0 40 -18 42 -50c5 -88 11 -237 11 -401c86 82 176 242 176 339c0 31 -13 60 -44 65c6 36 32 58 62 58c40 0 64 -30 64 -69z" />
<glyph unicode="ffy" horiz-adv-x="1059" d="M1074 396c0 -181 -353 -639 -583 -639c-40 0 -65 21 -65 53c0 31 22 49 45 55c6 -20 21 -32 53 -32c103 0 200 71 222 117c5 11 6 44 6 86c0 127 -20 306 -24 339c-3 27 -19 30 -57 30h-132l-87 -257c-61 -182 -174 -451 -344 -451c-60 0 -81 30 -81 60c0 39 31 54 58 54 c7 0 13 -1 13 -1c-4 -9 -6 -17 -6 -25c0 -24 16 -40 48 -40c82 0 137 90 186 252l123 408h-209l-86 -257c-60 -182 -174 -451 -344 -451c-60 0 -81 30 -81 60c0 39 31 54 58 54c7 0 13 -1 13 -1c-4 -9 -6 -17 -6 -25c0 -24 16 -40 48 -40c82 0 137 90 186 252l123 408h-76 l7 24l81 11l10 32c49 157 171 236 306 236c48 0 87 -13 108 -31c60 62 135 102 218 102c97 0 124 -50 124 -85c0 -33 -31 -69 -71 -69c-15 0 -28 4 -36 8c4 13 7 30 7 40c0 22 -7 62 -67 62c-84 0 -144 -74 -192 -227l-20 -64l169 8c19 1 30 2 44 2c30 0 40 -18 42 -50 c5 -88 11 -237 11 -401c86 82 176 242 176 339c0 31 -13 60 -44 65c6 36 32 58 62 58c40 0 64 -30 64 -69zM271 507l-21 -68l213 3l9 31c13 44 31 86 54 124c-5 41 -40 67 -92 67c-61 0 -126 -38 -163 -157z" />
<glyph unicode="gf" horiz-adv-x="744" d="M1058 713c0 -33 -30 -58 -63 -58c-16 0 -26 4 -34 8c5 9 9 20 9 31c0 21 -16 41 -74 41c-80 0 -139 -74 -187 -227l-19 -62h136l-21 -50h-131l-83 -248c-76 -227 -169 -411 -454 -411c-110 0 -179 54 -179 129c0 52 34 84 75 84c23 0 38 -13 40 -27 c-23 -4 -47 -20 -47 -57c0 -47 46 -92 130 -92c106 0 141 53 141 94c0 44 -29 62 -97 82c-64 19 -130 38 -130 99c0 53 49 80 91 86c-41 12 -71 47 -71 106c0 110 90 225 199 225c32 0 52 -7 75 -28c14 -3 37 -6 51 -6c26 0 37 2 62 16c8 -6 16 -15 16 -30 c0 -22 -13 -38 -40 -38c-24 0 -50 21 -69 28c6 -13 10 -30 10 -59c0 -107 -81 -209 -182 -218c-34 -6 -74 -20 -74 -53c0 -29 42 -42 99 -59c98 -28 132 -68 132 -131c0 -32 -13 -60 -35 -84c49 30 99 88 131 193l123 408h-76l7 24l83 17l9 27c55 167 178 306 333 306 c78 0 114 -30 114 -66zM267 437c-77 0 -105 -126 -105 -189c0 -61 21 -89 53 -89c77 0 107 125 107 189c0 52 -16 89 -55 89z" />
<glyph unicode="gfl" horiz-adv-x="1013" d="M602 446l9 27c55 167 178 306 333 306c59 0 87 -24 101 -43c9 3 25 9 35 14l-203 -585c-16 -46 -24 -71 -24 -90c0 -14 6 -21 20 -21c41 0 84 61 106 93l15 -11c-31 -58 -93 -152 -167 -152c-30 0 -58 16 -58 66c0 20 6 47 17 81l169 500c5 15 8 32 8 47 c0 31 -14 57 -62 57c-84 0 -144 -74 -192 -227l-19 -62h136l-21 -50h-131l-83 -248c-76 -227 -169 -411 -454 -411c-110 0 -179 54 -179 129c0 52 34 84 75 84c23 0 38 -13 40 -27c-23 -4 -47 -20 -47 -57c0 -47 46 -92 130 -92c106 0 141 53 141 94c0 44 -29 62 -97 82 c-64 19 -130 38 -130 99c0 53 49 80 91 86c-41 12 -71 47 -71 106c0 110 90 225 199 225c32 0 52 -7 75 -28c14 -3 37 -6 51 -6c26 0 37 2 62 16c8 -6 16 -15 16 -30c0 -22 -13 -38 -40 -38c-24 0 -50 21 -69 28c6 -13 10 -30 10 -59c0 -107 -81 -209 -182 -218 c-34 -6 -74 -20 -74 -53c0 -29 42 -42 99 -59c98 -28 132 -68 132 -131c0 -32 -13 -60 -35 -84c49 30 99 88 131 193l123 408h-76l7 24zM267 437c-77 0 -105 -126 -105 -189c0 -61 21 -89 53 -89c77 0 107 125 107 189c0 52 -16 89 -55 89z" />
<glyph unicode="f&#xe4;" horiz-adv-x="784" d="M680 50c34 0 68 49 93 90l15 -10c-23 -54 -79 -147 -149 -147c-31 0 -52 15 -52 57c0 44 20 89 30 115h-4c-29 -60 -83 -172 -185 -172c-61 0 -88 49 -88 114c0 162 137 342 286 342c39 0 60 -17 77 -31c5 16 24 57 58 57c16 0 29 -7 38 -15c-30 -35 -138 -280 -138 -378 c0 -14 5 -22 19 -22zM465 42c84 0 180 211 208 314c-12 29 -35 45 -67 45c-104 0 -188 -153 -188 -284c0 -52 11 -75 47 -75zM770 556c-27 0 -44 19 -44 44c0 29 24 61 59 61c26 0 43 -19 43 -44c0 -29 -26 -61 -58 -61zM584 556c-25 0 -43 14 -43 37c0 30 29 54 29 86 c0 37 -26 60 -88 60c-94 0 -163 -78 -211 -231l-19 -62h136l-21 -50h-131l-83 -248c-60 -182 -174 -451 -344 -451c-60 0 -81 30 -81 60c0 39 31 54 58 54c7 0 13 -1 13 -1c-4 -9 -6 -17 -6 -25c0 -24 16 -40 48 -40c82 0 137 90 186 252l123 408h-76l7 24l83 17l9 27 c55 167 178 306 333 306c113 0 140 -70 140 -129c0 -34 -18 -94 -62 -94z" />
<glyph unicode="ff&#xe4;" horiz-adv-x="1090" d="M885 556c-25 0 -43 14 -43 37c0 30 29 54 29 86c0 37 -26 60 -88 60c-94 0 -163 -78 -211 -231l-19 -62h136l-21 -50h-131l-83 -248c-60 -182 -174 -451 -344 -451c-60 0 -81 30 -81 60c0 39 31 54 58 54c7 0 13 -1 13 -1c-4 -9 -6 -17 -6 -25c0 -24 16 -40 48 -40 c82 0 137 90 186 252l120 399h-211l-83 -248c-60 -182 -174 -451 -344 -451c-60 0 -81 30 -81 60c0 39 31 54 58 54c7 0 13 -1 13 -1c-4 -9 -6 -17 -6 -25c0 -24 16 -40 48 -40c82 0 137 90 186 252l123 408h-76l7 24l83 17l8 26c51 156 171 236 306 236 c50 0 90 -13 110 -34c59 64 134 105 218 105c113 0 140 -70 140 -129c0 -34 -18 -94 -62 -94zM981 50c34 0 68 49 93 90l15 -10c-23 -54 -79 -147 -149 -147c-31 0 -52 15 -52 57c0 44 20 89 30 115h-4c-29 -60 -83 -172 -185 -172c-61 0 -88 49 -88 114 c0 162 137 342 286 342c39 0 60 -17 77 -31c5 16 24 57 58 57c16 0 29 -7 38 -15c-30 -35 -138 -280 -138 -378c0 -14 5 -22 19 -22zM766 42c84 0 180 211 208 314c-12 29 -35 45 -67 45c-104 0 -188 -153 -188 -284c0 -52 11 -75 47 -75zM271 507l-18 -61h212l9 27 c13 41 31 81 53 117c-5 47 -41 74 -93 74c-61 0 -128 -38 -163 -157zM1071 556c-27 0 -44 19 -44 44c0 29 24 61 59 61c26 0 43 -19 43 -44c0 -29 -26 -61 -58 -61z" />
<glyph unicode="f&#xeb;" horiz-adv-x="710" d="M584 556c-25 0 -43 14 -43 37c0 30 29 54 29 86c0 37 -26 60 -88 60c-94 0 -163 -78 -211 -231l-19 -62h136l-21 -50h-131l-83 -248c-60 -182 -174 -451 -344 -451c-60 0 -81 30 -81 60c0 39 31 54 58 54c7 0 13 -1 13 -1c-4 -9 -6 -17 -6 -25c0 -24 16 -40 48 -40 c82 0 137 90 186 252l123 408h-76l7 24l83 17l9 27c55 167 178 306 333 306c113 0 140 -70 140 -129c0 -34 -18 -94 -62 -94zM763 556c-27 0 -44 19 -44 44c0 29 24 61 59 61c26 0 43 -19 43 -44c0 -29 -26 -61 -58 -61zM652 390c0 23 -13 36 -34 36 c-84 0 -142 -126 -163 -185c68 20 197 63 197 149zM729 397c0 -78 -95 -134 -282 -183c-10 -34 -15 -63 -15 -98c0 -37 17 -75 69 -75c63 0 126 61 150 96l15 -11c-14 -25 -83 -142 -194 -142c-80 0 -122 45 -122 121c0 143 116 361 302 361c57 0 77 -36 77 -69z" />
<glyph unicode="ff&#xeb;" horiz-adv-x="1016" d="M885 556c-25 0 -43 14 -43 37c0 30 29 54 29 86c0 37 -26 60 -88 60c-94 0 -163 -78 -211 -231l-19 -62h136l-21 -50h-131l-83 -248c-60 -182 -174 -451 -344 -451c-60 0 -81 30 -81 60c0 39 31 54 58 54c7 0 13 -1 13 -1c-4 -9 -6 -17 -6 -25c0 -24 16 -40 48 -40 c82 0 137 90 186 252l120 399h-211l-83 -248c-60 -182 -174 -451 -344 -451c-60 0 -81 30 -81 60c0 39 31 54 58 54c7 0 13 -1 13 -1c-4 -9 -6 -17 -6 -25c0 -24 16 -40 48 -40c82 0 137 90 186 252l123 408h-76l7 24l83 17l8 26c51 156 171 236 306 236 c50 0 90 -13 110 -34c59 64 134 105 218 105c113 0 140 -70 140 -129c0 -34 -18 -94 -62 -94zM271 507l-18 -61h212l9 27c13 41 31 81 53 117c-5 47 -41 74 -93 74c-61 0 -128 -38 -163 -157zM1069 556c-27 0 -44 19 -44 44c0 29 24 61 59 61c26 0 43 -19 43 -44 c0 -29 -26 -61 -58 -61zM958 390c0 23 -13 36 -34 36c-84 0 -142 -126 -163 -185c68 20 197 63 197 149zM1035 397c0 -78 -95 -134 -282 -183c-10 -34 -15 -63 -15 -98c0 -37 17 -75 69 -75c63 0 126 61 150 96l15 -11c-14 -25 -83 -142 -194 -142c-80 0 -122 45 -122 121 c0 143 116 361 302 361c57 0 77 -36 77 -69z" />
<glyph unicode="f&#xf6;" horiz-adv-x="741" d="M565 556c-25 0 -38 14 -38 37c0 30 29 54 29 86c0 37 -12 60 -74 60c-94 0 -163 -78 -211 -231l-19 -62h136l-21 -50h-131l-83 -248c-60 -182 -174 -451 -344 -451c-60 0 -81 30 -81 60c0 39 31 54 58 54c7 0 13 -1 13 -1c-4 -9 -6 -17 -6 -25c0 -24 16 -40 48 -40 c82 0 137 90 186 252l123 408h-76l7 24l83 17l9 27c55 167 178 306 333 306c102 0 131 -58 131 -117c0 -34 -24 -106 -72 -106zM752 556c-27 0 -44 19 -44 44c0 29 24 61 59 61c26 0 43 -19 43 -44c0 -29 -26 -61 -58 -61zM467 -16c-70 0 -116 51 -116 139 c0 148 119 343 273 343c71 0 117 -51 117 -140c0 -148 -119 -342 -274 -342zM496 21c91 0 163 182 163 295c0 73 -21 112 -63 112c-91 0 -163 -181 -163 -294c0 -73 21 -113 63 -113z" />
<glyph unicode="ff&#xf6;" horiz-adv-x="1047" d="M866 556c-25 0 -38 14 -38 37c0 30 29 54 29 86c0 37 -12 60 -74 60c-94 0 -163 -78 -211 -231l-19 -62h136l-21 -50h-131l-83 -248c-60 -182 -174 -451 -344 -451c-60 0 -81 30 -81 60c0 39 31 54 58 54c7 0 13 -1 13 -1c-4 -9 -6 -17 -6 -25c0 -24 16 -40 48 -40 c82 0 137 90 186 252l120 399h-211l-83 -248c-60 -182 -174 -451 -344 -451c-60 0 -81 30 -81 60c0 39 31 54 58 54c7 0 13 -1 13 -1c-4 -9 -6 -17 -6 -25c0 -24 16 -40 48 -40c82 0 137 90 186 252l123 408h-76l7 24l83 17l8 26c51 156 171 236 306 236 c49 0 90 -13 110 -34c60 64 134 105 218 105c102 0 131 -58 131 -117c0 -42 -27 -106 -72 -106zM271 507l-18 -61h212l8 27c13 41 32 81 54 117c-5 47 -41 74 -93 74c-61 0 -128 -38 -163 -157zM1058 556c-27 0 -44 19 -44 44c0 29 24 61 59 61c26 0 43 -19 43 -44 c0 -29 -26 -61 -58 -61zM773 -16c-70 0 -116 51 -116 139c0 148 119 343 273 343c71 0 117 -51 117 -140c0 -148 -119 -342 -274 -342zM802 21c91 0 163 182 163 295c0 73 -21 112 -63 112c-91 0 -163 -181 -163 -294c0 -73 21 -113 63 -113z" />
<glyph unicode="f&#xfc;" horiz-adv-x="802" d="M578 556c-25 0 -43 14 -43 37c0 30 29 54 29 86c0 37 -20 60 -82 60c-94 0 -163 -78 -211 -231l-19 -62h136l-21 -50h-131l-83 -248c-60 -182 -174 -451 -344 -451c-60 0 -81 30 -81 60c0 39 31 54 58 54c7 0 13 -1 13 -1c-4 -9 -6 -17 -6 -25c0 -24 16 -40 48 -40 c82 0 137 90 186 252l123 408h-76l7 24l83 17l9 27c55 167 178 306 333 306c101 0 134 -64 134 -123c0 -34 -18 -100 -62 -100zM760 556c-27 0 -44 19 -44 44c0 29 24 61 59 61c26 0 43 -19 43 -44c0 -29 -26 -61 -58 -61zM451 400c-25 0 -65 -52 -86 -82l-15 10 c32 60 89 138 158 138c24 0 38 -9 38 -39c0 -26 -11 -69 -34 -135l-60 -172c-8 -22 -12 -37 -12 -50c0 -10 3 -19 15 -19c101 0 276 303 276 407c0 0 10 8 34 8c23 0 38 -13 38 -36c0 -8 -2 -18 -5 -28l-94 -289c-3 -10 -7 -22 -7 -32c0 -23 27 -28 69 -28v-22 s-97 -4 -184 -46c78 192 106 263 114 285h-4c-70 -129 -178 -286 -279 -286c-39 0 -53 18 -53 50c0 19 8 57 19 87l60 171c17 48 27 78 27 94c0 10 -5 14 -15 14z" />
<glyph unicode="ff&#xfc;" horiz-adv-x="1108" d="M866 556c-25 0 -38 14 -38 37c0 30 29 54 29 86c0 37 -12 60 -74 60c-94 0 -163 -78 -211 -231l-19 -62h136l-21 -50h-131l-83 -248c-60 -182 -174 -451 -344 -451c-60 0 -81 30 -81 60c0 39 31 54 58 54c7 0 13 -1 13 -1c-4 -9 -6 -17 -6 -25c0 -24 16 -40 48 -40 c82 0 137 90 186 252l120 399h-211l-83 -248c-60 -182 -174 -451 -344 -451c-60 0 -81 30 -81 60c0 39 31 54 58 54c7 0 13 -1 13 -1c-4 -9 -6 -17 -6 -25c0 -24 16 -40 48 -40c82 0 137 90 186 252l123 408h-76l7 24l83 17l8 26c51 156 171 236 306 236 c49 0 90 -13 110 -34c60 64 134 105 218 105c102 0 131 -58 131 -117c0 -42 -27 -106 -72 -106zM271 507l-18 -61h212l8 27c13 41 32 81 54 117c-5 47 -41 74 -93 74c-61 0 -128 -38 -163 -157zM1058 556c-27 0 -44 19 -44 44c0 29 24 61 59 61c26 0 43 -19 43 -44 c0 -29 -26 -61 -58 -61zM757 400c-25 0 -65 -52 -86 -82l-15 10c32 60 89 138 158 138c24 0 38 -9 38 -39c0 -26 -11 -69 -34 -135l-60 -172c-8 -22 -12 -37 -12 -50c0 -10 3 -19 15 -19c101 0 276 303 276 407c0 0 10 8 34 8c23 0 38 -13 38 -36c0 -8 -2 -18 -5 -28 l-94 -289c-3 -10 -7 -22 -7 -32c0 -23 27 -28 69 -28v-22s-97 -4 -184 -46c78 192 106 263 114 285h-4c-70 -129 -178 -286 -279 -286c-39 0 -53 18 -53 50c0 19 8 57 19 87l60 171c17 48 27 78 27 94c0 10 -5 14 -15 14z" />
<glyph unicode="B" horiz-adv-x="595" d="M401 666c-26 0 -43 -4 -53 -7l-64 -278s12 2 31 2s39 -1 67 -6c72 9 139 66 139 165c0 65 -37 124 -120 124zM277 349l-53 -224c-1 -4 -6 -25 -6 -40c0 -36 26 -51 81 -51c94 0 179 49 179 154c0 133 -116 163 -173 163c-17 0 -28 -2 -28 -2zM294 697c64 0 91 3 150 3 c99 0 168 -59 168 -154c0 -127 -124 -174 -177 -184c64 -16 139 -71 139 -174c0 -128 -118 -188 -253 -188c0 0 -98 3 -179 3c-85 0 -132 -3 -132 -3l7 29l21 5c55 13 81 40 94 98l107 469c2 10 4 20 4 29c0 24 -16 31 -46 36l-32 5l7 29s34 -3 122 -3z" />
<glyph unicode="C" horiz-adv-x="679" d="M718 596c0 -46 -35 -82 -76 -82c-25 0 -40 9 -40 9c5 12 12 31 12 58c0 44 -36 93 -135 93c-215 0 -321 -199 -321 -401c0 -155 73 -249 180 -249c139 0 218 67 265 152l26 -7l-65 -147c-63 0 -105 -38 -239 -38c-169 0 -267 107 -267 269c0 250 190 461 469 461 c118 0 191 -55 191 -118z" />
<glyph unicode="D" horiz-adv-x="804" d="M341 659l-122 -534c-1 -4 -6 -25 -6 -40c0 -36 26 -51 81 -51c222 0 400 129 400 362c0 160 -90 270 -276 270c-34 0 -57 -3 -77 -7zM140 3c-85 0 -132 -3 -132 -3l7 29l21 5c55 13 81 40 94 98l107 469c2 10 4 20 4 29c0 24 -16 31 -46 36l-32 5l7 29s29 -3 117 -3 c48 0 113 3 152 3c229 0 355 -128 355 -284c0 -255 -192 -416 -487 -416c-57 0 -108 3 -167 3z" />
<glyph unicode="E" horiz-adv-x="565" d="M282 34c136 0 200 94 234 154l21 -3l-62 -185s-249 3 -335 3c-88 -1 -132 -3 -132 -3l7 29l21 5c55 13 81 40 94 98l107 469c2 10 4 20 4 29c0 24 -16 31 -46 36l-32 5l7 29s52 -3 140 -3c136 0 319 3 319 3l-43 -164h-20c0 78 -43 130 -143 130c-34 0 -61 -3 -78 -7 l-67 -281h77c57 0 85 28 109 77l19 39h26s-25 -71 -38 -128c-14 -62 -18 -110 -18 -110h-25l-1 25c-1 37 -18 58 -60 58h-99l-51 -214c-1 -4 -6 -25 -6 -40c0 -36 21 -51 71 -51z" />
<glyph unicode="F" horiz-adv-x="565" d="M266 330l-53 -231c-2 -10 -4 -20 -4 -29c0 -24 16 -31 46 -36l32 -5l-7 -29s-54 3 -140 3c-85 0 -132 -3 -132 -3l7 29l21 5c55 13 81 40 94 98l107 469c2 10 4 20 4 29c0 24 -16 31 -46 36l-32 5l7 29s52 -3 140 -3c136 0 319 3 319 3l-44 -164h-20 c0 78 -38 130 -142 130c-34 0 -61 -3 -78 -7l-69 -290h74c57 0 88 28 112 77l19 39h26s-25 -71 -38 -128c-14 -62 -18 -110 -18 -110h-25l-1 25c-1 37 -18 58 -60 58h-99z" />
<glyph unicode="G" horiz-adv-x="737" d="M666 523l-16 2c0 65 -15 150 -162 150c-204 0 -331 -192 -331 -401c0 -148 82 -251 202 -251c85 0 155 29 174 105l21 83c2 6 3 12 3 17c0 24 -14 35 -51 40l-39 5l7 29h258l-6 -29l-15 -5c-42 -14 -66 -49 -80 -96l-37 -128c-60 0 -125 -60 -257 -60 c-175 0 -280 94 -280 289c0 243 201 441 466 441c82 0 138 -28 193 -28z" />
<glyph unicode="H" horiz-adv-x="825" d="M707 34l32 -5l-7 -29s-54 3 -140 3c-85 0 -132 -3 -132 -3l7 29l21 5c55 13 81 40 94 98l48 210h-362l-55 -243c-2 -10 -4 -20 -4 -29c0 -24 16 -31 46 -36l32 -5l-7 -29s-54 3 -140 3c-85 0 -132 -3 -132 -3l7 29l21 5c55 13 81 40 94 98l107 469c2 10 4 20 4 29 c0 24 -16 31 -46 36l-32 5l7 29s52 -3 140 -3c82 0 132 3 132 3l-7 -29l-21 -5c-55 -13 -81 -40 -94 -98l-42 -185h361l50 218c2 10 4 20 4 29c0 24 -16 31 -46 36l-32 5l7 29s52 -3 140 -3c82 0 132 3 132 3l-7 -29l-21 -5c-55 -13 -81 -40 -94 -98l-107 -469 c-2 -10 -4 -20 -4 -29c0 -24 16 -31 46 -36z" />
<glyph unicode="I" horiz-adv-x="373" d="M255 34l32 -5l-7 -29s-54 3 -140 3c-85 0 -132 -3 -132 -3l7 29l21 5c55 13 81 40 94 98l107 469c2 10 4 20 4 29c0 24 -16 31 -46 36l-32 5l7 29s52 -3 140 -3c82 0 132 3 132 3l-7 -29l-21 -5c-55 -13 -81 -40 -94 -98l-107 -469c-2 -10 -4 -20 -4 -29 c0 -24 16 -31 46 -36z" />
<glyph unicode="J" horiz-adv-x="544" d="M521 684l-88 -366l78 15v-44l-87 -17l-57 -217c-39 -148 -128 -269 -277 -269c-56 0 -91 24 -91 64c0 32 29 47 50 47c6 0 11 -1 13 -2c-3 -8 -5 -17 -5 -25c0 -26 17 -49 58 -49c50 0 116 41 157 203l59 233l-135 -26l-6 46l151 26l82 335h-4c-22 -25 -51 -37 -85 -37 c-56 0 -92 48 -148 48c-37 0 -68 -26 -68 -65c0 -25 11 -44 41 -44c37 0 51 30 51 30c18 -9 29 -26 29 -48c0 -25 -20 -52 -70 -52c-47 0 -83 41 -83 91c0 75 74 142 155 142c70 0 85 -50 135 -50c63 0 99 108 163 108c52 0 74 -43 74 -43l-6 -26s-24 18 -54 18 c-18 0 -28 -10 -32 -26z" />
<glyph unicode="K" horiz-adv-x="742" d="M255 34l32 -5l-7 -29s-54 3 -140 3c-85 0 -132 -3 -132 -3l7 29l21 5c55 13 81 40 94 98l107 469c2 10 4 20 4 29c0 24 -16 31 -46 36l-32 5l7 29s52 -3 140 -3c82 0 132 3 132 3l-7 -29l-21 -5c-55 -13 -81 -40 -94 -98l-49 -213h79l250 265c8 8 11 16 11 23 c0 14 -14 21 -27 23l-29 5l7 29s80 -3 137 -3c49 0 125 3 125 3l-7 -29l-34 -5c-55 -8 -99 -32 -139 -73l-226 -232l140 -257c26 -47 69 -76 119 -76c25 0 36 2 36 2l-4 -21s-33 -17 -84 -17c-74 0 -124 23 -157 87l-92 184c-18 35 -46 51 -77 51c-17 0 -32 -4 -39 -8 l-47 -207c-2 -10 -4 -20 -4 -29c0 -24 16 -31 46 -36z" />
<glyph unicode="L" horiz-adv-x="558" d="M255 34c153 0 225 82 272 172l21 -3l-61 -203s-245 2 -347 3c-85 0 -132 -3 -132 -3l7 29l21 5c55 13 81 40 94 98l107 469c2 10 4 20 4 29c0 24 -16 31 -46 36l-32 5l7 29s52 -3 140 -3c82 0 132 3 132 3l-7 -29l-21 -5c-55 -13 -81 -40 -94 -98l-107 -469 c-2 -10 -4 -20 -4 -29c0 -24 17 -36 46 -36z" />
<glyph unicode="M" horiz-adv-x="974" d="M102 144l141 457c3 11 4 20 4 29c0 24 -16 29 -46 35l-32 6l7 29s86 -3 164 -3c-1 -4 -2 -12 -2 -18c0 -14 1 -30 6 -50l116 -515l347 490c31 43 47 71 53 93c105 0 169 3 169 3l-7 -29l-21 -5c-55 -13 -88 -54 -94 -98l-67 -462c-1 -8 -2 -16 -2 -23 c0 -24 11 -45 48 -49l47 -5l-7 -29s-78 4 -151 4c-79 0 -151 -4 -151 -4l7 29l21 5c60 14 94 41 105 110l66 406l-392 -555l-31 -4l-129 552l-120 -402c-8 -27 -13 -47 -13 -63c0 -26 15 -39 53 -44l43 -5l-7 -29s-69 4 -151 4c-54 0 -104 -4 -104 -4l7 29l21 5 c54 13 81 43 102 110z" />
<glyph unicode="N" horiz-adv-x="815" d="M679 666l-43 5l7 29s73 -3 154 -3c63 0 109 3 109 3l-7 -29l-21 -5c-55 -13 -81 -40 -94 -98l-126 -573l-31 -4l-344 581l-97 -418c-5 -23 -14 -59 -14 -76c0 -26 16 -40 54 -44l45 -5l-7 -29s-84 3 -146 3c-47 0 -110 -3 -110 -3l7 29l21 5c55 13 81 39 94 98l107 469 c1 4 4 21 4 29c0 24 -16 31 -46 36l-32 5l7 29c32 -2 72 -3 161 -3c0 -20 9 -43 21 -64l294 -500l90 447c3 13 5 24 5 33c0 36 -23 48 -62 53z" />
<glyph unicode="O" horiz-adv-x="760" d="M368 23c198 0 290 243 290 402c0 161 -95 250 -211 250c-198 0 -290 -243 -290 -402c0 -161 95 -250 211 -250zM495 714c153 0 263 -99 263 -269c0 -244 -196 -461 -438 -461c-153 0 -263 99 -263 269c0 244 196 461 438 461z" />
<glyph unicode="P" horiz-adv-x="597" d="M375 338c92 0 159 93 159 183c0 87 -60 145 -135 145c-26 0 -43 -4 -53 -7l-71 -305c27 0 58 -16 100 -16zM310 697c42 0 71 3 123 3c113 0 197 -67 197 -179c0 -127 -113 -226 -225 -226c-83 0 -103 29 -140 29l-52 -225c-2 -10 -4 -20 -4 -29c0 -24 16 -31 46 -36 l32 -5l-7 -29s-54 3 -140 3c-85 0 -132 -3 -132 -3l7 29l21 5c55 13 81 40 94 98l107 469c2 10 4 20 4 29c0 24 -16 31 -46 36l-32 5l7 29s52 -3 140 -3z" />
<glyph unicode="Q" horiz-adv-x="763" d="M787 -85c36 0 65 -22 65 -63c0 -115 -226 -140 -259 -140c-183 0 -404 205 -547 205c-43 0 -92 -18 -92 -58c0 -15 7 -28 22 -28c4 0 8 1 10 2c1 -3 2 -7 2 -11c0 -17 -14 -27 -34 -27c-25 0 -40 24 -40 48c0 204 745 111 745 582c0 161 -95 250 -211 250 c-153 0 -290 -161 -290 -326c0 -73 21 -165 115 -165c79 0 121 66 121 123c0 27 -7 60 -32 82c10 10 27 18 46 18c38 0 66 -29 66 -70c0 -126 -142 -194 -247 -194c-121 0 -169 77 -169 176c0 221 225 395 438 395c153 0 263 -98 263 -269c0 -344 -283 -409 -539 -463 c-50 -11 -100 -22 -150 -37l2 -3c22 6 51 10 74 10c158 0 412 -196 523 -196c51 0 98 22 98 80c0 19 -3 41 -22 65c14 11 31 14 42 14z" />
<glyph unicode="R" horiz-adv-x="677" d="M310 697c48 0 67 3 119 3c113 0 201 -65 201 -166c0 -144 -124 -194 -196 -208c24 -21 34 -45 45 -76l43 -124c24 -69 72 -100 119 -100c15 0 30 3 39 5l-5 -21s-31 -18 -90 -18c-90 0 -141 35 -161 115l-34 135c-14 55 -51 78 -90 78c-22 0 -38 -7 -38 -7l-49 -214 c-2 -10 -4 -20 -4 -29c0 -24 16 -31 46 -36l32 -5l-7 -29s-54 3 -140 3c-85 0 -132 -3 -132 -3l7 29l21 5c55 13 81 40 94 98l107 469c2 10 4 20 4 29c0 24 -16 31 -46 36l-32 5l7 29s52 -3 140 -3zM394 666c-26 0 -43 -4 -53 -7l-73 -319c22 14 43 20 70 20 c37 0 66 -16 66 -16c68 26 125 89 125 190c0 73 -56 132 -135 132z" />
<glyph unicode="S" horiz-adv-x="487" d="M542 693l-47 -156h-29c2 10 4 28 4 35c0 58 -44 103 -127 103c-71 0 -115 -48 -115 -106c0 -148 214 -166 214 -374c0 -105 -80 -211 -242 -211c-73 0 -113 30 -183 30l30 163h25v-16c0 -98 51 -137 138 -137c92 0 153 54 153 126c0 157 -214 194 -214 380 c0 100 79 184 211 184c73 0 113 -21 182 -21z" />
<glyph unicode="T" horiz-adv-x="681" d="M625 661l-136 -2l-130 -560c-2 -10 -4 -20 -4 -29c0 -24 16 -31 46 -36l32 -5l-7 -29s-54 3 -140 3c-85 0 -132 -3 -132 -3l7 29l21 5c55 13 81 40 94 98l122 526h-150c-53 0 -77 -21 -77 -43c0 -11 4 -21 10 -30c-6 -11 -24 -18 -41 -18c-23 0 -46 11 -46 42 c0 60 77 74 156 79l368 21c53 3 73 15 73 40c0 12 -6 30 -12 36c9 5 19 8 36 8c24 0 57 -14 57 -48c0 -59 -57 -83 -147 -84z" />
<glyph unicode="U" horiz-adv-x="795" d="M300 568l-61 -261c-9 -40 -14 -75 -14 -105c0 -121 68 -168 171 -168c139 0 194 87 231 252l71 315c2 10 4 20 4 29c0 24 -16 31 -46 36l-32 5l7 29s58 -4 122 -4s115 4 115 4l-7 -29l-21 -5c-55 -13 -81 -40 -94 -98l-64 -286c-40 -177 -102 -297 -298 -297 c-146 0 -250 64 -250 208c0 28 4 59 12 93l71 315c2 10 4 20 4 29c0 24 -16 31 -46 36l-32 5l7 29s52 -3 140 -3c82 0 132 3 132 3l-7 -29l-21 -5c-55 -13 -81 -40 -94 -98z" />
<glyph unicode="V" horiz-adv-x="738" d="M822 671l-21 -5c-41 -10 -72 -34 -109 -98l-337 -580l-31 -4l-111 596c-12 63 -25 79 -69 86l-32 5l7 29s53 -4 121 -4c75 0 158 4 158 4l-7 -29l-21 -5c-46 -11 -61 -30 -61 -67c0 -8 1 -18 2 -25l74 -454l256 460c10 18 17 34 17 50c0 24 -14 31 -44 36l-32 5l7 29 s62 -3 130 -3c78 0 110 3 110 3z" />
<glyph unicode="W" horiz-adv-x="1089" d="M1070 697c58 0 110 2 110 2l-7 -28l-21 -5c-44 -10 -69 -36 -107 -98l-359 -580l-31 -4l-33 559l-300 -555l-31 -4l-77 599c-7 51 -25 76 -70 83l-32 5l7 29s98 -4 128 -4c31 0 151 4 151 4l-7 -29l-21 -5c-34 -7 -67 -28 -67 -67c0 -5 1 -16 2 -25l50 -452l230 458 c9 18 16 34 16 50c0 27 -21 32 -44 36l-32 5l7 29c33 -2 78 -3 154 -3l37 -578l264 449c9 16 22 40 22 62c0 24 -13 31 -44 36l-32 5l7 29s67 -3 130 -3z" />
<glyph unicode="X" horiz-adv-x="736" d="M159 666l-24 5l7 29s55 -3 137 -3c96 0 137 3 137 3l-7 -29l-19 -5c-28 -7 -56 -17 -56 -45c0 -14 9 -32 14 -44l80 -182l161 180c17 19 39 45 39 64c0 13 -12 23 -40 27l-32 5l7 29s44 -3 139 -3c70 0 112 3 112 3l-10 -29l-21 -5c-44 -10 -77 -34 -136 -98l-199 -214 l124 -270c16 -34 43 -43 78 -50l24 -5l-7 -29s-55 3 -137 3c-96 0 -137 -3 -137 -3l7 29l19 5c28 7 56 17 56 45c0 14 -9 32 -14 44l-76 172l-152 -170c-17 -19 -39 -45 -39 -64c0 -13 12 -23 40 -27l32 -5l-7 -29s-44 3 -139 3c-70 0 -112 -3 -112 -3l10 29l21 5 c44 10 77 34 136 98l190 204l-128 280c-16 34 -43 43 -78 50z" />
<glyph unicode="Y" horiz-adv-x="695" d="M412 300l-46 -201c-2 -10 -4 -20 -4 -29c0 -24 16 -31 46 -36l32 -5l-7 -29s-54 3 -140 3c-85 0 -132 -3 -132 -3l7 29l21 5c55 13 81 40 94 98l41 178l-25 139c-25 137 -44 212 -117 212c-25 0 -39 -8 -57 -24l-5 23c21 27 59 54 104 54c115 0 141 -118 158 -236 l19 -131c8 21 158 367 316 367c40 0 68 -21 68 -60c0 -30 -30 -53 -52 -53c-3 0 -6 0 -9 1c1 4 1 7 1 9c0 14 -9 32 -39 32c-98 0 -251 -277 -274 -343z" />
<glyph unicode="Z" horiz-adv-x="649" d="M692 700l8 -22l-575 -637l194 3c174 3 218 78 287 183l24 -6l-83 -221h-548l-4 14l578 644l-218 -6c-125 -3 -167 -60 -197 -122l-24 3l58 183h28s2 -16 45 -16h427z" />
<glyph unicode="a" horiz-adv-x="478" d="M374 50c34 0 68 49 93 90l15 -10c-23 -54 -79 -147 -149 -147c-31 0 -52 15 -52 57c0 44 20 89 30 115h-4c-29 -60 -83 -172 -185 -172c-61 0 -88 49 -88 114c0 162 137 342 286 342c39 0 60 -17 77 -31c5 16 24 57 58 57c16 0 29 -7 38 -15c-30 -35 -138 -280 -138 -378 c0 -14 5 -22 19 -22zM159 42c84 0 180 211 208 314c-12 29 -35 45 -67 45c-104 0 -188 -153 -188 -284c0 -52 11 -75 47 -75z" />
<glyph unicode="b" horiz-adv-x="472" d="M343 409c-83 0 -226 -211 -226 -330c0 -41 17 -58 52 -58c125 0 222 220 222 325c0 42 -13 63 -48 63zM345 750l-175 -462h4c36 68 111 178 204 178c61 0 95 -35 95 -101c0 -162 -151 -381 -325 -381c-75 0 -103 50 -103 117c0 42 12 87 27 126l146 394c2 6 7 22 7 33 c0 22 -22 28 -64 28v22s97 4 184 46z" />
<glyph unicode="c" horiz-adv-x="395" d="M357 349c4 11 6 20 6 28c0 25 -16 41 -51 41c-116 0 -185 -182 -185 -302c0 -49 24 -75 64 -75c63 0 118 50 151 96l15 -11c-27 -55 -87 -142 -186 -142c-86 0 -126 41 -126 121c0 163 140 361 318 361c35 0 73 -15 73 -55c0 -38 -32 -64 -65 -64c-5 0 -11 1 -14 2z" />
<glyph unicode="d" horiz-adv-x="526" d="M164 43c86 0 218 183 218 334c0 30 -15 48 -40 48c-126 0 -229 -212 -229 -320c0 -42 16 -62 51 -62zM614 750l-207 -586c-14 -39 -25 -77 -25 -93c0 -13 6 -21 20 -21c38 0 84 65 106 96l15 -11c-31 -59 -93 -152 -167 -152c-31 0 -49 11 -49 58c0 35 18 80 30 114h-4 c-29 -57 -101 -171 -205 -171c-61 0 -93 34 -93 102c0 162 149 380 323 380c33 0 57 -14 67 -26l62 181c2 6 7 22 7 33c0 22 -22 28 -64 28v22s97 4 184 46z" />
<glyph unicode="e" horiz-adv-x="404" d="M346 390c0 23 -13 36 -34 36c-84 0 -142 -126 -163 -185c68 20 197 63 197 149zM423 397c0 -78 -95 -134 -282 -183c-10 -34 -15 -63 -15 -98c0 -37 17 -75 69 -75c63 0 126 61 150 96l15 -11c-14 -25 -83 -142 -194 -142c-80 0 -122 45 -122 121c0 143 116 361 302 361 c57 0 77 -36 77 -69z" />
<glyph unicode="f" horiz-adv-x="306" d="M620 713c0 -33 -30 -58 -63 -58c-16 0 -26 4 -34 8c5 9 9 20 9 31c0 21 -16 41 -74 41c-80 0 -139 -74 -187 -227l-19 -62h136l-21 -50h-131l-83 -248c-60 -182 -174 -451 -344 -451c-60 0 -81 30 -81 60c0 39 31 54 58 54c7 0 13 -1 13 -1c-4 -9 -6 -17 -6 -25 c0 -24 16 -40 48 -40c82 0 137 90 186 252l123 408h-76l7 24l83 17l9 27c55 167 178 306 333 306c78 0 114 -30 114 -66z" />
<glyph unicode="g" horiz-adv-x="438" d="M267 437c-77 0 -105 -126 -105 -189c0 -61 21 -89 53 -89c77 0 107 125 107 189c0 52 -16 89 -55 89zM156 -226c106 0 141 53 141 94c0 44 -29 62 -97 82c-64 19 -130 38 -130 99c0 53 49 80 91 86c-41 12 -71 47 -71 106c0 110 90 225 199 225c32 0 52 -7 75 -28 c14 -3 37 -6 51 -6c26 0 51 7 70 20c8 -6 17 -17 17 -32c0 -22 -15 -40 -45 -40c-32 0 -55 23 -73 28c6 -13 10 -30 10 -59c0 -107 -81 -209 -182 -218c-34 -6 -74 -20 -74 -53c0 -29 42 -42 99 -59c98 -28 132 -68 132 -131c0 -87 -91 -151 -226 -151 c-113 0 -185 52 -185 129c0 52 34 84 75 84c23 0 38 -13 40 -27c-23 -4 -47 -20 -47 -57c0 -47 46 -92 130 -92z" />
<glyph unicode="h" horiz-adv-x="508" d="M375 750c-150 -395 -215 -563 -217 -570h4c69 138 178 286 279 286c39 0 53 -18 53 -50c0 -19 -8 -57 -19 -88l-60 -170c-17 -48 -27 -78 -27 -94c0 -10 5 -14 15 -14c25 0 65 52 86 82l15 -11c-32 -59 -89 -137 -158 -137c-24 0 -38 9 -38 38c0 27 11 70 34 136l60 171 c8 23 12 38 12 50c0 11 -3 20 -15 20c-101 0 -276 -303 -276 -407c0 0 -12 -8 -36 -8c-23 0 -38 13 -38 35c0 9 1 16 5 29l194 573c2 6 7 22 7 33c0 22 -22 28 -64 28v22s97 4 184 46z" />
<glyph unicode="i" horiz-adv-x="279" d="M274 465l-118 -307c-18 -48 -27 -78 -27 -94c0 -10 4 -14 13 -14c25 0 96 67 117 97l15 -10c-32 -59 -118 -153 -187 -153c-24 0 -38 9 -38 38c0 28 6 58 25 110l73 205c3 8 7 20 7 32c0 23 -22 28 -64 28v22s97 4 184 46zM281 610c-25 0 -42 18 -42 43c0 29 24 61 57 61 c25 0 42 -18 42 -43c0 -29 -24 -61 -57 -61z" />
<glyph unicode="j" horiz-adv-x="272" d="M99 397v22s97 4 184 46l-134 -416c-26 -80 -55 -142 -120 -189c-58 -42 -125 -30 -190 -71l-6 19c50 43 115 47 156 86c33 31 51 66 70 127l102 315c1 4 6 21 6 33c0 23 -26 28 -68 28zM281 610c-25 0 -42 18 -42 43c0 29 24 61 57 61c25 0 42 -18 42 -43 c0 -29 -24 -61 -57 -61z" />
<glyph unicode="k" horiz-adv-x="533" d="M371 750c-153 -399 -216 -563 -218 -570h4c71 148 171 286 285 286c73 0 92 -49 92 -79c0 -102 -112 -152 -219 -178l14 -51c26 -96 61 -131 120 -131c21 0 41 5 58 12l7 -10s-34 -46 -98 -46c-88 0 -129 47 -152 158l-15 72c71 21 207 81 207 151c0 21 -10 35 -42 35 c-126 0 -296 -303 -296 -407c0 0 -12 -8 -36 -8c-23 0 -38 13 -38 35c0 9 2 19 5 29l195 573c2 6 7 22 7 33c0 22 -22 28 -64 28v22s97 4 184 46z" />
<glyph unicode="l" horiz-adv-x="306" d="M372 750l-202 -585c-16 -46 -24 -71 -24 -90c0 -14 6 -21 20 -21c41 0 84 61 106 93l15 -11c-31 -58 -93 -152 -167 -152c-30 0 -58 16 -58 66c0 20 6 47 17 81l166 490c2 6 7 22 7 33c0 22 -22 28 -64 28v22s97 4 184 46z" />
<glyph unicode="m" horiz-adv-x="757" d="M466 319c-34 -88 -55 -128 -59 -139h4c70 129 178 286 279 286c39 0 53 -18 53 -50c0 -19 -8 -57 -19 -88l-60 -170c-17 -48 -27 -78 -27 -94c0 -10 5 -14 15 -14c25 0 65 52 86 82l15 -11c-32 -59 -89 -137 -158 -137c-24 0 -38 9 -38 38c0 27 11 70 34 136l60 171 c8 23 12 38 12 50c0 11 -3 20 -15 20c-101 0 -276 -303 -276 -407c0 0 -12 -8 -36 -8c-23 0 -38 13 -38 35c0 9 2 19 5 29c26 92 55 175 94 281c8 23 12 38 12 50c0 11 -3 20 -15 20c-101 0 -276 -303 -276 -407c0 0 -12 -8 -36 -8c-23 0 -38 13 -38 35c0 9 2 19 5 29 l91 289c2 6 7 21 7 32c0 23 -22 28 -64 28v22s97 4 184 46c-78 -193 -106 -263 -114 -285h4c70 129 178 286 279 286c39 0 53 -18 53 -50c0 -29 -11 -65 -23 -97z" />
<glyph unicode="n" horiz-adv-x="529" d="M398 50c25 0 65 52 86 82l15 -11c-32 -59 -89 -137 -158 -137c-24 0 -38 9 -38 38c0 27 11 70 34 136l60 171c8 23 12 38 12 50c0 11 -3 20 -15 20c-101 0 -276 -303 -276 -407c0 0 -12 -8 -36 -8c-23 0 -38 13 -38 35c0 9 2 19 5 29l91 289c3 10 7 22 7 32 c0 23 -22 28 -64 28v22s97 4 184 46c-78 -193 -106 -263 -114 -285h4c70 129 178 286 279 286c39 0 53 -18 53 -50c0 -19 -8 -57 -19 -88l-60 -170c-17 -48 -27 -78 -27 -94c0 -10 5 -14 15 -14z" />
<glyph unicode="o" horiz-adv-x="435" d="M161 -16c-70 0 -116 51 -116 139c0 148 119 343 273 343c71 0 117 -51 117 -140c0 -148 -119 -342 -274 -342zM190 21c91 0 163 182 163 295c0 73 -21 112 -63 112c-91 0 -163 -181 -163 -294c0 -73 21 -113 63 -113z" />
<glyph unicode="p" horiz-adv-x="512" d="M353 401c-36 0 -75 -20 -75 -20l-105 -311s6 -49 64 -49c102 0 195 174 195 284c0 43 -13 96 -79 96zM326 570c16 0 24 -3 34 -7c-32 -36 -67 -141 -67 -141s34 17 89 17c85 0 131 -53 131 -124c0 -137 -138 -331 -296 -331c-35 0 -62 12 -71 24l-68 -183 c-8 -22 -15 -49 -15 -68c0 -24 12 -36 50 -42l48 -8v-25h-293v25l23 7c60 18 89 52 114 122l187 518c-58 -26 -114 -65 -114 -65l-9 24s56 43 136 82l32 98c16 48 41 77 89 77z" />
<glyph unicode="q" horiz-adv-x="496" d="M173 43c86 0 218 183 218 334c0 30 -15 48 -40 48c-126 0 -229 -212 -229 -320c0 -42 16 -62 51 -62zM441 432c7 31 38 55 70 55c9 0 21 -3 28 -8c-24 -29 -36 -61 -68 -152l-179 -502c-8 -22 -15 -49 -15 -68c0 -24 12 -36 50 -42l48 -8v-25h-293v25l23 7 c57 17 86 53 114 122l127 319h-4c-29 -57 -101 -171 -205 -171c-61 0 -93 34 -93 102c0 162 149 380 323 380c33 0 60 -14 74 -34z" />
<glyph unicode="r" horiz-adv-x="412" d="M56 48l81 287c2 7 7 25 7 34c0 23 -22 28 -64 28v22s97 4 184 46c-78 -193 -106 -263 -114 -285h4s119 285 242 285c42 0 64 -26 64 -59c0 -41 -35 -59 -62 -59c-4 0 -7 1 -7 1s2 6 2 13c0 11 -6 31 -36 31c-96 0 -232 -300 -232 -400c0 0 -12 -7 -36 -7 c-23 0 -36 18 -36 40c0 9 0 13 3 23z" />
<glyph unicode="s" horiz-adv-x="335" d="M368 409c0 -30 -23 -55 -60 -55c-7 0 -12 1 -16 2c3 6 5 14 5 20c0 23 -12 43 -52 43c-52 0 -75 -39 -75 -70c0 -74 98 -114 98 -214c0 -96 -105 -151 -177 -151c-42 0 -87 11 -87 53c0 35 29 56 60 56c5 0 10 -1 10 -1c-4 -7 -6 -14 -6 -22c0 -21 24 -35 50 -35 c45 0 82 17 82 67c0 82 -84 120 -84 219c0 84 92 145 162 145c57 0 90 -25 90 -57z" />
<glyph unicode="t" horiz-adv-x="329" d="M310 573c-23 -23 -53 -120 -53 -120h127l-18 -44h-124l-67 -182c-29 -78 -44 -125 -44 -148c0 -14 8 -19 17 -19c35 0 89 65 121 112l17 -10c-30 -58 -112 -178 -185 -178c-34 0 -52 22 -52 62c0 22 4 50 16 84l98 281l-54 2l3 29l67 14l26 71c14 40 38 57 71 57 c15 0 30 -7 34 -11z" />
<glyph unicode="u" horiz-adv-x="496" d="M145 400c-25 0 -65 -52 -86 -82l-15 10c32 60 89 138 158 138c24 0 38 -9 38 -39c0 -26 -11 -69 -34 -135l-60 -172c-8 -22 -12 -37 -12 -50c0 -10 3 -19 15 -19c101 0 276 303 276 407c0 0 10 8 34 8c23 0 38 -13 38 -36c0 -8 -2 -18 -5 -28l-94 -289 c-3 -10 -7 -22 -7 -32c0 -23 27 -28 69 -28v-22s-97 -4 -184 -46c78 192 106 263 114 285h-4c-70 -129 -178 -286 -279 -286c-39 0 -53 18 -53 50c0 19 8 57 19 87l60 171c17 48 27 78 27 94c0 10 -5 14 -15 14z" />
<glyph unicode="v" horiz-adv-x="448" d="M168 466c35 0 42 -31 42 -63c0 -77 -26 -338 -26 -338c76 0 201 163 201 277c0 32 -13 60 -44 65c6 36 32 58 62 58c40 0 64 -30 64 -69c0 -112 -131 -331 -345 -411l-11 10s18 289 21 385c0 12 -3 20 -13 20c-30 0 -54 -55 -68 -95l-16 2c6 39 47 159 133 159z" />
<glyph unicode="w" horiz-adv-x="689" d="M414 466c35 0 42 -31 42 -63c0 -77 -26 -338 -26 -338c76 0 201 163 201 277c0 32 -13 60 -44 65c6 36 32 58 62 58c40 0 64 -30 64 -69c0 -112 -131 -331 -345 -411l-11 10s5 108 11 203c-52 -95 -140 -176 -246 -213l-11 10s18 289 21 385c0 12 -3 20 -13 20 c-30 0 -54 -55 -68 -95l-16 2c6 39 47 159 133 159c35 0 42 -31 42 -63c0 -77 -26 -338 -26 -338c85 2 194 169 194 315c0 12 -3 20 -13 20c-30 0 -54 -55 -68 -95l-16 2c6 39 47 159 133 159z" />
<glyph unicode="x" horiz-adv-x="548" d="M331 258c0 0 21 -205 60 -205c34 0 67 62 91 113l19 -5c-25 -78 -64 -177 -130 -177c-79 0 -98 193 -98 193s-123 -193 -221 -193c-28 0 -53 12 -53 46c0 33 33 54 46 54c0 -16 7 -26 28 -26c73 0 191 161 191 161s-11 180 -50 180s-91 -115 -91 -115l-15 12 s55 170 145 170c54 0 70 -166 70 -166s85 165 192 165c38 0 61 -20 61 -50c0 -40 -45 -59 -67 -59c1 4 2 8 2 13c0 16 -11 26 -31 26c-66 0 -149 -137 -149 -137z" />
<glyph unicode="y" horiz-adv-x="488" d="M503 396c0 -181 -353 -639 -583 -639c-40 0 -65 21 -65 53c0 31 22 49 45 55c6 -20 21 -32 53 -32c103 0 200 71 222 117c5 11 6 44 6 86c0 127 -21 308 -24 341c-1 14 -3 23 -12 23c-37 0 -69 -92 -70 -95l-16 2c6 39 47 159 133 159c35 0 40 -30 42 -62 c5 -88 11 -237 11 -401c86 82 176 242 176 339c0 31 -13 60 -44 65c6 36 32 58 62 58c40 0 64 -30 64 -69z" />
<glyph unicode="z" horiz-adv-x="503" d="M246 460c81 0 125 -68 178 -68c45 0 71 62 73 74c12 0 25 -6 25 -20c0 -56 -114 -131 -165 -171c-84 -66 -179 -115 -241 -167l3 -3c5 3 14 7 30 7c83 0 158 -76 211 -76c44 0 76 18 76 55c0 22 -14 42 -44 42c-5 0 -12 -1 -16 -3c0 40 35 59 58 59c32 0 54 -18 54 -52 c0 -63 -74 -157 -168 -157c-108 0 -144 87 -208 87c-22 0 -38 -19 -38 -37s5 -25 12 -35c-7 -6 -14 -11 -30 -11c-20 0 -34 16 -34 38c0 58 66 104 143 156c64 44 168 108 249 180l-3 3c-8 -3 -21 -8 -44 -8c-60 0 -122 49 -176 49c-23 0 -48 -13 -48 -41 c0 -31 25 -42 54 -42c-5 -31 -29 -50 -58 -50c-34 0 -50 26 -50 52c0 81 97 139 157 139z" />
<glyph unicode="," horiz-adv-x="268" d="M106 104c34 0 55 -28 55 -64c0 -100 -92 -179 -186 -199l-3 15c52 19 106 64 106 127c0 27 -8 51 -33 64c6 30 29 57 61 57z" />
<glyph unicode="-" horiz-adv-x="389" d="M354 273c-92 -5 -190 -24 -285 -55l-7 14c44 33 152 98 247 98c33 0 51 -17 51 -38c0 -9 -3 -15 -6 -19z" />
<glyph unicode="." horiz-adv-x="268" d="M95 -16c-30 0 -50 21 -50 50c0 34 28 70 67 70c30 0 49 -21 49 -50c0 -34 -28 -70 -66 -70z" />
<glyph unicode=" "  horiz-adv-x="233" />
<glyph unicode="&#x09;" horiz-adv-x="233" />
<glyph unicode="&#xa0;" horiz-adv-x="233" />
<glyph unicode=":" horiz-adv-x="268" d="M95 -16c-30 0 -50 21 -50 50c0 34 28 70 67 70c30 0 49 -21 49 -50c0 -34 -28 -70 -66 -70zM160 294c-30 0 -50 21 -50 50c0 34 28 70 67 70c30 0 49 -21 49 -50c0 -34 -28 -70 -66 -70z" />
<glyph unicode=";" horiz-adv-x="268" d="M160 294c-30 0 -50 21 -50 50c0 34 28 70 67 70c30 0 49 -21 49 -50c0 -34 -28 -70 -66 -70zM106 104c34 0 55 -28 55 -64c0 -100 -92 -179 -186 -199l-3 15c52 19 106 64 106 127c0 27 -8 51 -33 64c6 30 29 57 61 57z" />
<glyph unicode="&#xb4;" horiz-adv-x="249" d="M439 694c0 -65 -133 -161 -205 -179l-5 13c62 63 126 144 168 207c29 0 42 -23 42 -41z" />
<glyph unicode="@" horiz-adv-x="785" d="M483 103c-28 0 -47 12 -47 43s15 65 22 84h-4c-18 -40 -60 -127 -137 -127c-46 0 -66 37 -66 84c0 119 103 251 214 251c30 0 46 -12 58 -22c4 12 19 42 43 42c12 0 22 -5 29 -11c-23 -26 -103 -205 -103 -278c0 -14 2 -24 18 -24c99 0 215 60 215 225 c0 122 -91 220 -261 220c-219 0 -340 -208 -340 -362c0 -151 86 -287 311 -287c98 0 172 36 200 60c1 -2 1 -5 1 -7c0 -41 -112 -89 -231 -89c-217 0 -353 120 -353 322c0 169 140 399 421 399c181 0 297 -115 297 -252c0 -170 -145 -271 -287 -271zM344 147 c64 0 136 155 157 231c-9 21 -27 32 -51 32c-78 0 -140 -112 -140 -208c0 -38 7 -55 34 -55z" />
<glyph unicode="&#x26;" horiz-adv-x="731" d="M386 714c67 0 110 -36 110 -88c0 -48 -36 -81 -82 -81c-13 0 -34 4 -45 12c18 16 34 41 34 69c0 27 -12 50 -52 50c-34 0 -85 -30 -85 -119c0 -44 7 -75 14 -107c53 0 87 -21 87 -57c0 -25 -21 -38 -43 -38c1 4 2 15 2 20c0 35 -19 50 -51 50c-92 0 -145 -104 -145 -187 c0 -141 93 -199 236 -199s268 104 268 221c0 69 -44 131 -110 145c-45 -21 -82 -57 -82 -113c0 -39 31 -60 59 -60c10 0 20 2 29 6c1 -4 2 -9 2 -20c-1 -32 -28 -50 -62 -50c-57 0 -99 41 -99 98c0 189 331 168 331 348c0 32 -21 63 -56 75c9 18 27 31 51 31 c57 0 88 -51 88 -99c0 -108 -85 -150 -197 -183v-4c60 -43 81 -98 81 -163c0 -155 -171 -287 -360 -287c-141 0 -273 66 -273 217c0 166 141 237 219 247c-15 15 -48 54 -48 114c0 89 72 152 179 152z" />
<glyph unicode="`" horiz-adv-x="349" d="M139 694c0 18 13 41 42 41c42 -63 106 -144 168 -207l-5 -13c-72 18 -205 114 -205 179z" />
<glyph unicode="&#xa8;" horiz-adv-x="279" d="M205 556c-27 0 -44 19 -44 44c0 29 24 61 59 61c26 0 43 -19 43 -44c0 -29 -25 -61 -58 -61zM391 556c-27 0 -44 19 -44 44c0 29 24 61 59 61c26 0 43 -19 43 -44c0 -29 -26 -61 -58 -61z" />
<glyph unicode="&#x2dc;" horiz-adv-x="380" d="M287 677c61 0 74 -48 127 -48c29 0 60 14 81 51l11 -16c-22 -56 -63 -95 -123 -95c-59 0 -70 48 -123 48c-29 0 -60 -14 -80 -51l-12 16c22 54 64 95 119 95z" />
<glyph unicode="&#x2c6;" horiz-adv-x="337" d="M145 552l202 180s56 -114 117 -176c0 -10 -10 -28 -36 -28c-58 0 -92 94 -95 158l-132 -158z" />
<glyph unicode="&#x2c7;" horiz-adv-x="337" d="M299 533l-117 176l66 23l61 -153c28 58 96 153 155 153c26 0 38 -15 38 -26c-94 -65 -203 -173 -203 -173z" />
<glyph unicode="&#xb8;" horiz-adv-x="221" d="M207 6h17c-18 -9 -41 -28 -41 -54c0 -34 54 -43 54 -85c0 -67 -86 -103 -136 -103c-38 0 -64 17 -64 43c0 27 24 43 45 43c7 0 14 -2 17 -5c-9 -6 -17 -16 -17 -28s8 -26 37 -26c27 0 57 21 57 48c0 37 -43 43 -43 90c0 38 47 72 74 77z" />
<glyph unicode="&#x2da;" horiz-adv-x="282" d="M281 572c55 0 74 44 74 81c0 35 -23 55 -52 55c-52 0 -74 -42 -74 -81c0 -35 24 -55 52 -55zM322 742c46 0 80 -29 80 -77c0 -62 -60 -127 -140 -127c-46 0 -79 28 -79 77c0 62 60 127 139 127z" />
<glyph unicode="&#x2d8;" horiz-adv-x="349" d="M444 698h28c-22 -96 -87 -155 -176 -155c-72 0 -115 38 -115 107c0 15 2 30 6 48h68c-3 -12 -4 -23 -4 -33c0 -41 23 -66 70 -66c61 0 109 38 123 99z" />
<glyph unicode="&#xaf;" horiz-adv-x="321" d="M179 643c0 0 71 -3 136 -3c71 0 136 3 136 3l-12 -55s-63 3 -136 3c-63 0 -136 -3 -136 -3z" />
<glyph unicode="&#x2d9;" horiz-adv-x="220" d="M281 610c-25 0 -42 18 -42 43c0 29 24 61 57 61c25 0 42 -18 42 -43c0 -29 -24 -61 -57 -61z" />
<glyph unicode="&#xb0;" horiz-adv-x="327" d="M164 587c0 -45 37 -83 82 -83s81 38 81 83c0 48 -36 86 -81 86s-82 -38 -82 -86zM120 587c0 72 55 127 126 127s126 -55 126 -127c0 -70 -55 -125 -126 -125s-126 55 -126 125z" />
<glyph unicode="&#xab;" horiz-adv-x="439" d="M64 237l208 220l28 -51l-185 -167c40 -32 115 -104 115 -168c0 -38 -34 -60 -53 -60c-38 106 -113 226 -113 226zM259 237l186 197l26 -46l-166 -150c36 -28 103 -93 103 -150c0 -34 -29 -54 -47 -54c-18 56 -102 203 -102 203z" />
<glyph unicode="&#xbb;" horiz-adv-x="439" d="M427 231l-208 -220l-28 51l184 167c-39 32 -114 104 -114 168c0 38 29 60 53 60c29 -102 113 -226 113 -226zM232 231l-187 -197l-25 46l166 150c-36 28 -103 93 -103 150c0 34 23 54 47 54c17 -82 102 -203 102 -203z" />
<glyph unicode="+" horiz-adv-x="457" d="M199 449h59v-199h198v-59h-198v-191h-59v191h-199v59h199v199z" />
<glyph unicode="&#x3c;" horiz-adv-x="555" d="M489 0l-431 188v65l431 188v-69l-357 -152l357 -151v-69z" />
<glyph unicode="=" horiz-adv-x="457" d="M457 93h-457v59h457v-59zM457 347v-59h-457v59h457z" />
<glyph unicode="&#x3e;" horiz-adv-x="545" d="M489 189l-431 -189v69l357 151l-357 152v69l431 -188v-64z" />
<glyph unicode="^" horiz-adv-x="556" d="M305 798l184 -364h-68l-143 291l-143 -291h-68l185 364h53z" />
<glyph unicode="_" horiz-adv-x="566" d="M514 -142l-15 -58h-504l15 58h504z" />
<glyph unicode="&#x2212;" horiz-adv-x="457" d="M0 250h456v-59h-456v59z" />
<glyph unicode="&#xb1;" horiz-adv-x="456" d="M199 456h59v-141h198v-59h-198v-143h-59v143h-199v59h199v141zM0 59h456v-59h-456v59z" />
<glyph unicode="&#xac;" horiz-adv-x="456" d="M457 347v-271h-64v212h-393v59h457z" />
<glyph unicode="&#x2013;" horiz-adv-x="612" d="M569 264h-504l15 54h504z" />
<glyph unicode="&#x2014;" horiz-adv-x="1108" d="M1064 264h-1000l15 54h1000z" />
<glyph unicode="&#x201c;" horiz-adv-x="414" d="M235 529c-34 0 -55 28 -55 64c0 100 92 179 186 199l3 -15c-52 -19 -106 -64 -106 -127c0 -27 8 -51 33 -64c-6 -30 -29 -57 -61 -57zM405 529c-34 0 -55 28 -55 64c0 100 92 179 186 199l3 -15c-52 -19 -106 -64 -106 -127c0 -27 8 -51 33 -64c-6 -30 -29 -57 -61 -57z " />
<glyph unicode="&#x201d;" horiz-adv-x="414" d="M413 774c34 0 55 -28 55 -64c0 -100 -92 -179 -186 -199l-3 15c52 19 106 64 106 127c0 27 -8 51 -33 64c6 30 29 57 61 57zM243 774c34 0 55 -28 55 -64c0 -100 -92 -179 -186 -199l-3 15c52 19 106 64 106 127c0 27 -8 51 -33 64c6 30 29 57 61 57z" />
<glyph unicode="&#x2260;" horiz-adv-x="457" d="M457 93h-242l-71 -237h-66s40 113 81 237h-159v59h179l42 136h-221v59h240l72 239h66s-39 -113 -82 -239h161v-59h-181l-43 -136h224v-59z" />
<glyph unicode="&#xf7;" horiz-adv-x="456" d="M294 51c0 -38 -30 -67 -66 -67c-37 0 -66 29 -66 67c0 36 29 65 66 65c36 0 66 -29 66 -65zM294 392c0 -38 -30 -67 -66 -67c-37 0 -66 29 -66 67c0 36 29 65 66 65c36 0 66 -29 66 -65zM0 250h456v-59h-456v59z" />
<glyph unicode="(" horiz-adv-x="342" d="M107 202c0 276 218 474 377 581l13 -16c-211 -190 -309 -379 -309 -589c0 -116 31 -243 94 -341l-20 -16c-75 73 -155 210 -155 381z" />
<glyph unicode="&#x2022;" horiz-adv-x="500" d="M75 251c0 97 78 175 175 175s175 -78 175 -175c0 -96 -78 -175 -175 -175s-175 79 -175 175z" />
<glyph unicode="&#xb6;" horiz-adv-x="577" d="M582 697c66 0 110 3 110 3l-8 -29c-1 0 -20 -5 -20 -5c-40 -10 -75 -40 -88 -98l-89 -399c-56 -248 -190 -354 -342 -354c-60 0 -115 31 -115 88c0 40 27 73 71 73c16 0 32 -5 40 -15c-19 -14 -33 -41 -33 -68c0 -21 12 -37 48 -37c85 0 128 116 154 232l44 197 s-10 -1 -33 -1c-103 0 -180 35 -180 142c0 170 116 274 283 274c77 0 108 -3 158 -3zM411 118l119 541h-45l-121 -551c-25 -114 -53 -180 -111 -231c84 33 133 123 158 241z" />
<glyph unicode="&#xa7;" horiz-adv-x="565" d="M170 -132c64 0 124 55 124 124c0 112 -159 236 -159 399c0 183 176 323 359 323c72 0 101 -31 101 -64c0 -35 -30 -68 -68 -68c-15 0 -29 4 -36 10c7 9 13 21 13 34c0 18 -13 36 -49 36c-64 0 -125 -54 -125 -123c0 -112 159 -232 159 -398c0 -178 -175 -325 -359 -325 c-71 0 -100 37 -100 70c0 35 30 62 67 62c16 0 29 -4 36 -10c-7 -9 -13 -21 -13 -34c0 -18 13 -36 50 -36zM350 644c-83 -31 -143 -121 -143 -214c0 -150 153 -258 153 -393c0 -61 -34 -114 -86 -151c88 33 144 127 144 222c0 158 -153 255 -153 386c0 62 32 113 85 150z " />
<glyph unicode="?" horiz-adv-x="401" d="M187 188h-19c-12 19 -23 52 -23 88c0 157 251 175 251 315c0 32 -31 77 -92 77c-42 0 -69 -17 -69 -46c0 -17 7 -28 7 -28c-12 -5 -21 -7 -38 -7c-27 0 -50 18 -50 46c0 60 61 81 113 81c87 0 174 -64 174 -146c0 -216 -258 -196 -258 -358c0 -9 2 -17 4 -22zM120 -16 c-30 0 -50 21 -50 50c0 34 28 70 67 70c30 0 49 -21 49 -50c0 -34 -28 -70 -66 -70z" />
<glyph unicode="&#xae;" horiz-adv-x="390" d="M118 622c0 -78 59 -143 139 -143c79 0 138 65 138 143c0 79 -59 144 -138 144c-80 0 -139 -65 -139 -144zM89 622c0 94 74 168 168 168c92 0 168 -74 168 -168c0 -92 -76 -168 -168 -168c-98 0 -168 76 -168 168zM279 622c0 0 6 -4 12 -13l30 -49c7 -12 18 -16 30 -16 c4 0 9 1 9 1v-9s-9 -5 -21 -5c-23 0 -35 5 -51 29l-29 44c-4 8 -12 11 -16 11c-5 0 -8 -1 -8 -1v-54c0 -12 5 -15 14 -16l10 -1v-10s-22 1 -39 1c-21 0 -39 -1 -39 -1v10l8 1c10 2 15 12 15 28v109c0 15 -3 20 -13 23l-10 2v10s20 -2 36 -2s27 2 39 2c36 0 61 -18 61 -46 c0 -38 -38 -48 -38 -48zM250 704c-6 0 -11 -2 -15 -3v-75c6 4 12 6 17 6c7 0 12 -3 12 -3c13 9 17 27 17 41c0 25 -17 34 -31 34z" />
<glyph unicode="&#xa9;" horiz-adv-x="853" d="M149 349c0 -175 136 -317 305 -317c168 0 305 142 305 317s-137 317 -305 317c-169 0 -305 -142 -305 -317zM90 349c0 201 163 364 364 364s364 -163 364 -364s-163 -364 -364 -364s-364 163 -364 364zM603 530v-96h-19c-6 51 -54 91 -128 91c-80 0 -135 -69 -135 -168 c0 -125 68 -180 157 -180c66 0 104 47 117 108l18 -1l-13 -120c-41 0 -78 -21 -139 -21c-113 0 -210 57 -210 196c0 112 77 216 216 216c50 0 104 -25 136 -25z" />
<glyph unicode="&#x2122;" horiz-adv-x="597" d="M336 704h9l-5 -63l-9 1c0 25 -18 37 -44 37h-31v-182c0 -22 7 -28 21 -29l11 -1v-16s-30 1 -54 1c-33 0 -57 -1 -57 -1v16l9 1c18 2 24 22 24 47v164h-25c-36 0 -52 -13 -56 -38l-8 2l4 61h8s6 -4 15 -4h173c12 0 15 4 15 4zM394 518l12 132c1 17 -3 29 -19 32l-14 2v16 s39 -3 69 -3c0 -8 1 -17 6 -27l77 -170l68 165c8 19 8 32 8 32c33 0 53 1 81 3v-16l-13 -2c-12 -3 -17 -11 -16 -24l14 -165c2 -15 9 -23 27 -25l11 -1v-16s-23 1 -66 1c-33 0 -56 -1 -56 -1v16l10 1c19 2 26 18 24 46l-13 133l-79 -196l-14 -5l-86 197l-11 -137 c-1 -20 1 -36 23 -38l11 -1v-16s-25 1 -53 1c-20 0 -43 -1 -43 -1v16l8 1c19 2 31 23 34 50z" />
<glyph unicode="&#xb7;" horiz-adv-x="207" d="M105 231c-30 0 -50 21 -50 50c0 34 28 70 67 70c30 0 49 -21 49 -50c0 -34 -28 -70 -66 -70z" />
<glyph unicode="!" horiz-adv-x="286" d="M283 714c30 0 49 -21 49 -50c0 -5 -1 -12 -2 -17c-25 -126 -103 -280 -132 -413c-6 -29 -7 -47 -7 -47h-34s6 18 12 47c29 133 12 296 46 419c12 43 40 61 68 61zM130 -16c-30 0 -50 21 -50 50c0 34 28 70 67 70c30 0 49 -21 49 -50c0 -34 -28 -70 -66 -70z" />
<glyph unicode="&#xa1;" horiz-adv-x="286" d="M65 -228c-30 0 -49 21 -49 50c0 5 1 12 2 17c25 126 103 280 132 413c6 29 7 47 7 47h34s-6 -18 -12 -47c-29 -133 -12 -296 -46 -419c-12 -43 -40 -61 -68 -61zM218 502c30 0 50 -21 50 -50c0 -34 -28 -70 -67 -70c-30 0 -49 21 -49 50c0 34 28 70 66 70z" />
<glyph unicode="&#xdf;" horiz-adv-x="548" d="M557 655c0 54 -27 80 -91 80c-94 0 -153 -99 -195 -227l-118 -360c-60 -182 -174 -451 -344 -451c-60 0 -81 30 -81 60c0 39 31 54 58 54c7 0 13 -1 13 -1c-4 -9 -6 -17 -6 -25c0 -24 16 -40 48 -40c82 0 137 90 186 252l123 408h-76l7 24l83 17l9 27 c55 167 178 306 333 306c88 0 133 -49 133 -114c0 -203 -258 -196 -258 -316c0 -74 98 -114 98 -214c0 -96 -105 -151 -177 -151c-42 0 -87 11 -87 53c0 35 29 56 60 56c5 0 10 -1 10 -1c-4 -7 -6 -14 -6 -22c0 -21 24 -35 50 -35c45 0 82 17 82 67c0 82 -84 120 -84 219 c0 144 230 155 230 334z" />
<glyph unicode="&#x152;" horiz-adv-x="918" d="M645 34c136 0 177 66 211 126l21 -3l-49 -157s-249 3 -335 3c-20 0 -38 0 -53 -1c-38 -11 -78 -18 -120 -18c-153 0 -263 99 -263 269c0 244 196 461 438 461c36 0 70 -6 101 -17h67c136 0 319 3 319 3l-40 -149h-20c0 78 -34 115 -146 115c-34 0 -61 -3 -78 -7l-67 -281 h83c49 0 79 28 103 77l19 39h26s-25 -71 -38 -128c-14 -62 -18 -110 -18 -110h-25l-1 25c-1 37 -18 58 -60 58h-99l-51 -214c-1 -4 -6 -25 -6 -40c0 -36 26 -51 81 -51zM368 23c59 0 99 36 113 97l103 436c2 9 3 17 3 25c0 62 -61 94 -140 94c-198 0 -290 -243 -290 -402 c0 -161 95 -250 211 -250z" />
<glyph unicode="&#x153;" horiz-adv-x="686" d="M705 397c0 -78 -95 -134 -282 -183c-10 -34 -15 -63 -15 -98c0 -37 17 -75 69 -75c63 0 126 61 150 96l15 -11c-14 -25 -83 -142 -194 -142c-64 0 -105 33 -115 84c-42 -48 -105 -84 -167 -84c-70 0 -116 51 -116 139c0 148 119 343 273 343c57 0 97 -42 109 -102 c47 55 118 102 196 102c57 0 77 -36 77 -69zM195 21c91 0 163 182 163 295c0 73 -21 112 -63 112c-91 0 -163 -181 -163 -294c0 -73 21 -113 63 -113zM628 390c0 23 -13 36 -34 36c-84 0 -142 -126 -163 -185c68 20 197 63 197 149z" />
<glyph unicode="&#x2dd;" horiz-adv-x="436" d="M327 694c0 -65 -133 -161 -205 -179l-5 13c62 63 126 144 168 207c29 0 42 -23 42 -41zM481 694c0 -65 -133 -161 -205 -179l-5 13c62 63 126 144 168 207c29 0 42 -23 42 -41z" />
<glyph unicode="&#x2db;" horiz-adv-x="208" d="M165 -194c0 -17 -31 -54 -105 -54c-50 0 -83 25 -83 71c0 116 184 188 184 188l7 -13c-77 -56 -117 -104 -117 -149c0 -28 18 -45 53 -45c24 0 44 11 51 19c7 -3 10 -10 10 -17z" />
<glyph unicode="&#xe6;" horiz-adv-x="657" d="M676 397c0 -78 -95 -134 -282 -183c-10 -34 -15 -63 -15 -98c0 -37 17 -75 69 -75c63 0 126 61 150 96l15 -11c-14 -25 -83 -142 -194 -142c-80 0 -122 45 -122 121c0 6 0 12 1 19c-32 -61 -84 -141 -170 -141c-61 0 -88 49 -88 114c0 162 137 342 286 342 c47 0 81 -23 98 -46c47 44 106 73 175 73c57 0 77 -36 77 -69zM165 42c84 0 180 211 208 314c-12 29 -35 45 -67 45c-104 0 -188 -153 -188 -284c0 -52 11 -75 47 -75zM599 390c0 23 -13 36 -34 36c-83 0 -151 -121 -165 -185c69 21 199 64 199 149z" />
<glyph unicode="&#xc6;" horiz-adv-x="902" d="M500 671l7 29s52 -3 140 -3c136 0 319 3 319 3l-43 -164h-20c0 78 -43 130 -143 130c-34 0 -61 -3 -78 -7l-67 -281h77c57 0 85 28 109 77l19 39h26s-25 -71 -38 -128c-14 -62 -18 -110 -18 -110h-25l-1 25c-1 37 -18 58 -60 58h-99l-51 -214c-1 -4 -6 -25 -6 -40 c0 -36 21 -51 71 -51c136 0 200 94 234 154l21 -3l-62 -185s-249 3 -335 3c-88 -1 -132 -3 -132 -3l7 29l21 5c55 13 81 40 94 98l29 130h-202l-114 -137c-19 -22 -44 -47 -44 -67c0 -15 19 -20 38 -24l25 -5l-7 -29s-79 3 -126 3c-45 0 -112 -3 -112 -3l7 29l22 5 c69 15 102 51 151 107l440 506c-7 11 -21 15 -42 19zM326 303h180l65 284z" />
<glyph unicode="&#x22;" horiz-adv-x="323" d="M188 709c19 0 31 -13 31 -30c0 -5 -1 -11 -2 -16c-15 -74 -48 -101 -66 -186c-3 -13 -4 -27 -4 -27h-27s4 14 7 27c9 41 9 67 9 106c0 27 0 56 8 87c6 22 21 39 44 39zM312 709c19 0 31 -13 31 -30c0 -5 -1 -11 -2 -16c-15 -74 -48 -101 -66 -186c-3 -13 -4 -27 -4 -27 h-27s4 14 7 27c9 41 9 67 9 106c0 27 0 56 8 87c6 22 21 39 44 39z" />
<glyph unicode="&#xa2;" horiz-adv-x="394" d="M356 349c4 11 6 20 6 28c0 25 -16 41 -51 41c-116 0 -185 -182 -185 -302c0 -49 24 -75 64 -75c63 0 118 50 151 96l15 -11c-26 -52 -81 -132 -170 -141c-26 -81 -50 -149 -50 -149h-37s27 69 55 149c-75 5 -110 46 -110 120c0 152 122 336 284 358c27 85 55 164 55 164 h37s-31 -78 -58 -161c35 0 73 -15 73 -55c0 -38 -32 -64 -65 -64c-5 0 -11 1 -14 2z" />
<glyph unicode="&#x2018;" horiz-adv-x="244" d="M235 529c-34 0 -55 28 -55 64c0 100 92 179 186 199l3 -15c-52 -19 -106 -64 -106 -127c0 -27 8 -51 33 -64c-6 -30 -29 -57 -61 -57z" />
<glyph unicode="&#x2019;" horiz-adv-x="244" d="M243 774c34 0 55 -28 55 -64c0 -100 -92 -179 -186 -199l-3 15c52 19 106 64 106 127c0 27 -8 51 -33 64c6 30 29 57 61 57z" />
<glyph unicode="'" horiz-adv-x="199" d="M188 709c19 0 31 -13 31 -30c0 -5 -1 -11 -2 -16c-15 -74 -48 -101 -66 -186c-3 -13 -4 -27 -4 -27h-27s4 14 7 27c9 41 9 67 9 106c0 27 0 56 8 87c6 22 21 39 44 39z" />
<glyph unicode="%" horiz-adv-x="758" d="M662 635h61s-213 -252 -284 -337c-68 -80 -267 -323 -267 -323h-62s217 253 289 339c67 80 263 321 263 321zM297 603c-67 0 -97 -114 -97 -166c0 -47 21 -74 50 -74c66 0 97 111 97 164c0 42 -15 76 -50 76zM321 643c64 0 97 -45 97 -106c0 -110 -90 -214 -192 -214 c-57 0 -96 38 -96 104c0 110 89 216 191 216zM574 245c-67 0 -97 -114 -97 -166c0 -47 21 -74 50 -74c66 0 97 111 97 164c0 42 -15 76 -50 76zM598 285c64 0 97 -45 97 -106c0 -110 -90 -214 -192 -214c-57 0 -96 38 -96 104c0 110 89 216 191 216z" />
<glyph unicode="*" horiz-adv-x="324" d="M264 565c41 -15 75 -23 102 -40c8 -5 13 -13 13 -22c0 -15 -12 -26 -25 -26c-4 0 -8 1 -12 3c-28 16 -56 40 -85 69c7 -42 16 -77 16 -109c0 -13 -11 -24 -26 -24c-13 0 -24 11 -24 24c0 32 8 67 14 109c-29 -29 -57 -53 -85 -69c-4 -2 -8 -3 -12 -3c-13 0 -25 11 -25 26 c0 9 5 17 13 22c27 17 61 25 102 40c-41 15 -75 23 -102 40c-8 5 -13 13 -13 22c0 15 12 26 25 26c4 0 8 -1 12 -3c28 -16 56 -40 85 -69c-6 42 -14 77 -14 109c0 13 11 24 24 24c15 0 26 -11 26 -24c0 -32 -9 -67 -16 -109c29 29 57 53 85 69c4 2 8 3 12 3 c13 0 25 -11 25 -26c0 -9 -5 -17 -13 -22c-27 -17 -61 -25 -102 -40z" />
<glyph unicode="&#xaa;" horiz-adv-x="333" d="M383 396c26 0 49 36 66 64l15 -9c-16 -39 -59 -107 -110 -107c-22 0 -39 12 -39 43c0 15 5 35 9 48h-5c-21 -39 -56 -91 -113 -91c-46 0 -67 36 -67 84c0 113 100 232 207 232c25 0 40 -7 53 -18c5 12 18 38 43 38c12 0 22 -6 29 -14c-21 -25 -97 -187 -97 -255 c0 -10 2 -15 9 -15zM231 390c58 0 124 136 146 209c-8 17 -24 31 -46 31c-72 0 -131 -100 -131 -189c0 -35 7 -51 31 -51zM80 288c0 0 83 -3 161 -3c84 0 165 4 165 4l-11 -51s-78 2 -165 2c-76 0 -161 -3 -161 -3z" />
<glyph unicode="&#xba;" horiz-adv-x="322" d="M80 288c0 0 61 -3 139 -3c84 0 155 4 155 4l-11 -51s-68 2 -155 2c-76 0 -139 -3 -139 -3zM234 344c-47 0 -80 35 -80 94c0 99 82 228 186 228c51 0 82 -35 82 -94c0 -100 -82 -228 -188 -228zM254 373c61 0 109 118 109 194c0 44 -12 69 -41 69 c-61 0 -107 -117 -107 -192c0 -44 12 -71 39 -71z" />
<glyph unicode="&#x2030;" horiz-adv-x="1089" d="M662 635h61s-213 -252 -284 -337c-68 -80 -267 -323 -267 -323h-62s217 253 289 339c67 80 263 321 263 321zM297 603c-67 0 -97 -114 -97 -166c0 -47 21 -74 50 -74c66 0 97 111 97 164c0 42 -15 76 -50 76zM321 643c64 0 97 -45 97 -106c0 -110 -90 -214 -192 -214 c-57 0 -96 38 -96 104c0 110 89 216 191 216zM574 245c-67 0 -97 -114 -97 -166c0 -47 21 -74 50 -74c66 0 97 111 97 164c0 42 -15 76 -50 76zM598 285c64 0 97 -45 97 -106c0 -110 -90 -214 -192 -214c-57 0 -96 38 -96 104c0 110 89 216 191 216zM905 245 c-67 0 -97 -114 -97 -166c0 -47 21 -74 50 -74c66 0 97 111 97 164c0 42 -15 76 -50 76zM929 285c64 0 97 -45 97 -106c0 -110 -90 -214 -192 -214c-57 0 -96 38 -96 104c0 110 89 216 191 216z" />
<glyph unicode="&#x2039;" horiz-adv-x="292" d="M64 237l208 220l28 -51l-185 -167c40 -32 115 -104 115 -168c0 -38 -34 -60 -53 -60c-38 106 -113 226 -113 226z" />
<glyph unicode="&#x203a;" horiz-adv-x="292" d="M232 231l-187 -197l-25 46l166 150c-36 28 -103 93 -103 150c0 34 23 54 47 54c17 -82 102 -203 102 -203z" />
<glyph unicode="&#x201a;" horiz-adv-x="245" d="M114 104c34 0 55 -28 55 -64c0 -100 -92 -179 -186 -199l-3 15c52 19 106 64 106 127c0 27 -8 51 -33 64c6 30 29 57 61 57z" />
<glyph unicode="&#x201e;" horiz-adv-x="415" d="M284 104c34 0 55 -28 55 -64c0 -100 -92 -179 -186 -199l-3 15c52 19 106 64 106 127c0 27 -8 51 -33 64c6 30 29 57 61 57zM114 104c34 0 55 -28 55 -64c0 -100 -92 -179 -186 -199l-3 15c52 19 106 64 106 127c0 27 -8 51 -33 64c6 30 29 57 61 57z" />
<glyph unicode="&#xd8;" horiz-adv-x="760" d="M495 714c67 0 127 -19 172 -56l51 56h63c-24 -25 -48 -49 -83 -86c38 -45 60 -107 60 -183c0 -244 -196 -461 -438 -461c-66 0 -125 18 -169 53c-29 -32 -48 -53 -48 -53h-63s33 34 79 83c-39 45 -62 108 -62 186c0 244 196 461 438 461zM185 137c73 76 156 165 212 226 l212 231c-39 53 -97 81 -162 81c-198 0 -290 -243 -290 -402c0 -54 10 -99 28 -136zM368 23c198 0 290 243 290 402c0 52 -10 96 -27 132l-210 -223c-41 -44 -137 -150 -213 -234c39 -50 96 -77 160 -77z" />
<glyph unicode="&#xb5;" horiz-adv-x="496" d="M145 400c-25 0 -65 -52 -86 -82l-15 10c32 60 89 138 158 138c24 0 38 -9 38 -39c0 -26 -11 -69 -34 -135l-60 -172c-8 -22 -12 -37 -12 -50c0 -10 3 -19 15 -19c101 0 276 303 276 407c0 0 10 8 34 8c23 0 38 -13 38 -36c0 -8 -2 -18 -5 -28l-94 -289 c-3 -10 -7 -22 -7 -32c0 -23 27 -28 69 -28v-22s-97 -4 -184 -46c78 192 106 263 114 285h-4c-70 -129 -178 -286 -279 -286c-13 0 -29 4 -35 16c-20 -44 -37 -113 -37 -156c0 -23 7 -34 16 -40c-8 -19 -32 -38 -54 -38c-19 0 -34 11 -34 35c0 10 3 24 8 40 c28 95 69 187 102 280l60 171c17 48 27 78 27 94c0 10 -5 14 -15 14z" />
<glyph unicode="&#x2020;" horiz-adv-x="607" d="M221 -192h-23l69 273c4 16 6 31 6 45c0 34 -10 63 -24 92c41 41 74 84 88 137c8 30 12 58 12 58h-6c-49 0 -113 -32 -159 -32c-20 0 -52 4 -52 30c0 36 37 51 71 51c47 0 95 -30 145 -30h6l2 8c4 20 6 43 6 68c0 27 -2 54 -2 80c0 21 1 39 5 55c10 41 36 71 75 71 c30 0 43 -18 43 -44c0 -8 -1 -17 -4 -27c-13 -53 -80 -145 -95 -203l-2 -8h6c50 0 113 30 160 30c24 0 51 -7 51 -31c0 -36 -40 -50 -72 -50c-46 0 -95 32 -144 32h-6s-9 -28 -17 -58c-4 -16 -5 -31 -5 -45c0 -33 9 -63 23 -92c-41 -41 -75 -84 -88 -137z" />
<glyph unicode="&#x2021;" horiz-adv-x="606" d="M209 -192c-30 0 -43 19 -43 44c0 76 77 150 98 227l2 8h-6c-50 0 -113 -29 -160 -29c-24 0 -51 6 -51 29c0 37 41 51 73 51c46 0 94 -31 143 -31h6s6 16 10 33c3 11 4 23 4 34c0 33 -10 63 -26 85c36 34 72 74 83 120c5 18 7 34 7 34h-6c-49 0 -113 -32 -160 -32 c-20 0 -51 4 -51 30c0 36 40 51 70 51c48 0 95 -30 146 -30h5l2 8c5 20 7 43 7 68c0 27 -2 54 -2 80c0 21 1 39 5 55c10 41 35 71 75 71c25 0 43 -17 43 -43c0 -81 -77 -150 -99 -231l-2 -8h6c50 0 113 30 160 30c24 0 51 -7 51 -31c0 -36 -40 -50 -72 -50 c-46 0 -95 32 -144 32h-6s-6 -16 -10 -34c-3 -11 -4 -22 -4 -33c0 -32 11 -61 26 -87c-36 -29 -72 -74 -83 -119c-4 -17 -7 -33 -7 -33h6c49 0 114 31 161 31c19 0 50 -5 50 -31c0 -36 -40 -49 -70 -49c-48 0 -95 29 -146 29h-5l-2 -8c-4 -17 -6 -36 -6 -56 c0 -30 3 -62 3 -91c0 -20 -2 -38 -6 -53c-9 -37 -32 -71 -75 -71z" />
<glyph unicode="&#xf8;" horiz-adv-x="435" d="M161 -16c-38 0 -69 15 -89 41c-14 -14 -27 -27 -39 -41h-60l80 81c-5 17 -8 36 -8 58c0 148 119 343 273 343c37 0 67 -14 87 -40l38 39h63c-30 -28 -56 -53 -80 -77c6 -18 9 -38 9 -62c0 -148 -119 -342 -274 -342zM190 21c91 0 163 182 163 295 c-49 -48 -88 -88 -109 -109l-114 -119c8 -43 28 -67 60 -67zM127 141l221 226c-8 40 -28 61 -58 61c-89 0 -160 -174 -163 -287z" />
<glyph unicode="&#xbf;" horiz-adv-x="395" d="M304 298h19c12 -19 23 -52 23 -88c0 -157 -251 -175 -251 -315c0 -32 31 -77 92 -77c42 0 69 17 69 46c0 17 -7 28 -7 28c12 5 21 7 38 7c27 0 50 -18 50 -46c0 -60 -61 -81 -113 -81c-87 0 -174 64 -174 146c0 216 258 196 258 358c0 9 -2 17 -4 22zM371 502 c30 0 50 -21 50 -50c0 -34 -28 -70 -67 -70c-30 0 -49 21 -49 50c0 34 28 70 66 70z" />
<glyph unicode="&#xd0;" horiz-adv-x="804" d="M140 3c-85 0 -132 -3 -132 -3l7 29l21 5c55 13 81 40 94 98l43 190c-50 -1 -107 -2 -107 -2l12 56s56 -1 107 -2l52 227c2 10 4 20 4 29c0 24 -16 31 -46 36l-32 5l7 29s29 -3 117 -3c48 0 113 3 152 3c229 0 355 -128 355 -284c0 -255 -192 -416 -487 -416 c-57 0 -108 3 -167 3zM341 659l-66 -286c8 0 137 3 173 3l-13 -56c-32 0 -165 2 -171 2l-45 -197c-1 -4 -6 -25 -6 -40c0 -36 26 -51 81 -51c222 0 400 129 400 362c0 160 -90 270 -276 270c-34 0 -57 -3 -77 -7z" />
<glyph unicode="&#xd7;" horiz-adv-x="556" d="M443 3l-165 174l-165 -174l-44 46l166 172l-166 175l45 45l164 -174l164 174l46 -45l-167 -175l167 -172z" />
<glyph unicode="&#xfe;" horiz-adv-x="512" d="M353 401c-36 0 -75 -20 -75 -20l-105 -311s6 -49 64 -49c102 0 195 174 195 284c0 43 -13 96 -79 96zM205 395l77 226c2 6 7 22 7 33c0 22 -22 28 -64 28v22s97 4 184 46l-116 -328s34 17 89 17c85 0 131 -53 131 -124c0 -137 -138 -331 -296 -331c-35 0 -62 12 -71 24 l-64 -183c-8 -22 -15 -49 -15 -68c0 -24 12 -36 50 -42l48 -8v-25h-293v25l23 7c57 17 89 52 114 122l183 518c-58 -26 -114 -65 -114 -65l-9 24s56 43 136 82z" />
<glyph unicode="&#xde;" horiz-adv-x="566" d="M255 34l32 -5l-7 -29s-54 3 -140 3c-85 0 -132 -3 -132 -3l7 29l21 5c55 13 81 40 94 98l107 469c2 10 4 20 4 29c0 24 -16 31 -46 36l-32 5l7 29s52 -3 140 -3c82 0 132 3 132 3l-7 -29l-21 -5c-55 -13 -81 -40 -94 -98l-10 -47c23 8 51 29 99 29 c100 0 183 -74 183 -186c0 -127 -111 -215 -223 -215c-82 0 -103 28 -138 29l-18 -79c-3 -12 -4 -21 -4 -29c0 -24 16 -31 46 -36zM376 507c-32 0 -56 -13 -75 -16l-63 -283c27 0 59 -16 101 -16c92 0 157 82 157 172c0 87 -45 143 -120 143z" />
<glyph horiz-adv-x="731" d="M384 464c27 -6 51 -21 51 -53c0 -38 -32 -64 -65 -64c-5 0 -11 1 -14 2c4 11 6 20 6 28c0 25 -16 41 -51 41c-116 0 -185 -182 -185 -302c0 -49 24 -75 64 -75c63 0 118 50 151 96l15 -11c-27 -55 -87 -142 -186 -142c-86 0 -126 41 -126 121c0 152 121 335 282 358 c21 107 109 225 240 225c97 0 130 -57 130 -98c0 -21 -5 -41 -9 -53l-28 -84h127l-18 -44h-124l-67 -182c-29 -78 -44 -125 -44 -148c0 -14 8 -19 17 -19c35 0 89 65 121 112l17 -10c-30 -58 -112 -178 -185 -178c-34 0 -52 22 -52 62c0 22 4 50 16 84l98 281l-54 2l3 29 l70 14c15 38 34 82 34 107c0 41 -20 74 -93 74c-49 0 -93 -24 -123 -58c-15 -27 -20 -58 -20 -84c0 -15 1 -24 2 -31z" />
<glyph unicode="&#xfb06;" horiz-adv-x="664" d="M317 461c33 -9 51 -29 51 -52c0 -30 -23 -55 -60 -55c-7 0 -12 1 -16 2c3 6 5 14 5 20c0 23 -12 43 -52 43c-52 0 -75 -39 -75 -70c0 -74 98 -114 98 -214c0 -96 -105 -151 -177 -151c-42 0 -87 11 -87 53c0 35 29 56 60 56c5 0 10 -1 10 -1c-4 -7 -6 -14 -6 -22 c0 -21 24 -35 50 -35c45 0 82 17 82 67c0 82 -84 120 -84 219c0 77 77 134 143 143c21 107 109 224 240 224c97 0 130 -57 130 -98c0 -21 -5 -41 -9 -53l-28 -84h127l-18 -44h-124l-67 -182c-29 -78 -44 -125 -44 -148c0 -14 8 -19 17 -19c35 0 89 65 121 112l17 -10 c-30 -58 -112 -178 -185 -178c-34 0 -52 22 -52 62c0 22 4 50 16 84l98 281l-54 2l3 29l70 14c15 38 34 82 34 107c0 41 -20 74 -93 74c-49 0 -93 -24 -123 -58c-15 -27 -20 -58 -20 -84c0 -15 1 -27 2 -34z" />
<glyph unicode="&#xf0;" horiz-adv-x="445" d="M161 -16c-70 0 -116 51 -116 139c0 148 119 343 273 343c28 0 52 -8 71 -23c1 8 2 19 2 29c0 32 -6 60 -16 87l-109 -46l-5 37l98 42c-23 53 -94 89 -149 89l27 30c64 0 143 -37 177 -96l119 50l5 -37l-109 -46c17 -41 25 -90 25 -143c0 -63 -11 -131 -30 -198 c-35 -129 -137 -257 -263 -257zM190 21c91 0 163 182 163 295c0 73 -21 112 -63 112c-91 0 -163 -181 -163 -294c0 -73 21 -113 63 -113z" />
<glyph unicode="A" horiz-adv-x="673" d="M441 303l-26 294l-163 -294h189zM428 705l67 11l57 -623c3 -37 19 -53 57 -59l32 -5l-7 -29s-54 3 -125 3c-72 0 -155 -3 -155 -3l7 29l21 5c50 10 78 37 74 90l-10 138h-213l-72 -137c-14 -26 -25 -43 -25 -64c0 -16 14 -23 41 -27l32 -5l-7 -29s-72 3 -119 3 c-45 0 -120 -3 -120 -3l7 29l21 5c64 15 89 54 119 107z" />
<glyph unicode="&#x2248;" horiz-adv-x="555" d="M237 238c87 0 116 -68 191 -68c41 0 84 23 110 63l20 -17c-26 -60 -82 -110 -166 -110c-82 0 -110 65 -184 65c-41 0 -85 -20 -111 -60l-20 17c26 58 84 110 160 110zM272 389c87 0 116 -68 191 -68c41 0 84 23 110 63l20 -17c-26 -60 -82 -110 -166 -110 c-82 0 -110 65 -184 65c-41 0 -85 -20 -111 -60l-20 17c26 58 84 110 160 110z" />
<glyph unicode="&#x221e;" horiz-adv-x="763" d="M580 76c-73 0 -123 54 -169 105c-66 -51 -138 -105 -211 -105c-71 0 -121 47 -121 118c0 100 85 184 180 184c74 0 123 -54 169 -105c56 45 133 105 211 105c71 0 122 -47 122 -119c0 -99 -87 -183 -181 -183zM378 227c-43 46 -76 92 -132 92c-62 0 -102 -60 -102 -113 c0 -35 18 -71 67 -71c51 0 100 38 167 92zM461 226c49 -50 81 -91 132 -91c60 0 103 59 103 111c0 36 -18 73 -68 73s-101 -41 -167 -93z" />
<glyph unicode="&#x2202;" horiz-adv-x="508" d="M311 409c81 0 105 -51 135 -68c19 57 35 121 35 186c0 93 -43 168 -128 168c-49 0 -85 -12 -118 -53c-11 0 -26 10 -26 28c0 55 84 72 128 72c149 0 209 -119 209 -252c0 -159 -112 -506 -322 -506c-92 0 -149 54 -149 152c0 126 98 273 236 273zM321 372 c-99 0 -166 -155 -166 -248c0 -51 17 -103 63 -103c114 0 178 186 214 286c-38 25 -62 65 -111 65z" />
<glyph unicode="&#x3c0;" horiz-adv-x="571" d="M429 377h-131c-71 -216 -93 -393 -195 -393c-18 0 -37 15 -37 40c91 48 148 220 189 353c-65 0 -112 -18 -145 -88l-14 5c18 98 74 147 171 147h241c52 0 67 4 86 15l8 -5c-21 -56 -59 -73 -137 -74c-35 -69 -71 -189 -71 -272c0 -35 12 -52 40 -52c32 0 57 22 91 62 l14 -12c-45 -77 -99 -119 -156 -119c-51 0 -64 37 -64 77c0 112 62 215 110 316z" />
<glyph unicode="&#x3a9;" horiz-adv-x="833" d="M534 675c-160 0 -275 -145 -275 -289c0 -122 95 -230 95 -349c0 -12 -1 -24 -3 -37h-270l10 159h25c1 -48 15 -85 84 -85h101c-6 68 -141 167 -141 310c0 215 198 330 382 330c159 0 278 -75 278 -228c0 -185 -226 -333 -283 -412h109c70 0 98 37 116 85h26l-48 -159 h-279c52 191 259 293 259 492c0 112 -63 183 -186 183z" />
<glyph unicode="&#x221a;" horiz-adv-x="589" d="M298 0h-10l-97 450l-87 -27l-2 20l186 57l72 -366l435 674h27z" />
<glyph unicode="&#x25ca;" horiz-adv-x="556" d="M479 363l-102 320l-218 -320l99 -320zM95 363l267 393h58l123 -393l-269 -393h-58z" />
<glyph unicode="&#x2206;" horiz-adv-x="679" d="M610 0h-552l-10 29l401 681l49 6l133 -687zM117 50h420l-96 563z" />
<glyph unicode="&#x220f;" horiz-adv-x="810" d="M545 19l143 624c2 7 3 14 3 19c0 26 -21 32 -50 32h-239c-35 0 -61 -8 -71 -51l-149 -657c-2 -10 -4 -18 -4 -25c0 -26 16 -36 47 -40l37 -5l-8 -29s-67 3 -145 3c-70 0 -137 -3 -137 -3l8 29l27 5c44 8 72 40 85 98l143 624c2 10 4 19 4 26c0 26 -16 34 -47 39l-32 5 l8 29s139 -3 370 -3c196 0 366 3 366 3l-8 -29l-26 -5c-44 -8 -79 -40 -92 -98l-143 -624c-2 -10 -4 -18 -4 -25c0 -26 16 -36 47 -40l37 -5l-8 -29s-67 3 -145 3c-70 0 -138 -3 -138 -3l8 29l27 5c45 8 73 40 86 98z" />
<glyph unicode="&#x222b;" horiz-adv-x="333" d="M130 248l78 288c57 213 109 279 189 279c44 0 62 -24 62 -46c0 -34 -36 -63 -70 -63c-7 0 -12 1 -15 2c4 5 9 14 9 22s-6 14 -22 14c-19 0 -49 -17 -60 -58c-20 -74 -19 -148 -51 -266l-78 -288c-57 -213 -109 -279 -188 -279c-44 0 -62 28 -62 50c0 34 30 59 64 59 c7 0 18 -1 21 -2c-4 -5 -9 -14 -9 -22s6 -14 21 -14c19 0 49 17 60 58c20 74 20 148 51 266z" />
<glyph unicode="&#x2211;" horiz-adv-x="654" d="M31 -80h284c113 0 178 54 215 133l23 -3l-44 -167h-556l-3 22l411 384l-196 429l15 22h557l-44 -167l-25 -3c0 81 -32 133 -145 133h-234l174 -376z" />
<glyph unicode="&#xa6;" horiz-adv-x="220" d="M188 355h-55c34 156 91 428 91 428h62s-63 -272 -98 -428zM94 179h54c-33 -157 -90 -428 -90 -428h-59s60 271 95 428z" />
<glyph horiz-adv-x="837" d="M508 542c-35 -77 -58 -168 -58 -258c0 -80 19 -153 57 -216l6 2c-13 24 -38 108 -38 193c0 101 33 202 156 202c61 0 116 -38 116 -103c0 -139 -189 -129 -189 -246c0 -39 27 -93 76 -93c46 0 65 24 65 50c0 25 -12 48 -37 57c13 28 37 39 59 39c37 0 59 -29 59 -60 c0 -95 -112 -125 -216 -125c-194 0 -380 147 -380 361c0 86 54 165 147 165c56 0 91 -27 108 -44c7 25 19 57 34 89c-70 28 -133 50 -215 50c-98 0 -151 -52 -151 -129c0 -27 8 -58 25 -90c0 0 -12 -28 -49 -28c-34 0 -56 31 -56 74c0 128 102 210 231 210 c84 0 168 -30 230 -56c35 65 96 128 187 128c65 0 136 -35 136 -104c0 -79 -87 -103 -155 -103c-52 0 -101 17 -148 35zM668 675c-66 0 -112 -46 -145 -102c49 -19 88 -28 133 -28c41 0 98 15 98 65c0 39 -36 65 -86 65z" />
<glyph horiz-adv-x="801" d="M689 349c36 -17 73 -67 73 -116c0 -67 -44 -118 -102 -149c-25 -54 -78 -100 -146 -100c-46 0 -86 23 -114 59c-27 -36 -68 -59 -113 -59c-68 0 -121 46 -146 100c-58 31 -102 82 -102 149c0 49 37 99 73 116c-36 17 -73 67 -73 116c0 67 44 118 102 149 c25 54 78 100 146 100c45 0 86 -23 113 -59c28 36 68 59 114 59c68 0 121 -46 146 -100c58 -31 102 -82 102 -149c0 -49 -37 -99 -73 -116zM287 660c53 0 96 -55 96 -108c0 -37 -18 -72 -18 -114c0 -25 4 -45 9 -61c-16 5 -38 10 -63 10c-38 0 -72 -17 -112 -17 c-49 0 -106 40 -106 95c0 61 45 94 86 109c20 48 51 86 108 86zM403 389h-4c-4 14 -8 30 -8 49c0 20 5 40 9 55c5 -15 10 -35 10 -55c0 -19 -3 -35 -7 -49zM359 352v-5c-12 -3 -29 -7 -48 -7c-21 0 -40 5 -56 10c15 4 35 9 56 9c19 0 36 -4 48 -7zM514 660 c57 0 88 -38 108 -86c41 -15 86 -48 86 -109c0 -55 -57 -95 -106 -95c-41 0 -75 17 -112 17c-25 0 -48 -5 -64 -10c6 16 10 36 10 61c0 42 -18 77 -18 114c0 53 42 108 96 108zM287 38c-57 0 -88 38 -108 86c-41 15 -86 48 -86 109c0 55 57 95 106 95c40 0 74 -17 112 -17 c25 0 47 5 63 10c-5 -16 -9 -36 -9 -61c0 -42 18 -77 18 -114c0 -53 -43 -108 -96 -108zM399 309h4c4 -14 7 -30 7 -49c0 -20 -5 -40 -10 -55c-4 15 -9 35 -9 55c0 19 4 35 8 49zM643 349c51 20 92 63 92 116c0 65 -47 106 -94 128c-28 65 -76 94 -127 94 c-52 0 -97 -39 -114 -85c-16 46 -61 85 -113 85c-51 0 -99 -29 -127 -94c-48 -22 -94 -63 -94 -128c0 -53 41 -96 92 -116c-51 -20 -92 -63 -92 -116c0 -65 46 -106 94 -128c28 -65 76 -94 127 -94c52 0 97 39 113 85c17 -46 62 -85 114 -85c51 0 99 29 127 94 c47 22 94 63 94 128c0 53 -41 96 -92 116zM514 38c-54 0 -96 55 -96 108c0 37 18 72 18 114c0 25 -4 45 -10 61c16 -5 39 -10 64 -10c37 0 71 17 112 17c49 0 106 -40 106 -95c0 -61 -45 -94 -86 -109c-20 -48 -51 -86 -108 -86zM442 347v5c12 3 29 7 48 7c20 0 40 -5 55 -9 c-15 -5 -35 -10 -55 -10c-19 0 -36 4 -48 7zM384 351c0 8 8 16 16 16s16 -8 16 -16s-8 -16 -16 -16s-16 8 -16 16z" />
<glyph horiz-adv-x="664" d="M390 666c-23 0 -39 -4 -49 -7l-73 -319c22 14 43 20 70 20c37 0 66 -16 66 -16c68 26 125 89 125 190c0 73 -60 132 -139 132zM440 103l-47 132c-21 59 -52 85 -93 85c-23 0 -38 -7 -38 -7l-49 -214c-2 -10 -4 -20 -4 -29c0 -24 16 -31 46 -36l32 -5l-7 -29s-54 3 -140 3 c-85 0 -132 -3 -132 -3l7 29l21 5c55 13 81 40 94 98l107 469c2 10 4 20 4 29c0 24 -16 31 -46 36l-32 5l7 29s52 -3 140 -3c48 0 67 3 119 3c113 0 201 -65 201 -166c0 -144 -124 -194 -196 -208c29 -22 50 -66 63 -99l36 -89c79 -195 204 -353 470 -353 c119 0 226 31 239 84c0 0 4 2 10 2c8 0 19 -5 19 -18c0 -75 -203 -103 -287 -103c-285 0 -459 115 -544 353z" />
<glyph horiz-adv-x="712" d="M418 361l126 -223c103 -183 204 -353 470 -353c119 0 226 31 239 84c0 0 4 2 10 2c8 0 19 -5 19 -18c0 -75 -203 -103 -287 -103c-285 0 -434 125 -544 353l-70 145c-18 37 -46 66 -86 66c-15 0 -28 -4 -35 -8l-47 -207c-2 -10 -4 -20 -4 -29c0 -24 16 -31 46 -36l32 -5 l-7 -29s-54 3 -140 3c-85 0 -132 -3 -132 -3l7 29l21 5c55 13 81 40 94 98l107 469c2 10 4 20 4 29c0 24 -16 31 -46 36l-32 5l7 29s52 -3 140 -3c82 0 132 3 132 3l-7 -29l-21 -5c-55 -13 -81 -40 -94 -98l-49 -213h79l250 265c8 8 11 16 11 23c0 14 -14 21 -27 23l-29 5 l7 29s80 -3 137 -3c49 0 125 3 125 3l-7 -29l-34 -5c-55 -8 -99 -32 -139 -73z" />
<glyph horiz-adv-x="801" d="M408 512h-15l-6 -119h-19c-8 111 -33 191 -91 240c0 14 13 29 32 29c20 0 41 -13 54 -30c0 36 16 71 37 82c22 -11 38 -46 38 -82c13 17 34 30 53 30c20 0 33 -15 33 -29c-58 -49 -83 -129 -91 -240h-19zM393 186h15l6 119h19c8 -111 33 -191 91 -240 c0 -14 -13 -29 -33 -29c-19 0 -40 13 -53 30c0 -36 -16 -71 -38 -82c-21 11 -37 46 -37 82c-13 -17 -34 -30 -54 -30c-19 0 -32 15 -32 29c58 49 83 129 91 240h19zM237 356v-15l119 -6v-19c-111 -8 -191 -33 -240 -91c-14 0 -29 13 -29 33c0 19 13 40 30 53 c-36 0 -71 16 -82 38c11 21 46 36 82 36c-17 14 -30 35 -30 55c0 19 15 32 29 32c49 -58 129 -83 240 -91v-19zM563 341v15l-119 6v19c111 8 191 33 240 91c14 0 29 -13 29 -32c0 -20 -13 -41 -30 -55c36 0 71 -15 82 -36c-11 -22 -46 -38 -82 -38c17 -13 30 -34 30 -53 c0 -20 -15 -33 -29 -33c-49 58 -129 83 -240 91v19zM387 349c0 6 7 13 13 13c7 0 14 -7 14 -13c0 -7 -7 -14 -14 -14c-6 0 -13 7 -13 14z" />
<glyph unicode="&#x131;" horiz-adv-x="279" d="M274 465l-118 -307c-18 -48 -27 -78 -27 -94c0 -10 4 -14 13 -14c25 0 96 67 117 97l15 -10c-32 -59 -118 -153 -187 -153c-24 0 -38 9 -38 38c0 28 6 58 25 110l73 205c3 8 7 20 7 32c0 23 -22 28 -64 28v22s97 4 184 46z" />
<glyph unicode="0" horiz-adv-x="590" d="M314 24c142 0 200 150 200 264c0 106 -57 168 -127 168c-145 0 -199 -156 -199 -266c0 -106 55 -166 126 -166zM425 496c112 0 193 -73 193 -193c0 -156 -141 -319 -341 -319c-114 0 -195 72 -195 192c0 155 143 320 343 320z" />
<glyph unicode="2" horiz-adv-x="485" d="M355 496c85 0 137 -49 137 -114c0 -112 -116 -188 -336 -315l162 7c75 3 109 28 148 88l18 -5l-80 -157h-355l-3 24l226 174c79 61 123 101 123 167c0 38 -24 75 -75 75c-76 0 -112 -54 -112 -107c0 -5 0 -12 1 -16c-12 -4 -23 -6 -32 -6c-27 0 -45 16 -45 43 c0 60 90 142 223 142z" />
<glyph unicode="3" horiz-adv-x="462" d="M332 496c88 0 133 -51 133 -110c0 -70 -65 -156 -198 -195v-4c12 2 25 3 36 3c78 0 128 -47 128 -110c0 -172 -206 -260 -435 -269l3 33c179 13 329 106 329 215c0 54 -45 87 -113 87c-39 0 -71 -10 -71 -10l2 41c88 28 222 74 222 196c0 33 -17 67 -72 67 c-75 0 -112 -54 -112 -107c0 -5 0 -12 1 -16c-11 -4 -23 -6 -32 -6c-27 0 -44 16 -44 43c0 60 89 142 223 142z" />
<glyph unicode="4" horiz-adv-x="560" d="M525 10h-130l-45 -203h-79l46 203h-264l-8 23l223 241c39 42 73 96 73 145c0 18 -4 39 -15 54c11 11 32 23 54 23c37 0 56 -30 56 -65c0 -58 -30 -109 -141 -205l-184 -159h218l32 144l87 34l-40 -178h130z" />
<glyph unicode="5" horiz-adv-x="470" d="M557 568l19 -4l-75 -151h-259l-46 -113c123 0 205 -74 205 -184c0 -164 -158 -303 -333 -303c-84 0 -116 45 -116 79c0 32 26 64 72 64c4 0 8 0 12 -1c-4 -12 -9 -23 -9 -42c0 -31 15 -59 63 -59c112 0 213 113 213 226c0 95 -81 145 -178 145l107 259h200 c49 0 89 26 125 84z" />
<glyph unicode="6" horiz-adv-x="535" d="M218 267c-13 -37 -24 -80 -24 -118c0 -78 33 -127 90 -127c78 0 144 84 144 178c0 62 -35 102 -89 102c-49 0 -77 -26 -121 -35zM605 665l5 -29c-208 -65 -340 -222 -383 -341c27 3 96 63 168 63s133 -46 133 -133c0 -159 -158 -240 -265 -240c-110 0 -159 84 -159 178 c0 283 288 455 501 502z" />
<glyph unicode="7" horiz-adv-x="497" d="M181 484h402l5 -17l-277 -320c-56 -65 -118 -147 -118 -227c0 -27 6 -57 22 -80c-21 -14 -42 -21 -65 -21c-38 0 -65 35 -65 83c0 71 31 115 170 260l246 257l-225 -9c-77 -3 -128 -51 -153 -101l-19 4z" />
<glyph unicode="8" horiz-adv-x="507" d="M163 111c0 -55 36 -92 89 -92c70 0 141 54 141 125c0 90 -109 161 -109 161c-60 -63 -121 -104 -121 -194zM402 617c-70 0 -135 -51 -135 -121c0 -58 50 -101 109 -147c50 59 109 79 109 178c0 48 -31 90 -83 90zM566 534c0 -124 -127 -165 -167 -199c0 0 93 -60 93 -152 c0 -138 -151 -201 -248 -201c-90 0 -162 46 -162 127c0 126 120 158 179 212c-56 47 -87 83 -87 140c0 115 112 195 239 195c87 0 153 -49 153 -122z" />
<glyph unicode="9" horiz-adv-x="532" d="M424 214c13 37 25 80 25 118c0 78 -33 127 -90 127c-78 0 -145 -84 -145 -178c0 -62 36 -102 91 -102c48 0 76 26 119 35zM37 -184l-4 29c209 65 340 222 383 341c-27 -3 -97 -63 -169 -63c-71 0 -132 46 -132 133c0 159 158 240 264 240c111 0 160 -84 160 -178 c0 -283 -289 -455 -502 -502z" />
<glyph unicode="#" horiz-adv-x="626" d="M186 403l29 57h107l84 166h57l-83 -166h154l83 166h57l-83 -166h121l-29 -57h-124l-92 -182h117l-29 -58h-120l-81 -163h-56l81 163h-155l-82 -163h-57l82 163h-108l29 58h110l93 182h-105zM348 403l-93 -182h156l91 182h-154z" />
<glyph unicode="$" horiz-adv-x="510" d="M425 147c0 44 -34 77 -85 109c-27 -87 -50 -164 -72 -238c77 0 157 53 157 129zM180 -131l36 113c-102 0 -160 58 -160 114c0 38 27 73 86 75c-5 -20 -7 -39 -7 -57c0 -57 27 -97 94 -97l80 253c-62 38 -126 88 -126 174c0 107 89 207 241 213l33 115h40l-36 -116 c76 -3 142 -44 142 -100c0 -36 -36 -67 -87 -73c4 17 6 34 6 49c0 44 -20 76 -72 83l-75 -237c68 -37 140 -84 140 -176c0 -134 -126 -221 -262 -221c-13 -43 -24 -80 -33 -112h-40zM269 497c0 -46 35 -77 79 -103l65 224c-87 -3 -144 -56 -144 -121z" />
<glyph horiz-adv-x="801" d="M159 42c84 0 180 211 208 314c-12 29 -35 45 -67 45c-104 0 -188 -153 -188 -284c0 -52 11 -75 47 -75zM281 40c0 44 20 89 30 115h-4c-29 -60 -83 -172 -185 -172c-61 0 -88 49 -88 114c0 162 137 342 286 342c39 0 60 -17 77 -31c8 25 24 57 58 57c16 0 29 -7 38 -15 c-30 -35 -138 -286 -138 -378c0 -14 5 -22 19 -22c68 0 180 119 288 233c0 0 -6 18 -6 46c0 69 54 139 131 139c17 0 31 -9 31 -26c0 -19 -26 -66 -91 -127c14 -52 30 -112 30 -139c0 -102 -73 -194 -184 -194c-37 0 -67 14 -67 46c0 46 51 68 72 68c0 -27 12 -59 45 -59 c47 0 72 27 72 68s-18 93 -28 148c-113 -125 -242 -270 -335 -270c-36 0 -50 22 -51 57zM720 350c17 22 25 40 25 53s-4 20 -13 20c-11 0 -19 -8 -19 -24c0 -23 7 -49 7 -49z" />
<glyph unicode="&#xa3;" horiz-adv-x="712" d="M158 257v18c63 2 119 27 119 27l15 113c22 165 144 246 265 246c71 0 138 -32 138 -80c0 -32 -27 -54 -61 -54c-18 0 -37 5 -56 19c7 11 13 27 13 41c0 19 -12 35 -50 35c-52 0 -109 -36 -137 -171l-30 -147h194v-45h-203c-24 -126 -93 -199 -148 -238 c148 -59 226 -156 321 -156c33 0 52 20 52 54c0 22 -12 45 -36 65c10 12 24 21 44 21c35 0 56 -30 56 -56c0 -65 -59 -133 -165 -133c-110 0 -187 62 -313 187c-25 -9 -63 -20 -82 -20c-45 0 -54 16 -54 31c0 20 23 37 60 37c29 0 48 -5 83 -18c35 26 78 100 89 224h-114z " />
<glyph unicode="1" horiz-adv-x="375" d="M427 460l-38 -16c-50 -21 -72 -52 -89 -127l-49 -223c-9 -38 8 -58 42 -61l45 -4l-7 -29s-59 3 -140 3c-79 0 -145 -3 -145 -3l7 29l30 4c46 6 84 32 99 100l47 209c11 50 -3 68 -33 72l-52 7l7 29s76 3 146 14c81 13 131 29 131 29z" />
<glyph unicode="&#x20ac;" horiz-adv-x="674" d="M279 230c-1 -9 -2 -23 -2 -33c0 -116 74 -148 166 -148c68 0 126 20 189 52l7 -18c-55 -48 -137 -99 -255 -99c-120 0 -215 55 -215 197c0 15 1 31 3 48h-77l16 46c17 -1 39 -2 69 -2c6 27 13 49 22 71h-67l15 46c15 -1 39 -2 72 -2c65 125 188 226 354 226 c110 0 175 -46 175 -95c0 -36 -29 -65 -67 -65c-8 0 -17 1 -26 4c0 45 -10 116 -100 116c-97 0 -182 -76 -238 -187c163 0 234 3 234 3l-16 -46s-33 1 -233 1c-6 -18 -14 -46 -20 -73c155 0 223 3 223 3l-18 -46s-80 0 -211 1z" />
<glyph horiz-adv-x="663" d="M166 -16c-80 0 -122 45 -122 121c0 143 116 361 302 361c57 0 77 -36 77 -69c0 -78 -95 -134 -282 -183c-10 -34 -15 -63 -15 -98c0 -37 17 -75 69 -75c93 0 217 119 329 242c0 0 -6 18 -6 46c0 69 54 139 131 139c17 0 31 -9 31 -26c0 -19 -26 -66 -91 -127 c14 -52 30 -112 30 -139c0 -102 -73 -194 -184 -194c-37 0 -67 14 -67 46c0 46 51 68 72 68c0 -27 12 -59 45 -59c47 0 72 27 72 68s-18 93 -28 148c-103 -122 -230 -269 -363 -269zM582 350c17 22 25 40 25 53s-4 20 -13 20c-11 0 -19 -8 -19 -24c0 -23 7 -49 7 -49z M346 390c0 23 -13 36 -34 36c-84 0 -142 -126 -163 -185c68 20 197 63 197 149z" />
<glyph horiz-adv-x="584" d="M281 610c-25 0 -42 18 -42 43c0 29 24 61 57 61c25 0 42 -18 42 -43c0 -29 -24 -61 -57 -61zM95 -16c-31 0 -44 22 -44 51c0 28 10 62 23 97l73 205c3 8 7 20 7 32c0 23 -22 28 -64 28v22s97 4 184 46l-118 -307c-18 -48 -27 -78 -27 -94c0 -10 4 -14 13 -14 c55 0 191 110 303 233c0 0 -6 18 -6 46c0 69 54 139 131 139c17 0 31 -9 31 -26c0 -19 -26 -66 -91 -127c14 -52 30 -112 30 -139c0 -102 -73 -194 -184 -194c-37 0 -67 14 -67 46c0 46 51 68 72 68c0 -27 12 -59 45 -59c47 0 72 27 72 68s-18 93 -28 148 c-103 -122 -252 -269 -355 -269zM503 350c17 22 25 40 25 53s-4 20 -13 20c-11 0 -19 -8 -19 -24c0 -23 7 -49 7 -49z" />
<glyph horiz-adv-x="817" d="M390 72c0 -14 5 -22 19 -22c68 0 170 119 268 233c0 0 -6 18 -6 46c0 69 54 139 131 139c17 0 31 -9 31 -26c0 -19 -26 -66 -91 -127c17 -52 35 -112 35 -139c0 -102 -73 -194 -184 -194c-37 0 -67 14 -67 46c0 46 51 68 72 68c0 -27 12 -59 45 -59c47 0 72 27 72 68 s-23 93 -33 148c-113 -125 -222 -270 -315 -270c-36 0 -50 22 -51 57c0 31 12 71 28 114c27 71 37 95 46 116h-4c-70 -129 -178 -286 -279 -286c-39 0 -53 18 -53 50c0 19 8 57 19 87l60 171c17 48 27 78 27 94c0 10 -5 14 -15 14c-25 0 -65 -52 -86 -82l-15 10 c32 60 89 138 158 138c24 0 38 -9 38 -39c0 -26 -11 -69 -34 -135l-60 -172c-8 -22 -12 -37 -12 -50c0 -10 3 -19 15 -19c101 0 276 303 276 407c0 0 10 8 34 8c23 0 38 -13 38 -36c0 -8 -2 -18 -5 -28l-94 -289c-6 -20 -8 -31 -8 -41zM735 350c17 22 25 40 25 53 s-4 20 -13 20c-11 0 -19 -8 -19 -24c0 -23 7 -49 7 -49z" />
<glyph unicode="&#x192;" horiz-adv-x="510" d="M446 613c69 0 104 -32 104 -66c0 -30 -29 -49 -54 -49c-6 0 -10 1 -10 1c0 23 -19 70 -70 70s-100 -28 -130 -126l-37 -121h132l-13 -38h-131l-70 -229c-71 -231 -185 -305 -250 -305c-38 0 -69 20 -69 57c0 23 14 43 41 51c17 -49 42 -59 70 -59c45 0 75 42 100 138 l91 347h-86l3 13c47 4 94 20 94 20c40 170 155 296 285 296z" />
<glyph unicode="&#xa5;" horiz-adv-x="628" d="M442 293c82 1 170 4 170 4l-10 -42s-82 1 -182 1l-14 -62c85 0 183 3 183 3l-10 -42s-82 1 -182 1l-15 -65c-10 -42 5 -55 39 -60l30 -4l-6 -27s-57 3 -129 3c-64 0 -122 -3 -122 -3l6 27l25 4c41 7 68 37 80 90l8 35c-65 -1 -147 -1 -170 -1l10 42c25 0 79 -3 169 -3 l14 62c-65 -1 -147 -1 -170 -1l10 42c24 0 74 -3 156 -4l-86 277c-8 25 -19 36 -51 41l-29 4l6 27s64 -3 116 -3c49 0 118 3 118 3l-6 -27l-17 -4c-23 -5 -37 -19 -37 -43c0 -6 1 -15 3 -23l68 -235l172 235c8 10 22 28 22 42c0 12 -8 21 -26 24l-27 4l6 27s57 -3 101 -3 c53 0 86 3 86 3l-6 -27l-19 -4c-40 -9 -60 -23 -83 -53z" />
<glyph horiz-adv-x="562" d="M371 512l52 4l59 -412c5 -37 10 -60 42 -68l29 -7l-7 -29s-48 3 -101 3c-78 0 -124 -3 -124 -3l7 29l27 7c28 7 38 23 38 48c0 7 -1 17 -2 25l-11 73h-164l-50 -87c-6 -10 -12 -23 -12 -34c0 -12 6 -22 24 -25l34 -7l-7 -29s-43 3 -102 3c-51 0 -87 -3 -87 -3l7 29l23 7 c32 10 54 28 73 60zM351 417l-113 -198h137z" />
<glyph horiz-adv-x="474" d="M252 253l-36 -156c-10 -44 9 -65 50 -65c76 0 126 54 126 120c0 76 -69 103 -124 103c-9 0 -16 -2 -16 -2zM301 463l-42 -183c9 1 20 2 34 2c16 0 35 -2 35 -2c64 23 92 68 92 123c0 41 -28 67 -73 67c-20 0 -34 -3 -46 -7zM148 3c-74 0 -109 -3 -109 -3l6 27l20 5 c34 8 55 25 66 72l72 310c8 37 2 51 -22 56l-33 7l6 27s51 -3 118 -3c42 0 69 3 91 3c96 0 147 -39 147 -98c0 -90 -98 -125 -148 -131c78 -9 130 -61 130 -121c0 -80 -70 -154 -215 -154c-39 0 -62 3 -129 3z" />
<glyph horiz-adv-x="537" d="M605 501l-27 -118h-22c-5 58 -55 99 -143 99c-128 0 -237 -110 -237 -278c0 -119 73 -183 160 -183c81 0 140 43 169 105l23 -3l-40 -111c-61 0 -96 -28 -183 -28c-129 0 -234 59 -234 198c0 180 171 337 364 337c77 0 99 -18 170 -18z" />
<glyph horiz-adv-x="588" d="M302 463l-84 -366c-10 -44 9 -65 54 -65c99 0 257 39 257 263c0 108 -64 175 -163 175c-23 0 -47 -3 -64 -7zM148 3c-74 0 -109 -3 -109 -3l6 27l20 5c34 8 55 25 66 72l72 310c8 37 2 51 -22 56l-33 7l6 27s51 -3 118 -3c50 0 69 3 120 3c168 0 239 -90 239 -194 c0 -178 -135 -310 -348 -310c-46 0 -68 3 -135 3z" />
<glyph horiz-adv-x="427" d="M148 3c-74 0 -109 -3 -109 -3l6 27l20 5c34 8 55 25 66 72l72 310c8 37 2 51 -22 56l-33 7l6 27s51 -3 118 -3c94 0 232 3 232 3l-26 -114h-18c-4 55 -47 80 -109 80c-18 0 -37 -3 -48 -7l-44 -192h54c35 0 60 19 73 56l12 35h24s-14 -45 -28 -106 c-8 -36 -14 -76 -14 -76h-23v18c-2 22 -9 41 -43 41h-63l-33 -142c-10 -44 7 -65 48 -65c85 0 138 65 161 101l17 -1l-54 -132c-165 2 -205 3 -242 3z" />
<glyph horiz-adv-x="427" d="M250 233l-33 -143c-9 -37 1 -51 29 -56l38 -7l-6 -27s-63 3 -130 3c-74 0 -109 -3 -109 -3l6 27l20 5c34 8 55 25 66 72l72 310c8 37 2 51 -22 56l-33 7l6 27s51 -3 118 -3c94 0 232 3 232 3l-26 -114h-18c-4 55 -47 80 -109 80c-18 0 -37 -3 -48 -7l-46 -198h54 c35 0 61 19 74 56l12 35h23s-13 -45 -27 -106c-8 -36 -15 -76 -15 -76h-23v18c-2 22 -8 41 -42 41h-63z" />
<glyph horiz-adv-x="561" d="M605 501l-27 -118h-22c-8 68 -60 99 -136 99c-125 0 -244 -106 -244 -278c0 -119 73 -182 160 -182c48 0 82 19 90 54l14 61c8 34 -5 43 -27 49l-26 7l6 27h206l-6 -27l-19 -5c-30 -8 -43 -30 -51 -64l-26 -112c-62 0 -105 -28 -192 -28c-129 0 -234 59 -234 198 c0 180 171 337 364 337c77 0 104 -18 170 -18z" />
<glyph horiz-adv-x="662" d="M490 104l32 138h-270l-35 -152c-9 -37 -2 -51 22 -56l32 -7l-6 -27s-50 3 -117 3c-74 0 -109 -3 -109 -3l6 27l20 5c34 8 55 25 66 72l72 310c8 37 2 51 -22 56l-33 7l6 27s51 -3 118 -3c74 0 108 3 108 3l-6 -27l-20 -5c-34 -8 -55 -25 -66 -72l-28 -121h271l31 135 c9 37 2 51 -22 56l-33 7l6 27s51 -3 118 -3c74 0 108 3 108 3l-6 -27l-20 -5c-34 -8 -55 -25 -66 -72l-71 -310c-9 -37 -2 -51 22 -56l32 -7l-6 -27s-50 3 -117 3c-74 0 -109 -3 -109 -3l6 27l20 5c34 8 55 25 66 72z" />
<glyph horiz-adv-x="303" d="M131 104l72 310c8 37 2 51 -22 56l-33 7l6 27s51 -3 118 -3c74 0 108 3 108 3l-6 -27l-20 -5c-34 -8 -55 -25 -66 -72l-71 -310c-9 -37 -2 -51 22 -56l32 -7l-6 -27s-50 3 -117 3c-74 0 -109 -3 -109 -3l6 27l20 5c34 8 55 25 66 72z" />
<glyph horiz-adv-x="304" d="M290 400l-79 -342c-17 -72 -41 -112 -75 -143c-56 -51 -91 -48 -154 -96l-8 19c20 24 50 37 82 72c37 40 51 87 61 132l86 372c9 37 2 51 -22 56l-32 7l6 27s51 -3 118 -3c74 0 109 3 109 3l-6 -27l-21 -5c-34 -8 -54 -25 -65 -72z" />
<glyph horiz-adv-x="562" d="M131 104l72 310c8 37 2 51 -22 56l-33 7l6 27s51 -3 118 -3c74 0 108 3 108 3l-6 -27l-20 -5c-34 -8 -55 -25 -66 -72l-29 -127h48l155 151c10 9 17 21 17 30c0 8 -5 16 -17 18l-26 5l6 27s52 -3 109 -3c41 0 93 3 93 3l-6 -27l-30 -5c-40 -7 -70 -25 -101 -58l-126 -119 l81 -203c20 -51 50 -73 87 -73c13 0 22 3 22 3l-6 -27s-30 -11 -70 -11c-55 0 -106 20 -129 92l-40 126c-11 32 -29 43 -51 43c-10 0 -18 -2 -23 -4l-35 -151c-9 -37 -2 -51 22 -56l32 -7l-6 -27s-50 3 -117 3c-74 0 -109 -3 -109 -3l6 27l20 5c34 8 55 25 66 72z" />
<glyph horiz-adv-x="410" d="M148 3c-74 0 -109 -3 -109 -3l6 27l20 5c34 8 55 25 66 72l72 310c8 37 2 51 -22 56l-33 7l6 27s51 -3 118 -3c74 0 108 3 108 3l-6 -27l-20 -5c-34 -8 -55 -25 -66 -72l-71 -310c-9 -37 -4 -60 41 -60c75 0 124 62 154 118l22 -1l-55 -147s-138 3 -231 3z" />
<glyph horiz-adv-x="710" d="M116 129l88 291c10 33 -3 48 -24 52l-28 5l6 27s74 -3 137 -3c-3 -16 -4 -29 1 -50l80 -343l221 326c18 26 29 51 33 68c15 0 86 -1 144 2l-5 -25l-22 -6c-22 -6 -46 -21 -51 -52l-55 -332c-6 -36 12 -48 38 -55l28 -7l-6 -27s-68 2 -113 2c-47 0 -128 -2 -128 -2l6 27 l24 7c39 11 64 27 73 85l44 272l-268 -394l-22 -4l-87 399l-84 -279c-12 -40 -18 -68 29 -79l29 -7l-6 -27s-73 2 -109 2c-40 0 -85 -2 -85 -2l6 27l27 7c46 12 60 34 79 95z" />
<glyph horiz-adv-x="597" d="M497 477l6 27s46 -3 102 -3c47 0 86 3 86 3l-6 -28l-21 -6c-35 -10 -55 -28 -67 -81l-90 -392l-30 -4l-261 372l-61 -266c-11 -47 0 -57 36 -65l33 -7l-6 -27s-72 3 -110 3c-35 0 -86 -3 -86 -3l6 27l20 5c36 9 57 30 69 83l67 290c10 45 1 57 -27 65l-26 7l6 27 c53 -2 97 -3 132 -3c0 -17 2 -33 20 -59l211 -298l60 260c10 45 -3 60 -31 66z" />
<glyph d="M311 22c133 0 218 139 218 285c0 113 -59 175 -137 175c-132 0 -218 -139 -218 -286c0 -113 59 -174 137 -174zM431 519c116 0 201 -76 201 -200c0 -163 -142 -335 -358 -335c-118 0 -203 76 -203 201c0 164 143 334 360 334z" />
<glyph horiz-adv-x="460" d="M310 253c61 0 113 68 113 140c0 56 -36 77 -76 77c-16 0 -32 -3 -44 -7l-46 -200c16 0 24 -10 53 -10zM251 238l-34 -148c-9 -37 2 -51 30 -56l37 -7l-6 -27s-69 3 -130 3c-74 0 -109 -3 -109 -3l6 27l20 5c34 8 55 25 66 72l72 310c8 37 2 51 -22 56l-33 7l6 27 s43 -3 110 -3c40 0 86 4 121 4c84 0 137 -44 137 -113c0 -120 -105 -174 -181 -174c-48 0 -68 20 -90 20z" />
<glyph d="M431 519c116 0 201 -76 201 -200c0 -142 -109 -289 -280 -326c125 -35 255 -110 446 -110c78 0 176 9 245 39l3 -10c-119 -77 -204 -102 -303 -102c-189 0 -297 149 -469 174c-118 0 -203 76 -203 201c0 164 143 334 360 334zM311 22c133 0 218 139 218 285 c0 113 -59 175 -137 175c-132 0 -218 -139 -218 -286c0 -113 59 -174 137 -174z" />
<glyph horiz-adv-x="531" d="M352 470c-24 0 -37 -3 -49 -7l-50 -214c17 11 36 16 55 16c26 0 40 -9 40 -9c54 44 76 79 76 135c0 47 -28 79 -72 79zM247 222l-30 -132c-9 -37 -2 -51 22 -56l32 -7l-6 -27s-50 3 -117 3c-74 0 -109 -3 -109 -3l6 27l20 5c34 8 55 25 66 72l72 310c8 37 2 51 -22 56 l-33 7l6 27s51 -3 118 -3c33 0 98 3 111 3c91 0 142 -42 142 -106c0 -129 -134 -152 -155 -155c12 -9 20 -21 28 -45l33 -95c17 -48 37 -84 112 -84l-4 -19s-31 -16 -72 -16c-67 0 -114 30 -127 94l-21 103c-6 31 -20 47 -45 47c-17 0 -27 -6 -27 -6z" />
<glyph horiz-adv-x="382" d="M450 503l-34 -112h-21c14 60 -15 95 -78 95c-60 0 -97 -39 -97 -87c0 -88 163 -111 163 -238c0 -110 -90 -177 -211 -177c-68 0 -86 22 -138 22l29 124h23c-11 -51 1 -113 90 -113c62 0 116 43 116 102c0 91 -157 105 -157 233c0 92 83 167 192 167c67 0 87 -16 123 -16z " />
<glyph horiz-adv-x="494" d="M227 104l84 361h-47c-61 0 -104 -24 -129 -79l-21 3l39 119h17s5 -8 27 -8h347c21 0 29 8 29 8h16l-39 -122l-21 1c12 54 -4 78 -56 78h-73l-87 -375c-8 -37 -2 -51 22 -56l32 -7l-6 -27s-50 3 -117 3c-74 0 -109 -3 -109 -3l6 27l21 5c34 8 54 25 65 72z" />
<glyph horiz-adv-x="602" d="M148 477l7 27s50 -3 117 -3c74 0 109 3 109 3l-7 -27l-20 -5c-34 -8 -54 -25 -65 -72l-55 -236c-24 -104 11 -145 96 -145c106 0 141 64 160 145l56 242c10 45 3 57 -24 64l-29 7l7 27s55 -3 91 -3c41 0 94 3 94 3l-6 -27l-21 -5c-36 -9 -54 -28 -66 -81l-52 -224 c-28 -121 -112 -183 -235 -183c-124 0 -187 62 -159 183l57 247c9 37 2 51 -22 56z" />
<glyph horiz-adv-x="546" d="M573 501c41 0 76 3 76 3l-6 -27l-24 -6c-33 -8 -53 -29 -77 -68l-256 -417l-31 -4l-67 447c-5 31 -12 38 -38 43l-27 5l6 27s61 -3 107 -3c67 0 110 3 110 3l-6 -27l-18 -5c-26 -7 -39 -24 -39 -49c0 -5 0 -14 1 -19l37 -298l182 299c11 17 22 37 22 45 c0 11 -11 17 -30 21l-26 6l6 27s45 -3 98 -3z" />
<glyph horiz-adv-x="788" d="M427 477l6 27c48 -1 82 -3 133 -3c0 0 -9 -33 -7 -63l23 -317l172 302c5 9 10 16 10 24c0 12 -8 22 -26 25l-26 5l6 27s62 -3 93 -3c32 0 81 3 81 3l-6 -27l-23 -5c-31 -7 -54 -32 -75 -69l-240 -417l-28 -4l-40 384l-205 -380l-31 -4l-57 447c-4 29 -15 38 -40 43l-26 5 l6 27s53 -3 106 -3c45 0 107 3 107 3l-6 -27l-20 -5c-30 -7 -38 -26 -38 -49c0 -6 0 -14 1 -19l30 -282l162 293c9 16 10 27 10 29c0 13 -8 23 -29 28z" />
<glyph horiz-adv-x="532" d="M357 313l105 112c14 15 18 23 18 30c0 8 -6 14 -18 17l-18 5l6 27s57 -3 111 -3c45 0 73 3 73 3l-6 -27l-29 -6c-40 -8 -61 -22 -94 -57l-132 -140l94 -205c10 -22 29 -35 47 -38l22 -4l-6 -27s-50 3 -90 3c-42 0 -116 -3 -116 -3l6 27l19 4c17 4 23 13 23 24 c0 6 -2 13 -5 19l-62 138l-122 -128c-9 -10 -20 -24 -20 -35c0 -8 5 -14 16 -17l19 -5l-6 -27s-43 3 -88 3c-50 0 -97 -3 -97 -3l6 27l30 5c35 6 61 24 94 59l149 154l-93 193c-9 19 -18 30 -42 34l-26 5l6 27s56 -3 113 -3c63 0 106 3 106 3l-6 -27l-23 -6 c-15 -4 -24 -14 -24 -25c0 -5 1 -12 4 -17z" />
<glyph horiz-adv-x="503" d="M334 243l125 164c10 13 26 34 26 45c0 10 -7 17 -22 20l-22 5l6 27s44 -2 89 -2c50 0 71 2 71 2l-6 -27l-18 -5c-33 -9 -57 -33 -80 -63l-155 -198l-28 -121c-9 -37 -2 -51 22 -56l32 -7l-6 -27s-50 3 -117 3c-74 0 -110 -3 -110 -3l6 27l20 5c34 8 55 25 66 72l24 107 l-73 231c-6 19 -17 26 -37 30l-24 5l6 27s48 -3 89 -3c65 0 110 3 110 3l-6 -27l-22 -5c-17 -4 -24 -15 -24 -28c0 -6 1 -14 4 -23z" />
<glyph horiz-adv-x="487" d="M553 504l3 -17l-410 -451l123 4c104 3 161 38 207 109l20 -5l-70 -144h-396l-5 10l413 456l-142 -5c-86 -3 -124 -41 -145 -87l-21 3l48 136h29s1 -10 35 -10c119 0 311 1 311 1z" />
<glyph horiz-adv-x="551" d="M302 519c48 0 85 -31 85 -72c0 -34 -22 -66 -59 -66c-11 0 -30 3 -44 14c15 17 21 36 21 52c0 13 -7 25 -27 25c-26 0 -54 -27 -54 -74c0 -24 7 -54 12 -70c38 -2 62 -21 62 -48c0 -19 -15 -36 -36 -36c-6 0 -12 1 -18 4c2 6 4 13 4 20c0 15 -7 28 -26 28 c-59 0 -88 -67 -88 -125c0 -91 59 -149 163 -149c142 0 192 90 192 165c0 40 -32 79 -67 92c-27 -14 -49 -34 -49 -64c0 -28 18 -37 33 -37c10 0 19 2 26 8c6 -9 9 -18 9 -26c0 -25 -27 -45 -61 -45c-38 0 -74 24 -74 69c0 62 69 99 135 132c67 34 100 62 100 110 c0 19 -10 42 -47 55c6 25 26 38 49 38c45 0 71 -42 71 -79c0 -64 -59 -101 -130 -128v-5c35 -34 48 -72 48 -112c0 -115 -120 -211 -283 -211c-113 0 -201 53 -201 165c0 98 79 164 149 175c-11 14 -29 50 -29 84c0 69 56 111 134 111z" />
<glyph unicode=")" horiz-adv-x="365" d="M397 402c0 -276 -218 -474 -377 -581l-13 16c211 190 309 379 309 589c0 116 -31 243 -94 341l20 16c75 -73 155 -210 155 -381z" />
<glyph unicode="/" horiz-adv-x="411" d="M250 307c80 146 250 475 250 475h66s-184 -329 -264 -475s-251 -475 -251 -475h-66s185 329 265 475z" />
<glyph unicode="[" horiz-adv-x="374" d="M488 783c8 -3 15 -14 15 -25c0 -46 -69 -58 -110 -58c-34 0 -76 6 -76 6l-186 -807s44 6 78 6c35 0 86 -10 86 -45c0 -18 -15 -35 -29 -38c-34 34 -125 51 -223 51l198 858c98 0 197 18 247 52z" />
<glyph unicode="\" horiz-adv-x="411" d="M302 307c13 -146 46 -475 46 -475h-66s-18 329 -31 475s-46 475 -46 475h66s18 -329 31 -475z" />
<glyph unicode="]" horiz-adv-x="374" d="M248 783c34 -34 125 -52 223 -52l-198 -858c-98 0 -197 -17 -247 -51c-9 3 -15 14 -15 25c0 45 69 58 110 58c34 0 76 -6 76 -6l186 807s-45 -6 -79 -6c-35 0 -86 10 -86 45c0 18 16 33 30 38z" />
<glyph unicode="{" horiz-adv-x="322" d="M150 302c36 -6 81 -34 81 -96c0 -53 -76 -202 -76 -293c0 -38 20 -56 44 -56c23 0 38 9 47 22c8 -3 16 -9 16 -20c0 -17 -20 -38 -69 -38c-50 0 -116 32 -116 114c0 103 90 192 90 287c0 39 -18 67 -66 67h-21l6 26h21c62 0 93 41 106 97c17 75 6 147 24 226 c24 106 120 145 178 145c39 0 53 -15 53 -30s-14 -25 -27 -28c-3 13 -13 22 -36 22c-30 0 -65 -25 -77 -79c-20 -85 -24 -152 -45 -244c-19 -81 -88 -115 -133 -122z" />
<glyph unicode="|" horiz-adv-x="221" d="M143 266c22 97 115 516 115 516h65s-101 -419 -123 -516c-23 -98 -115 -516 -115 -516h-65s100 418 123 516z" />
<glyph unicode="}" horiz-adv-x="322" d="M312 302c-36 6 -81 34 -81 96c0 53 76 202 76 293c0 38 -20 56 -44 56c-23 0 -38 -9 -47 -22c-8 3 -16 9 -16 20c0 17 20 38 69 38c50 0 116 -32 116 -114c0 -103 -89 -192 -89 -287c0 -39 17 -67 65 -67h21l-6 -26h-21c-62 0 -93 -41 -106 -97c-17 -75 -6 -147 -24 -226 c-24 -106 -120 -145 -178 -145c-39 0 -53 15 -53 30s14 25 27 28c3 -13 13 -22 36 -22c30 0 65 25 77 79c20 85 24 152 45 244c19 81 88 115 133 122z" />
<glyph unicode="~" horiz-adv-x="555" d="M257 326c87 0 116 -68 191 -68c41 0 84 23 110 63l20 -17c-26 -60 -82 -110 -166 -110c-82 0 -110 65 -184 65c-41 0 -85 -20 -111 -60l-20 17c26 58 84 110 160 110z" />
<glyph horiz-adv-x="356" d="M408 383c0 -11 -4 -19 -6 -22l-285 -56l-8 17c52 34 168 96 256 96c30 0 43 -15 43 -35z" />
<glyph horiz-adv-x="612" d="M635 334h-504l12 54h504z" />
<glyph horiz-adv-x="1108" d="M1131 334h-1000l12 54h1000z" />
<glyph horiz-adv-x="423" d="M193 387c-30 0 -49 23 -49 60c0 107 103 184 195 203l3 -15c-65 -22 -112 -74 -112 -129c0 -28 14 -47 36 -57c-8 -35 -38 -62 -73 -62zM381 387c-30 0 -49 23 -49 60c0 107 103 184 195 203l3 -15c-65 -22 -112 -74 -112 -129c0 -28 14 -47 36 -57 c-8 -35 -38 -62 -73 -62z" />
<glyph horiz-adv-x="423" d="M470 654c30 0 49 -23 49 -60c0 -107 -102 -184 -195 -203l-2 15c64 22 111 74 111 129c0 28 -13 47 -35 57c8 35 37 62 72 62zM282 654c30 0 49 -23 49 -60c0 -107 -102 -184 -195 -203l-2 15c64 22 111 74 111 129c0 28 -13 47 -35 57c8 35 37 62 72 62z" />
<glyph horiz-adv-x="235" d="M193 387c-30 0 -49 23 -49 60c0 107 103 184 195 203l3 -15c-65 -22 -112 -74 -112 -129c0 -28 14 -47 36 -57c-8 -35 -38 -62 -73 -62z" />
<glyph horiz-adv-x="235" d="M282 654c30 0 49 -23 49 -60c0 -107 -102 -184 -195 -203l-2 15c64 22 111 74 111 129c0 28 -13 47 -35 57c8 35 37 62 72 62z" />
<glyph horiz-adv-x="504" d="M143 349l208 220l28 -51l-185 -167c40 -32 115 -104 115 -168c0 -38 -34 -60 -53 -60zM338 349l186 197l26 -46l-166 -150c36 -28 103 -93 103 -150c0 -34 -30 -54 -47 -54z" />
<glyph horiz-adv-x="504" d="M521 343l-208 -220l-28 51l184 167c-39 32 -114 104 -114 168c0 38 34 60 53 60zM326 343l-187 -197l-25 46l166 150c-36 28 -103 93 -103 150c0 34 30 54 47 54z" />
<glyph horiz-adv-x="340" d="M148 349l208 220l28 -51l-185 -167c40 -32 115 -104 115 -168c0 -38 -34 -60 -53 -60z" />
<glyph horiz-adv-x="340" d="M352 343l-208 -220l-28 51l185 167c-40 32 -115 104 -115 168c0 38 34 60 53 60z" />
<glyph horiz-adv-x="365" d="M119 250c0 276 217 474 376 581l13 -16c-211 -190 -309 -379 -309 -589c0 -116 31 -243 94 -341l-20 -16c-75 73 -154 210 -154 381z" />
<glyph horiz-adv-x="365" d="M408 450c0 -276 -218 -474 -377 -581l-13 16c211 190 309 379 309 589c0 116 -31 243 -94 341l20 16c75 -73 155 -210 155 -381z" />
<glyph horiz-adv-x="374" d="M499 831c8 -3 15 -14 15 -25c0 -46 -69 -58 -110 -58c-34 0 -76 6 -76 6l-186 -807s44 6 78 6c35 0 86 -10 86 -45c0 -18 -15 -35 -29 -38c-34 34 -125 51 -223 51l198 858c98 0 197 18 247 52z" />
<glyph horiz-adv-x="374" d="M259 831c34 -34 125 -52 223 -52l-198 -858c-98 0 -197 -17 -247 -51c-9 3 -15 14 -15 25c0 45 69 58 110 58c34 0 76 -6 76 -6l186 807s-45 -6 -79 -6c-35 0 -86 10 -86 45c0 18 16 33 30 38z" />
<glyph horiz-adv-x="322" d="M161 350c35 -6 80 -34 80 -96c0 -53 -75 -202 -75 -293c0 -38 20 -56 44 -56c23 0 37 9 46 22c9 -3 16 -9 16 -20c0 -17 -19 -38 -68 -38c-50 0 -116 32 -116 114c0 103 89 192 89 287c0 39 -18 67 -65 67h-21l6 26h21c62 0 92 41 105 97c17 75 6 147 24 226 c24 106 121 145 179 145c39 0 53 -15 53 -30s-14 -25 -28 -28c-3 13 -12 22 -35 22c-30 0 -66 -25 -78 -79c-20 -85 -23 -152 -44 -244c-19 -81 -89 -115 -133 -122z" />
<glyph horiz-adv-x="221" d="M164 354c22 97 115 516 115 516h65s-101 -419 -123 -516c-23 -98 -115 -516 -115 -516h-65s100 418 123 516z" />
<glyph horiz-adv-x="322" d="M323 350c-36 6 -81 34 -81 96c0 53 76 202 76 293c0 38 -20 56 -44 56c-23 0 -38 -9 -47 -22c-8 3 -16 9 -16 20c0 17 20 38 69 38c50 0 116 -32 116 -114c0 -103 -89 -192 -89 -287c0 -39 17 -67 65 -67h21l-6 -26h-21c-62 0 -93 -41 -106 -97c-17 -75 -6 -147 -24 -226 c-24 -106 -120 -145 -178 -145c-39 0 -53 15 -53 30s14 25 27 28c3 -13 13 -22 36 -22c30 0 65 25 77 79c20 85 24 152 45 244c19 81 88 115 133 122z" />
<glyph horiz-adv-x="411" d="M264 361c80 146 249 475 249 475h66s-185 -329 -265 -475s-250 -475 -250 -475h-66s186 329 266 475z" />
<glyph horiz-adv-x="411" d="M313 361c13 -146 47 -475 47 -475h-66s-17 329 -30 475s-47 475 -47 475h66s17 -329 30 -475z" />
<glyph horiz-adv-x="276" d="M134 -16c-29 0 -48 22 -48 49c0 82 107 269 144 431c7 29 9 47 9 47h34s-6 -18 -13 -47c-31 -133 -22 -294 -51 -419c-8 -34 -41 -61 -75 -61zM227 643c0 38 38 71 76 71c28 0 48 -22 48 -49c0 -38 -38 -71 -76 -71c-28 0 -48 22 -48 49z" />
<glyph horiz-adv-x="469" d="M362 510h22c17 -26 25 -56 25 -84c0 -174 -261 -181 -261 -331c0 -34 37 -65 106 -65c51 0 73 22 73 56c0 10 -2 18 -2 18c14 5 29 7 40 7c31 0 54 -16 54 -40c0 -50 -61 -87 -163 -87c-99 0 -159 58 -159 138c0 189 268 215 268 361c0 9 -1 20 -3 27zM344 643 c0 38 37 71 75 71c28 0 48 -22 48 -49c0 -38 -38 -71 -76 -71c-28 0 -47 22 -47 49z" />
<glyph horiz-adv-x="207" d="M125 346c0 38 37 71 75 71c28 0 48 -22 48 -49c0 -38 -38 -71 -75 -71c-29 0 -48 22 -48 49z" />
<glyph horiz-adv-x="500" d="M162 356c0 97 78 175 175 175s175 -78 175 -175c0 -96 -78 -175 -175 -175s-175 79 -175 175z" />
<glyph horiz-adv-x="332" d="M116 183c0 182 142 325 256 390l12 -15c-159 -133 -196 -297 -196 -407c0 -71 16 -152 55 -205l-19 -15c-57 44 -108 139 -108 252z" />
<glyph horiz-adv-x="332" d="M332 320c0 -182 -142 -324 -255 -389l-12 15c159 133 196 294 196 407c0 71 -16 152 -55 205l19 15c56 -44 107 -139 107 -253z" />
<glyph horiz-adv-x="269" d="M190 147h-43s10 23 15 46c24 106 0 159 26 271c7 31 38 55 67 55c25 0 43 -19 43 -45c0 -96 -66 -132 -100 -281c-5 -23 -8 -46 -8 -46zM89 27c0 32 33 61 65 61c24 0 40 -19 40 -42c0 -33 -32 -62 -64 -62c-25 0 -41 18 -41 43z" />
<glyph horiz-adv-x="269" d="M196 357h43s-8 -23 -14 -47c-24 -105 0 -158 -26 -270c-7 -31 -38 -56 -67 -56c-25 0 -43 20 -43 46c0 96 66 132 100 280c6 24 7 47 7 47zM298 477c0 -32 -33 -61 -66 -61c-24 0 -39 19 -39 42c0 33 31 61 63 61c25 0 42 -17 42 -42z" />
<glyph horiz-adv-x="386" d="M136 27c0 32 34 61 64 61c25 0 41 -19 41 -42c0 -32 -31 -62 -65 -62c-23 0 -40 19 -40 43zM219 147h-18c-12 16 -17 37 -17 56c0 136 182 128 182 239c0 23 -21 43 -71 43c-36 0 -50 -17 -50 -40c0 -8 1 -16 1 -16c-10 -5 -20 -8 -38 -8s-32 14 -32 32 c0 35 43 66 118 66c72 0 116 -42 116 -98c0 -151 -193 -148 -193 -254c0 -7 1 -15 2 -20z" />
<glyph horiz-adv-x="386" d="M366 476c0 -32 -34 -61 -64 -61c-25 0 -41 19 -41 42c0 32 32 62 65 62c23 0 40 -19 40 -43zM283 356h18c12 -16 18 -37 18 -56c0 -136 -183 -128 -183 -239c0 -23 21 -43 71 -43c36 0 51 17 51 40c0 8 -2 16 -2 16c10 5 20 8 38 8s32 -14 32 -32c0 -35 -43 -66 -118 -66 c-72 0 -116 42 -116 98c0 151 193 148 193 254c0 7 0 15 -2 20z" />
<glyph horiz-adv-x="207" d="M137 253c19 82 97 431 97 431h54s-84 -349 -103 -431s-96 -429 -96 -429h-54s83 347 102 429z" />
<glyph horiz-adv-x="343" d="M418 604c7 -4 13 -15 13 -25c0 -43 -63 -54 -102 -54c-32 0 -66 6 -66 6l-128 -558s36 6 68 6c33 0 79 -10 79 -43c0 -15 -16 -33 -26 -36c-32 32 -110 49 -200 49l140 605c90 0 176 18 222 50z" />
<glyph horiz-adv-x="342" d="M204 604c32 -32 110 -50 200 -50l-140 -605c-90 0 -176 -17 -222 -49c-7 3 -13 15 -13 25c0 41 63 54 102 54c32 0 66 -6 66 -6l129 558s-37 -6 -69 -6c-33 0 -80 9 -80 42c0 16 16 31 27 37z" />
<glyph horiz-adv-x="278" d="M151 251c30 -5 52 -30 52 -69c0 -60 -56 -119 -56 -207c0 -30 17 -40 36 -40c15 0 28 6 34 16c7 -2 12 -7 12 -17c0 -13 -16 -34 -52 -34c-52 0 -98 24 -98 85c0 89 64 127 64 208c0 29 -13 47 -49 47h-16l6 24h16c48 0 68 28 78 71c13 58 3 100 17 160 c18 79 84 109 144 109c29 0 39 -14 39 -25c0 -15 -12 -24 -22 -25c-1 9 -12 15 -27 15c-23 0 -48 -12 -57 -52c-15 -64 -14 -104 -30 -173c-14 -60 -58 -86 -91 -93z" />
<glyph horiz-adv-x="278" d="M243 253c-30 5 -52 30 -52 69c0 60 56 119 56 207c0 30 -17 40 -36 40c-15 0 -28 -6 -34 -16c-7 2 -12 7 -12 17c0 13 16 34 52 34c52 0 98 -24 98 -85c0 -89 -64 -127 -64 -208c0 -29 13 -47 49 -47h16l-6 -24h-16c-48 0 -68 -28 -78 -71c-13 -58 -3 -100 -17 -160 c-18 -79 -84 -109 -144 -109c-29 0 -39 14 -39 25c0 15 12 24 22 25c1 -9 12 -15 27 -15c23 0 48 12 57 52c15 64 14 104 30 173c14 60 58 86 91 93z" />
<glyph horiz-adv-x="323" d="M199 260c57 103 181 342 181 342h54s-134 -239 -193 -342c-59 -105 -178 -341 -178 -341h-54s133 236 190 341z" />
<glyph horiz-adv-x="323" d="M244 260c9 -105 33 -341 33 -341h-54s-11 236 -20 341c-11 103 -34 342 -34 342h53s14 -239 22 -342z" />
<glyph horiz-adv-x="521" d="M339 286l-81 -262c78 7 165 57 165 143c0 52 -38 88 -84 119zM269 551c0 -46 36 -82 81 -115l70 238c-88 0 -151 -57 -151 -123zM460 672l-80 -257c67 -47 140 -103 140 -197c0 -135 -120 -231 -274 -234c-12 -39 -24 -81 -33 -113h-41l36 114c-102 0 -160 58 -160 114 c0 38 24 75 86 75c-5 -20 -7 -39 -7 -56c0 -56 32 -93 94 -93l90 281c-65 42 -132 92 -132 187c0 113 93 216 253 221l31 106h43l-34 -107c75 -3 141 -44 141 -100c0 -40 -30 -73 -86 -73c4 17 6 33 6 48c0 44 -20 77 -73 84z" />
<glyph horiz-adv-x="689" d="M287 269c-20 -166 60 -216 162 -216c68 0 121 20 194 63l7 -17c-58 -56 -142 -115 -262 -115c-134 0 -237 78 -207 284h-77l17 53c18 -1 41 -2 71 -2c7 31 16 57 25 82h-69l16 51h74c72 147 212 262 375 262c114 0 166 -52 166 -104c0 -38 -39 -74 -78 -74 c-14 0 -25 2 -34 7c5 11 11 21 11 43c0 43 -25 82 -94 82c-108 0 -203 -95 -250 -217c165 0 240 3 240 3l-18 -53s-36 1 -239 1c-7 -21 -15 -53 -22 -84c157 0 228 3 228 3l-19 -53s-33 1 -217 1z" />
<glyph horiz-adv-x="733" d="M274 268h-114v18c63 2 119 27 119 27l13 137c19 203 146 277 267 277c71 0 138 -32 138 -80c0 -32 -27 -54 -61 -54c-18 0 -37 5 -56 19c7 11 13 27 13 41c0 19 -12 35 -50 35c-64 0 -118 -62 -140 -202l-27 -171h194v-45h-203c-24 -126 -96 -208 -151 -247 c156 -44 228 -109 323 -109c33 0 48 19 48 48c0 22 -12 45 -36 65c9 11 23 21 43 21c34 0 57 -30 57 -56c0 -81 -95 -143 -188 -143c-75 0 -164 29 -290 154c-25 -9 -63 -20 -82 -20c-45 0 -54 16 -54 31c0 20 22 35 59 35c29 0 51 -4 84 -15c35 26 83 110 94 234z" />
<glyph horiz-adv-x="702" d="M493 320c89 1 185 4 185 4l-11 -46s-89 1 -198 1l-15 -67c92 0 199 3 199 3l-11 -46s-89 1 -198 1l-16 -71c-11 -46 4 -59 43 -65l32 -5l-7 -29s-62 3 -140 3c-70 0 -138 -3 -138 -3l7 29l27 5c45 8 73 40 87 98l9 38c-71 -1 -160 -1 -185 -1l11 46c27 0 86 -3 184 -3 l15 67c-71 -1 -160 -1 -185 -1l11 46c26 0 80 -3 170 -4l-95 302c-8 27 -19 39 -54 44l-32 5l7 29s69 -3 125 -3c54 0 130 3 130 3l-7 -29l-21 -5c-20 -5 -38 -20 -38 -47c0 -7 1 -17 3 -25l78 -256l198 268c12 16 17 27 17 36c0 14 -11 21 -31 24l-29 5l7 29s61 -3 109 -3 c58 0 95 3 95 3l-7 -29l-21 -5c-43 -10 -66 -25 -91 -58z" />
<glyph horiz-adv-x="540" d="M476 714c68 0 98 -32 98 -65c0 -30 -22 -54 -53 -54c-8 0 -14 1 -14 1c0 25 -18 74 -68 74c-51 0 -88 -28 -118 -126l-59 -193h182l-10 -47h-186l-76 -249c-70 -231 -187 -305 -252 -305c-39 0 -72 24 -72 57c0 23 12 43 41 51c17 -49 42 -59 70 -59c45 0 75 42 100 138 l97 367h-96l4 14c47 4 102 28 102 28l25 95c43 162 182 273 285 273z" />
<glyph horiz-adv-x="619" d="M457 668c-157 0 -253 -236 -253 -413c0 -137 54 -225 127 -225c156 0 252 236 252 411c0 139 -55 227 -126 227zM295 -16c-112 0 -190 95 -190 252c0 234 153 478 387 478c112 0 190 -95 190 -252c0 -234 -153 -478 -387 -478z" />
<glyph horiz-adv-x="375" d="M415 714l-142 -612c-9 -41 10 -66 50 -70l37 -4l-6 -28s-75 3 -154 3c-76 0 -148 -3 -148 -3l7 28l32 4c44 5 95 37 111 107l115 499c-46 -31 -93 -46 -126 -46c-19 0 -28 10 -28 22c0 6 2 15 10 21c69 11 178 50 236 81z" />
<glyph horiz-adv-x="549" d="M39 0l-2 24l191 155c113 92 286 241 286 370c0 57 -31 110 -109 110c-79 0 -131 -51 -131 -108c0 -5 1 -12 1 -16c-12 -4 -23 -6 -32 -6c-29 0 -46 16 -46 43c0 60 92 142 238 142c117 0 176 -64 176 -149c0 -213 -319 -391 -445 -484l255 10c59 2 98 36 123 81l18 -4 l-77 -168h-446z" />
<glyph horiz-adv-x="501" d="M387 659c-71 0 -114 -53 -114 -108v-16c-12 -4 -23 -6 -32 -6c-29 0 -46 16 -46 43c0 59 80 142 229 142c89 0 137 -53 137 -114c0 -105 -94 -176 -219 -202l-1 -5c86 0 170 -57 170 -153c0 -148 -133 -256 -319 -256c-75 0 -128 30 -128 74c0 37 32 60 67 60 c10 0 16 -1 20 -3c-4 -7 -8 -15 -8 -30c0 -33 25 -58 71 -58c110 0 199 92 199 193c0 87 -78 133 -182 133c0 0 1 19 1 36c148 44 234 100 234 196c0 39 -25 74 -79 74z" />
<glyph horiz-adv-x="575" d="M591 190h-140l-25 -109c-8 -35 15 -46 39 -48l31 -3l-7 -30h-238l7 30l28 5c33 6 56 29 64 63l21 92h-287l-7 25l223 235c71 74 110 137 110 207c0 18 -3 38 -7 47c14 7 24 10 40 10c37 0 57 -34 57 -70c0 -73 -67 -140 -168 -236l-167 -158h220l34 149l90 42l-44 -191 h140z" />
<glyph horiz-adv-x="522" d="M224 27c121 0 216 103 216 217c0 84 -59 134 -143 134c-64 0 -104 -22 -104 -22l-7 4l105 340h221c58 0 86 15 115 61l15 -4l-53 -143h-287l-53 -171c14 5 50 13 82 13c144 0 210 -79 210 -178c0 -184 -176 -294 -342 -294c-75 0 -136 34 -136 83c0 38 30 64 68 64 c10 0 15 -1 20 -3c-4 -6 -11 -24 -11 -37c0 -35 30 -64 84 -64z" />
<glyph d="M227 317c-9 -23 -29 -46 -29 -130c0 -89 39 -165 115 -165c104 0 175 114 175 202c0 69 -41 131 -116 131c-51 0 -99 -29 -145 -38zM647 730l4 -30c-188 -41 -355 -186 -415 -352c48 8 109 62 195 62c89 0 158 -60 158 -156c0 -133 -128 -269 -315 -269 c-102 0 -173 76 -173 201c0 316 322 509 546 544z" />
<glyph horiz-adv-x="522" d="M230 700h422l5 -17l-230 -291c-102 -130 -171 -237 -171 -353c0 -29 2 -45 2 -45c-9 -6 -29 -10 -41 -10c-42 0 -66 31 -66 78c0 76 48 139 170 280l246 284l-273 -17c-60 -4 -102 -38 -123 -81l-18 4z" />
<glyph horiz-adv-x="526" d="M167 124c0 -59 39 -99 94 -99c77 0 152 60 152 137c0 98 -114 173 -114 173c-66 -69 -132 -113 -132 -211zM429 672c-76 0 -146 -55 -146 -132c0 -63 52 -107 116 -157c55 65 116 88 116 198c0 49 -26 91 -86 91zM602 583c0 -136 -135 -177 -179 -215c0 0 96 -65 96 -163 c0 -151 -162 -221 -266 -221c-96 0 -172 50 -172 137c0 138 130 173 193 232c-58 51 -91 89 -91 148c0 125 118 213 258 213c93 0 161 -52 161 -131z" />
<glyph d="M521 382c9 23 29 46 29 130c0 89 -38 165 -114 165c-105 0 -176 -114 -176 -202c0 -69 41 -131 116 -131c51 0 99 29 145 38zM101 -31l-4 30c188 41 355 186 415 352c-48 -8 -112 -62 -198 -62c-89 0 -155 56 -155 153c0 136 128 272 315 272c102 0 173 -76 173 -201 c0 -316 -321 -509 -546 -544z" />
<glyph horiz-adv-x="714" d="M416 349c68 80 298 355 298 355h64s-248 -286 -320 -371c-67 -80 -300 -358 -300 -358h-65s250 288 323 374zM336 678c-74 0 -103 -102 -103 -157c0 -56 25 -91 58 -91c61 0 103 78 103 156c0 46 -18 92 -58 92zM156 512c0 98 85 202 205 202c73 0 111 -52 111 -118 c0 -85 -71 -202 -205 -202c-65 0 -111 44 -111 118zM577 249c-73 0 -102 -102 -102 -157c0 -56 24 -91 58 -91c61 0 103 78 103 156c0 46 -18 92 -59 92zM398 83c0 98 85 202 205 202c73 0 111 -52 111 -118c0 -85 -71 -202 -205 -202c-65 0 -111 44 -111 118z" />
<glyph horiz-adv-x="1073" d="M936 249c-73 0 -102 -102 -102 -157c0 -56 24 -91 58 -91c61 0 103 78 103 156c0 46 -18 92 -59 92zM757 83c0 98 85 202 205 202c73 0 111 -52 111 -118c0 -85 -71 -202 -205 -202c-65 0 -111 44 -111 118zM416 349c68 80 298 355 298 355h64s-248 -286 -320 -371 c-67 -80 -300 -358 -300 -358h-65s250 288 323 374zM336 678c-74 0 -103 -102 -103 -157c0 -56 25 -91 58 -91c61 0 103 78 103 156c0 46 -18 92 -58 92zM156 512c0 98 85 202 205 202c73 0 111 -52 111 -118c0 -85 -71 -202 -205 -202c-65 0 -111 44 -111 118zM577 249 c-73 0 -102 -102 -102 -157c0 -56 24 -91 58 -91c61 0 103 78 103 156c0 46 -18 92 -59 92zM398 83c0 98 85 202 205 202c73 0 111 -52 111 -118c0 -85 -71 -202 -205 -202c-65 0 -111 44 -111 118z" />
<glyph horiz-adv-x="457" d="M199 571h59v-199h198v-59h-198v-191h-59v191h-199v59h199v199z" />
<glyph horiz-adv-x="457" d="M0 372h456v-59h-456v59z" />
<glyph horiz-adv-x="556" d="M452 120l-174 174l-174 -174l-46 46l175 172l-175 175l47 45l173 -174l173 174l48 -45l-176 -175l176 -172z" />
<glyph horiz-adv-x="456" d="M294 173c0 -38 -30 -67 -66 -67c-37 0 -66 29 -66 67c0 36 29 65 66 65c36 0 66 -29 66 -65zM294 514c0 -38 -30 -67 -66 -67c-37 0 -66 29 -66 67c0 36 29 65 66 65c36 0 66 -29 66 -65zM0 372h456v-59h-456v59z" />
<glyph horiz-adv-x="457" d="M457 211h-457v59h457v-59zM457 465v-59h-457v59h457z" />
<glyph horiz-adv-x="555" d="M489 122l-431 188v65l431 188v-69l-357 -152l357 -151v-69z" />
<glyph horiz-adv-x="545" d="M489 311l-431 -189v69l357 151l-357 152v69l431 -188v-64z" />
<glyph horiz-adv-x="456" d="M199 620h59v-141h198v-59h-198v-143h-59v143h-199v59h199v141zM0 223h456v-59h-456v59z" />
<glyph horiz-adv-x="457" d="M457 211h-242l-71 -237h-66s40 113 81 237h-159v59h179l42 136h-221v59h240l72 239h66s-39 -113 -82 -239h161v-59h-181l-43 -136h224v-59z" />
<glyph horiz-adv-x="555" d="M182 353c87 0 131 -68 206 -68c41 0 79 23 96 63l24 -17c-12 -60 -57 -110 -141 -110c-82 0 -125 65 -199 65c-41 0 -80 -20 -97 -60l-24 17c13 58 59 110 135 110zM182 504c87 0 131 -68 206 -68c41 0 79 23 96 63l24 -17c-12 -60 -57 -110 -141 -110 c-82 0 -125 65 -199 65c-41 0 -80 -20 -97 -60l-24 17c13 58 59 110 135 110z" />
<glyph horiz-adv-x="456" d="M456 228l-456 149v59l456 148v-69l-360 -109l360 -109v-69zM0 186h456v-59h-456v59z" />
<glyph horiz-adv-x="456" d="M456 377l-456 -149v69l360 109l-360 109v69l456 -148v-59zM0 186h456v-59h-456v59z" />
<glyph horiz-adv-x="626" d="M194 439l29 57h107l84 166h57l-83 -166h154l83 166h57l-83 -166h121l-29 -57h-124l-92 -182h117l-29 -58h-120l-81 -163h-56l81 163h-155l-82 -163h-57l82 163h-108l29 58h110l93 182h-105zM356 439l-93 -182h156l91 182h-154z" />
<glyph horiz-adv-x="365" d="M98 336c0 0 83 -3 161 -3c84 0 163 3 163 3l-12 -51s-76 3 -162 3c-76 0 -162 -3 -162 -3zM319 454c0 0 0 15 5 36c4 18 12 49 12 49c-47 0 -132 -24 -132 -79c0 -18 11 -31 36 -31c21 0 50 18 79 25zM257 623c-8 -4 -19 -7 -32 -7c-19 0 -37 7 -37 25c0 37 78 73 151 73 c53 0 84 -34 84 -82c0 -150 -39 -169 -39 -171c0 -20 8 -29 23 -29c20 0 33 8 33 8l3 -15s-37 -34 -77 -34c-42 0 -48 25 -48 42c-26 -5 -67 -41 -115 -41c-47 0 -69 20 -69 52c0 89 126 116 207 116c0 0 16 43 16 69c0 29 -13 47 -51 47c-43 0 -52 -20 -52 -35 c0 -9 3 -18 3 -18z" />
<glyph horiz-adv-x="427" d="M363 683c-85 0 -116 -100 -116 -165c0 -62 30 -97 71 -97c67 0 116 73 116 162c0 52 -22 100 -71 100zM173 511c0 99 90 202 215 202c77 0 120 -55 120 -121c0 -85 -74 -201 -217 -201c-68 0 -118 45 -118 120zM123 335c0 0 91 -3 169 -3c84 0 165 3 165 3l-11 -51 s-78 3 -165 3c-76 0 -169 -3 -169 -3z" />
<glyph unicode="&#xe1;" horiz-adv-x="478" d="M374 50c34 0 68 49 93 90l15 -10c-23 -54 -79 -147 -149 -147c-31 0 -52 15 -52 57c0 44 20 89 30 115h-4c-29 -60 -83 -172 -185 -172c-61 0 -88 49 -88 114c0 162 137 342 286 342c39 0 60 -17 77 -31c5 16 24 57 58 57c16 0 29 -7 38 -15c-30 -35 -138 -280 -138 -378 c0 -14 5 -22 19 -22zM159 42c84 0 180 211 208 314c-12 29 -35 45 -67 45c-104 0 -188 -153 -188 -284c0 -52 11 -75 47 -75zM531 694c0 -65 -133 -161 -205 -179l-5 13c62 63 126 144 168 207c29 0 42 -23 42 -41z" />
<glyph unicode="&#xf1;" horiz-adv-x="529" d="M398 50c25 0 65 52 86 82l15 -11c-32 -59 -89 -137 -158 -137c-24 0 -38 9 -38 38c0 27 11 70 34 136l60 171c8 23 12 38 12 50c0 11 -3 20 -15 20c-101 0 -276 -303 -276 -407c0 0 -12 -8 -36 -8c-23 0 -38 13 -38 35c0 9 2 19 5 29l91 289c3 10 7 22 7 32 c0 23 -22 28 -64 28v22s97 4 184 46c-78 -193 -106 -263 -114 -285h4c70 129 178 286 279 286c39 0 53 -18 53 -50c0 -19 -8 -57 -19 -88l-60 -170c-17 -48 -27 -78 -27 -94c0 -10 5 -14 15 -14zM367 677c61 0 74 -48 127 -48c29 0 60 14 81 51l11 -16 c-22 -56 -63 -95 -123 -95c-59 0 -70 48 -123 48c-29 0 -60 -14 -80 -51l-12 16c22 54 64 95 119 95z" />
<glyph unicode="&#xe0;" horiz-adv-x="478" d="M374 50c34 0 68 49 93 90l15 -10c-23 -54 -79 -147 -149 -147c-31 0 -52 15 -52 57c0 44 20 89 30 115h-4c-29 -60 -83 -172 -185 -172c-61 0 -88 49 -88 114c0 162 137 342 286 342c39 0 60 -17 77 -31c5 16 24 57 58 57c16 0 29 -7 38 -15c-30 -35 -138 -280 -138 -378 c0 -14 5 -22 19 -22zM159 42c84 0 180 211 208 314c-12 29 -35 45 -67 45c-104 0 -188 -153 -188 -284c0 -52 11 -75 47 -75zM238 694c0 18 13 41 42 41c42 -63 106 -144 168 -207l-5 -13c-72 18 -205 114 -205 179z" />
<glyph unicode="&#xe2;" horiz-adv-x="478" d="M374 50c34 0 68 49 93 90l15 -10c-23 -54 -79 -147 -149 -147c-31 0 -52 15 -52 57c0 44 20 89 30 115h-4c-29 -60 -83 -172 -185 -172c-61 0 -88 49 -88 114c0 162 137 342 286 342c39 0 60 -17 77 -31c5 16 24 57 58 57c16 0 29 -7 38 -15c-30 -35 -138 -280 -138 -378 c0 -14 5 -22 19 -22zM159 42c84 0 180 211 208 314c-12 29 -35 45 -67 45c-104 0 -188 -153 -188 -284c0 -52 11 -75 47 -75zM205 552l202 180s56 -114 117 -176c0 -10 -10 -28 -36 -28c-58 0 -92 94 -95 158l-132 -158z" />
<glyph unicode="&#xe4;" horiz-adv-x="478" d="M374 50c34 0 68 49 93 90l15 -10c-23 -54 -79 -147 -149 -147c-31 0 -52 15 -52 57c0 44 20 89 30 115h-4c-29 -60 -83 -172 -185 -172c-61 0 -88 49 -88 114c0 162 137 342 286 342c39 0 60 -17 77 -31c5 16 24 57 58 57c16 0 29 -7 38 -15c-30 -35 -138 -280 -138 -378 c0 -14 5 -22 19 -22zM159 42c84 0 180 211 208 314c-12 29 -35 45 -67 45c-104 0 -188 -153 -188 -284c0 -52 11 -75 47 -75zM278 556c-27 0 -44 19 -44 44c0 29 24 61 59 61c26 0 43 -19 43 -44c0 -29 -25 -61 -58 -61zM464 556c-27 0 -44 19 -44 44c0 29 24 61 59 61 c26 0 43 -19 43 -44c0 -29 -26 -61 -58 -61z" />
<glyph unicode="&#xe3;" horiz-adv-x="478" d="M374 50c34 0 68 49 93 90l15 -10c-23 -54 -79 -147 -149 -147c-31 0 -52 15 -52 57c0 44 20 89 30 115h-4c-29 -60 -83 -172 -185 -172c-61 0 -88 49 -88 114c0 162 137 342 286 342c39 0 60 -17 77 -31c5 16 24 57 58 57c16 0 29 -7 38 -15c-30 -35 -138 -280 -138 -378 c0 -14 5 -22 19 -22zM159 42c84 0 180 211 208 314c-12 29 -35 45 -67 45c-104 0 -188 -153 -188 -284c0 -52 11 -75 47 -75zM332 677c61 0 74 -48 127 -48c29 0 60 14 81 51l11 -16c-22 -56 -63 -95 -123 -95c-59 0 -70 48 -123 48c-29 0 -60 -14 -80 -51l-12 16 c22 54 64 95 119 95z" />
<glyph unicode="&#xe5;" horiz-adv-x="478" d="M374 50c34 0 68 49 93 90l15 -10c-23 -54 -79 -147 -149 -147c-31 0 -52 15 -52 57c0 44 20 89 30 115h-4c-29 -60 -83 -172 -185 -172c-61 0 -88 49 -88 114c0 162 137 342 286 342c39 0 60 -17 77 -31c5 16 24 57 58 57c16 0 29 -7 38 -15c-30 -35 -138 -280 -138 -378 c0 -14 5 -22 19 -22zM159 42c84 0 180 211 208 314c-12 29 -35 45 -67 45c-104 0 -188 -153 -188 -284c0 -52 11 -75 47 -75zM361 572c55 0 74 44 74 81c0 35 -23 55 -52 55c-52 0 -74 -42 -74 -81c0 -35 24 -55 52 -55zM402 742c46 0 80 -29 80 -77 c0 -62 -60 -127 -140 -127c-46 0 -79 28 -79 77c0 62 60 127 139 127z" />
<glyph unicode="&#xc1;" horiz-adv-x="673" d="M558 927c3 1 8 2 12 2c16 0 29 -13 29 -32c0 -56 -95 -116 -144 -131l-7 9c36 38 79 91 110 152zM441 303l-26 294l-163 -294h189zM428 705l67 11l57 -623c3 -37 19 -53 57 -59l32 -5l-7 -29s-54 3 -125 3c-72 0 -155 -3 -155 -3l7 29l21 5c50 10 78 37 74 90l-10 138 h-213l-72 -137c-14 -26 -25 -43 -25 -64c0 -16 14 -23 41 -27l32 -5l-7 -29s-72 3 -119 3c-45 0 -120 -3 -120 -3l7 29l21 5c64 15 89 54 119 107z" />
<glyph unicode="&#xc4;" horiz-adv-x="673" d="M384 792c-27 0 -44 19 -44 44c0 29 24 61 59 61c26 0 43 -19 43 -44c0 -29 -25 -61 -58 -61zM582 792c-27 0 -44 19 -44 44c0 29 24 61 59 61c26 0 43 -19 43 -44c0 -29 -26 -61 -58 -61zM441 303l-26 294l-163 -294h189zM428 705l67 11l57 -623c3 -37 19 -53 57 -59 l32 -5l-7 -29s-54 3 -125 3c-72 0 -155 -3 -155 -3l7 29l21 5c50 10 78 37 74 90l-10 138h-213l-72 -137c-14 -26 -25 -43 -25 -64c0 -16 14 -23 41 -27l32 -5l-7 -29s-72 3 -119 3c-45 0 -120 -3 -120 -3l7 29l21 5c64 15 89 54 119 107z" />
<glyph unicode="&#xc5;" horiz-adv-x="673" d="M478 784c55 0 74 44 74 81c0 35 -23 55 -52 55c-52 0 -74 -42 -74 -81c0 -35 24 -55 52 -55zM519 954c46 0 80 -29 80 -77c0 -62 -60 -127 -140 -127c-46 0 -79 28 -79 77c0 62 60 127 139 127zM441 303l-26 294l-163 -294h189zM428 705l67 11l57 -623 c3 -37 19 -53 57 -59l32 -5l-7 -29s-54 3 -125 3c-72 0 -155 -3 -155 -3l7 29l21 5c50 10 78 37 74 90l-10 138h-213l-72 -137c-14 -26 -25 -43 -25 -64c0 -16 14 -23 41 -27l32 -5l-7 -29s-72 3 -119 3c-45 0 -120 -3 -120 -3l7 29l21 5c64 15 89 54 119 107z" />
<glyph horiz-adv-x="316" d="M285 568c3 9 5 16 5 23c0 20 -13 32 -41 32c-93 0 -148 -141 -148 -237c0 -39 19 -60 51 -60c51 0 95 38 121 75l14 -10c-21 -44 -71 -113 -151 -113c-63 0 -100 33 -100 97c0 130 112 289 254 289c28 0 58 -12 58 -44c0 -31 -25 -53 -52 -53c-4 0 -8 0 -11 1z" />
<glyph horiz-adv-x="245" d="M496 861c0 -26 -25 -48 -52 -48c-12 0 -20 3 -27 6c4 7 7 16 7 25c0 17 -11 33 -58 33c-64 0 -111 -58 -149 -180l-16 -50h109l-17 -40h-104l-67 -198c-49 -146 -139 -361 -275 -361c-48 0 -65 24 -65 48c0 31 25 43 47 43h10c-3 -8 -5 -14 -5 -20c0 -20 13 -32 39 -32 c65 0 109 72 148 201l99 327h-61l6 19l66 13l7 22c44 134 143 245 267 245c62 0 91 -24 91 -53z" />
<glyph horiz-adv-x="350" d="M214 639c-62 0 -84 -99 -84 -149c0 -49 16 -70 42 -70c62 0 86 98 86 150c0 41 -13 69 -44 69zM125 112c85 0 113 41 113 74c0 35 -24 49 -78 65c-51 15 -104 31 -104 79c0 43 39 64 73 69c-33 10 -57 38 -57 85c0 88 72 180 159 180c26 0 42 -6 60 -22 c11 -3 30 -5 41 -5c21 0 41 5 56 16c6 -5 14 -14 14 -26c0 -17 -12 -32 -36 -32c-26 0 -44 19 -59 23c5 -11 8 -24 8 -48c0 -85 -65 -167 -145 -174c-28 -5 -60 -16 -60 -42c0 -21 33 -33 80 -47c79 -24 105 -55 105 -105c0 -70 -73 -121 -181 -121c-90 0 -148 41 -148 103 c0 42 28 67 60 67c19 0 33 -10 34 -21c-18 -4 -37 -19 -37 -49c0 -38 35 -69 102 -69z" />
<glyph horiz-adv-x="427" d="M297 891c-122 -319 -173 -450 -174 -456h4c57 119 136 229 227 229c58 0 74 -39 74 -63c0 -82 -89 -122 -175 -143l12 -40c23 -76 47 -104 95 -104c16 0 32 4 46 9l6 -9s-29 -36 -82 -36c-65 0 -100 37 -118 126l-12 58c56 16 165 64 165 120c0 17 -8 28 -33 28 c-101 0 -236 -242 -236 -325c0 0 -11 -7 -27 -7c-20 0 -33 13 -33 30c0 6 1 13 4 22l156 458c3 10 5 18 5 26c0 18 -17 22 -51 22v19s78 3 147 36z" />
<glyph horiz-adv-x="410" d="M282 632c-28 0 -60 -16 -60 -16l-84 -246s5 -39 52 -39c81 0 156 138 156 226c0 35 -11 75 -64 75zM261 769c13 0 19 -2 27 -5c-26 -29 -54 -113 -54 -113s28 13 72 13c68 0 104 -42 104 -99c0 -109 -110 -265 -236 -265c-28 0 -50 10 -57 20l-55 -146 c-6 -17 -12 -39 -12 -54c0 -19 10 -29 40 -34l39 -6v-21h-235v21l19 5c49 13 71 42 91 98l150 411c-47 -20 -92 -52 -92 -52l-7 22s45 34 109 65l26 79c12 38 32 61 71 61z" />
<glyph horiz-adv-x="397" d="M138 325c69 0 175 147 175 267c0 24 -12 39 -32 39c-101 0 -184 -170 -184 -256c0 -34 13 -50 41 -50zM353 636c9 30 27 44 53 44c7 0 19 -2 25 -6c-19 -23 -28 -49 -54 -122l-144 -401c-6 -18 -12 -39 -12 -55c0 -19 10 -28 40 -33l39 -7v-20h-235v20l19 6 c45 14 69 42 91 98l102 255h-4c-23 -46 -80 -137 -164 -137c-48 0 -74 27 -74 82c0 129 119 304 258 304c27 0 48 -12 60 -28z" />
<glyph horiz-adv-x="396" d="M116 612c-20 0 -52 -42 -69 -66l-12 8c25 48 71 111 126 111c19 0 31 -7 31 -31c0 -21 -9 -56 -28 -108l-48 -138c-6 -18 -9 -30 -9 -40c0 -8 2 -15 12 -15c81 0 221 242 221 325c0 0 8 7 27 7c18 0 30 -11 30 -29c0 -6 -1 -14 -4 -22l-75 -232c-2 -8 -6 -17 -6 -25 c0 -19 22 -23 56 -23v-17s-78 -3 -148 -37c63 154 85 210 92 228h-4c-56 -103 -142 -229 -223 -229c-31 0 -42 15 -42 40c0 15 6 46 15 70l48 137c14 38 22 62 22 75c0 8 -4 11 -12 11z" />
<glyph horiz-adv-x="352" d="M126 665c28 0 35 -25 35 -51c0 -61 -22 -269 -22 -269c61 0 161 129 161 221c0 25 -11 48 -36 52c5 28 26 46 50 46c32 0 52 -24 52 -55c0 -95 -105 -265 -276 -329l-10 8s15 229 17 306c0 10 -2 16 -10 16c-24 0 -42 -43 -54 -75l-13 3c4 31 37 127 106 127z" />
<glyph horiz-adv-x="403" d="M196 660c65 0 100 -55 143 -55c36 0 56 50 58 59c10 0 20 -4 20 -16c0 -44 -91 -104 -132 -136c-67 -53 -144 -93 -194 -135l4 -2c8 6 19 9 32 9c66 0 118 -64 160 -64c36 0 61 15 61 44c0 18 -13 34 -37 34c-4 0 -10 -1 -13 -2c0 32 28 47 47 47c25 0 45 -16 45 -43 c0 -50 -59 -124 -135 -124c-86 0 -115 69 -166 69c-18 0 -28 -15 -28 -29c0 -13 4 -20 10 -28c-5 -5 -14 -9 -25 -9c-16 0 -29 13 -29 30c0 47 53 83 114 125c52 35 135 86 200 144l-3 2c-7 -4 -20 -11 -38 -11c-48 0 -95 44 -138 44c-18 0 -38 -10 -38 -33 c0 -24 22 -33 45 -33c-4 -25 -23 -42 -46 -42c-28 0 -42 23 -42 43c0 65 77 112 125 112z" />
<glyph d="M431 519c46 0 87 -12 121 -32l65 69h57c-31 -29 -62 -58 -96 -91c34 -32 54 -86 54 -147c0 -162 -142 -334 -358 -334c-51 0 -96 13 -130 37l-55 -56h-57l84 80c-28 32 -45 83 -45 140c0 164 143 334 360 334zM311 22c133 0 219 139 219 285c0 35 -6 72 -15 95 c-72 -73 -166 -170 -315 -323c25 -38 64 -57 111 -57zM185 112c103 102 206 208 313 319c-25 34 -63 51 -106 51c-132 0 -217 -139 -217 -286c0 -30 3 -64 10 -84z" />
<glyph horiz-adv-x="673" d="M380 477l6 27s65 -3 132 -3c94 0 232 3 232 3l-26 -114h-18c-4 55 -47 80 -109 80c-18 0 -37 -3 -48 -7l-44 -192h54c35 0 60 19 73 56l12 35h24s-14 -45 -28 -106c-8 -36 -14 -76 -14 -76h-23v18c-2 22 -9 41 -43 41h-63l-33 -142c-10 -44 7 -65 48 -65 c85 0 138 65 161 101l17 -1l-54 -132c-165 2 -205 3 -242 3c-74 0 -109 -3 -109 -3l6 27l20 5c34 8 55 25 66 72l19 81h-133l-83 -100c-10 -12 -13 -20 -13 -29c0 -10 6 -18 21 -22l30 -7l-6 -27s-58 3 -116 3c-46 0 -81 -3 -81 -3l6 27l30 7c38 9 73 33 100 65l274 321 c9 10 16 20 16 30c0 9 -7 16 -26 20zM404 219l43 190l-156 -190h113z" />
<glyph horiz-adv-x="706" d="M426 3c-21 0 -24 0 -39 -1c-38 -11 -72 -18 -113 -18c-118 0 -203 76 -203 201c0 164 143 334 360 334c37 0 70 -9 92 -19c96 0 160 1 260 4l-26 -114h-18c-5 55 -48 80 -110 80c-18 0 -36 -3 -47 -7l-45 -192h54c35 0 61 19 74 56l12 35h23s-13 -45 -27 -106 c-8 -36 -15 -76 -15 -76h-23v18c-1 22 -8 41 -42 41h-63l-33 -142c-10 -44 7 -65 48 -65c85 0 138 65 160 101l18 -1l-54 -132c-165 2 -206 3 -243 3zM311 22c50 0 86 27 99 82l71 310c12 51 -44 68 -89 68c-132 0 -218 -139 -218 -286c0 -113 59 -174 137 -174z" />
<glyph horiz-adv-x="588" d="M148 3c-74 0 -109 -3 -109 -3l6 27l20 5c34 8 55 25 66 72l31 133c-45 -1 -86 -1 -86 -1l10 42s41 -1 85 -1l32 137c8 37 2 51 -22 56l-33 7l6 27s51 -3 118 -3c50 0 69 3 120 3c168 0 239 -90 239 -194c0 -154 -125 -310 -348 -310c-46 0 -68 3 -135 3zM303 463 l-43 -187c44 1 104 2 127 2l-10 -42c-21 0 -82 0 -127 1l-32 -140c-10 -44 9 -65 54 -65c99 0 257 59 257 263c0 108 -64 175 -163 175c-23 0 -47 -3 -63 -7z" />
<glyph horiz-adv-x="588" d="M148 3c-74 0 -109 -3 -109 -3l6 27l20 5c34 8 55 25 66 72l31 133c-45 -1 -86 -1 -86 -1l10 42s41 -1 85 -1l32 137c8 37 2 51 -22 56l-33 7l6 27s51 -3 118 -3c50 0 69 3 120 3c168 0 239 -90 239 -194c0 -154 -125 -310 -348 -310c-46 0 -68 3 -135 3zM303 463 l-43 -187c44 1 104 2 127 2l-10 -42c-21 0 -82 0 -127 1l-32 -140c-10 -44 9 -65 54 -65c99 0 257 59 257 263c0 108 -64 175 -163 175c-23 0 -47 -3 -63 -7z" />
<glyph horiz-adv-x="597" d="M597 389l-77 -331c-17 -72 -41 -112 -75 -143c-56 -51 -91 -48 -154 -96l-7 19c19 24 49 37 81 72c37 40 53 76 64 123l5 22l-218 310l-61 -266c-11 -47 0 -57 36 -65l33 -7l-6 -27s-72 3 -110 3c-35 0 -86 -3 -86 -3l6 27l20 5c36 9 57 30 69 83l67 290 c10 45 1 57 -27 65l-26 7l6 27c53 -2 97 -3 132 -3c0 -17 2 -33 20 -59l211 -298l60 260c10 45 -3 60 -31 66l-32 7l6 27s46 -3 102 -3c47 0 86 3 86 3l-6 -28l-21 -6c-35 -10 -55 -28 -67 -81z" />
<glyph horiz-adv-x="602" d="M131 104l72 310c8 37 2 51 -22 56l-33 7l6 27s51 -3 118 -3c74 0 108 3 108 3l-6 -27l-20 -5c-34 -8 -55 -25 -66 -72l-71 -310c-9 -37 -2 -51 22 -56l32 -7l-6 -27s-50 3 -117 3c-74 0 -109 -3 -109 -3l6 27l20 5c34 8 55 25 66 72zM679 504l-6 -27l-20 -5 c-34 -8 -55 -25 -66 -72l-79 -342c-17 -72 -41 -112 -75 -143c-56 -51 -91 -48 -154 -96l-7 19c19 24 49 37 81 72c37 40 51 87 62 132l86 372c9 37 2 51 -22 56l-33 7l6 27s52 -3 119 -3c74 0 108 3 108 3z" />
<glyph horiz-adv-x="562" d="M371 512l52 4l59 -412c5 -37 10 -60 42 -68l29 -7l-7 -29s-48 3 -101 3c-78 0 -124 -3 -124 -3l7 29l27 7c28 7 38 23 38 48c0 7 -1 17 -2 25l-11 73h-164l-50 -87c-6 -10 -12 -23 -12 -34c0 -12 6 -22 24 -25l34 -7l-7 -29s-43 3 -102 3c-51 0 -87 -3 -87 -3l7 29l23 7 c32 10 54 28 73 60zM351 417l-113 -198h137zM561 740c0 -65 -133 -161 -205 -179l-5 13c62 63 126 144 168 207c29 0 42 -23 42 -41z" />
<glyph horiz-adv-x="562" d="M371 512l52 4l59 -412c5 -37 10 -60 42 -68l29 -7l-7 -29s-48 3 -101 3c-78 0 -124 -3 -124 -3l7 29l27 7c28 7 38 23 38 48c0 7 -1 17 -2 25l-11 73h-164l-50 -87c-6 -10 -12 -23 -12 -34c0 -12 6 -22 24 -25l34 -7l-7 -29s-43 3 -102 3c-51 0 -87 -3 -87 -3l7 29l23 7 c32 10 54 28 73 60zM351 417l-113 -198h137zM570 744h28c-22 -96 -87 -155 -176 -155c-72 0 -115 38 -115 107c0 15 2 30 6 48h68c-3 -12 -4 -23 -4 -33c0 -41 23 -66 70 -66c61 0 109 38 123 99z" />
<glyph horiz-adv-x="562" d="M371 512l52 4l59 -412c5 -37 10 -60 42 -68l29 -7l-7 -29s-48 3 -101 3c-78 0 -124 -3 -124 -3l7 29l27 7c28 7 38 23 38 48c0 7 -1 17 -2 25l-11 73h-164l-50 -87c-6 -10 -12 -23 -12 -34c0 -12 6 -22 24 -25l34 -7l-7 -29s-43 3 -102 3c-51 0 -87 -3 -87 -3l7 29l23 7 c32 10 54 28 73 60zM351 417l-113 -198h137zM255 598l202 180s56 -114 117 -176c0 -10 -10 -28 -36 -28c-58 0 -92 94 -95 158l-132 -158z" />
<glyph horiz-adv-x="562" d="M371 512l52 4l59 -412c5 -37 10 -60 42 -68l29 -7l-7 -29s-48 3 -101 3c-78 0 -124 -3 -124 -3l7 29l27 7c28 7 38 23 38 48c0 7 -1 17 -2 25l-11 73h-164l-50 -87c-6 -10 -12 -23 -12 -34c0 -12 6 -22 24 -25l34 -7l-7 -29s-43 3 -102 3c-51 0 -87 -3 -87 -3l7 29l23 7 c32 10 54 28 73 60zM351 417l-113 -198h137zM325 602c-27 0 -44 19 -44 44c0 29 24 61 59 61c26 0 43 -19 43 -44c0 -29 -25 -61 -58 -61zM511 602c-27 0 -44 19 -44 44c0 29 24 61 59 61c26 0 43 -19 43 -44c0 -29 -26 -61 -58 -61z" />
<glyph horiz-adv-x="562" d="M371 512l52 4l59 -412c5 -37 10 -60 42 -68l29 -7l-7 -29s-48 3 -101 3c-78 0 -124 -3 -124 -3l7 29l27 7c28 7 38 23 38 48c0 7 -1 17 -2 25l-11 73h-164l-50 -87c-6 -10 -12 -23 -12 -34c0 -12 6 -22 24 -25l34 -7l-7 -29s-43 3 -102 3c-51 0 -87 -3 -87 -3l7 29l23 7 c32 10 54 28 73 60zM351 417l-113 -198h137zM244 740c0 18 13 41 42 41c42 -63 106 -144 168 -207l-5 -13c-72 18 -205 114 -205 179z" />
<glyph horiz-adv-x="562" d="M371 512l52 4l59 -412c5 -37 10 -60 42 -68l29 -7l-7 -29s-48 3 -101 3c-78 0 -124 -3 -124 -3l7 29l27 7c28 7 38 23 38 48c0 7 -1 17 -2 25l-11 73h-164l-50 -87c-6 -10 -12 -23 -12 -34c0 -12 6 -22 24 -25l34 -7l-7 -29s-43 3 -102 3c-51 0 -87 -3 -87 -3l7 29l23 7 c32 10 54 28 73 60zM351 417l-113 -198h137zM286 643c0 0 71 -3 136 -3c71 0 136 3 136 3l-12 -55s-63 3 -136 3c-63 0 -136 -3 -136 -3z" />
<glyph horiz-adv-x="562" d="M371 512l52 4l59 -412c5 -37 10 -60 42 -68l29 -7l-7 -29c-77 -56 -116 -104 -116 -149c0 -28 17 -45 52 -45c24 0 44 11 52 19c6 -3 9 -10 9 -17c0 -17 -31 -54 -105 -54c-50 0 -83 25 -83 71c0 89 110 152 159 176c-19 1 -42 2 -69 2c-78 0 -124 -3 -124 -3l7 29l27 7 c28 7 38 23 38 48c0 7 -1 17 -2 25l-11 73h-164l-50 -87c-6 -10 -12 -23 -12 -34c0 -12 6 -22 24 -25l34 -7l-7 -29s-43 3 -102 3c-51 0 -87 -3 -87 -3l7 29l23 7c32 10 54 28 73 60zM351 417l-113 -198h137z" />
<glyph horiz-adv-x="562" d="M371 512l52 4l59 -412c5 -37 10 -60 42 -68l29 -7l-7 -29s-48 3 -101 3c-78 0 -124 -3 -124 -3l7 29l27 7c28 7 38 23 38 48c0 7 -1 17 -2 25l-11 73h-164l-50 -87c-6 -10 -12 -23 -12 -34c0 -12 6 -22 24 -25l34 -7l-7 -29s-43 3 -102 3c-51 0 -87 -3 -87 -3l7 29l23 7 c32 10 54 28 73 60zM351 417l-113 -198h137zM430 618c55 0 74 44 74 81c0 35 -23 55 -52 55c-52 0 -74 -42 -74 -81c0 -35 24 -55 52 -55zM471 788c46 0 80 -29 80 -77c0 -62 -60 -127 -140 -127c-46 0 -79 28 -79 77c0 62 60 127 139 127z" />
<glyph horiz-adv-x="562" d="M448 686c46 0 80 -29 80 -77c0 -52 -43 -104 -102 -122l56 -383c5 -37 10 -60 42 -68l29 -7l-7 -29s-48 3 -101 3c-78 0 -124 -3 -124 -3l7 29l27 7c28 7 38 23 38 48c0 7 -1 17 -2 25l-11 73h-164l-50 -87c-7 -13 -12 -23 -12 -34c0 -12 6 -22 24 -25l34 -7l-7 -29 s-43 3 -102 3c-51 0 -87 -3 -87 -3l7 29l23 7c32 10 54 28 73 60l236 391c-28 10 -46 35 -46 72c0 62 60 127 139 127zM351 417l-113 -198h137zM407 516c55 0 75 44 75 81c0 35 -24 55 -52 55c-52 0 -75 -42 -75 -81c0 -35 24 -55 52 -55zM513 877c3 1 8 2 12 2 c16 0 29 -13 29 -32c0 -56 -95 -116 -144 -131l-7 9c36 38 79 91 110 152z" />
<glyph horiz-adv-x="562" d="M371 512l52 4l59 -412c5 -37 10 -60 42 -68l29 -7l-7 -29s-48 3 -101 3c-78 0 -124 -3 -124 -3l7 29l27 7c28 7 38 23 38 48c0 7 -1 17 -2 25l-11 73h-164l-50 -87c-6 -10 -12 -23 -12 -34c0 -12 6 -22 24 -25l34 -7l-7 -29s-43 3 -102 3c-51 0 -87 -3 -87 -3l7 29l23 7 c32 10 54 28 73 60zM351 417l-113 -198h137zM384 723c61 0 74 -48 127 -48c29 0 60 14 81 51l11 -16c-22 -56 -63 -95 -123 -95c-59 0 -70 48 -123 48c-29 0 -60 -14 -80 -51l-12 16c22 54 64 95 119 95z" />
<glyph horiz-adv-x="673" d="M380 477l6 27s65 -3 132 -3c94 0 232 3 232 3l-26 -114h-18c-4 55 -47 80 -109 80c-18 0 -37 -3 -48 -7l-44 -192h54c35 0 60 19 73 56l12 35h24s-14 -45 -28 -106c-8 -36 -14 -76 -14 -76h-23v18c-2 22 -9 41 -43 41h-63l-33 -142c-10 -44 7 -65 48 -65 c85 0 138 65 161 101l17 -1l-54 -132c-165 2 -205 3 -242 3c-74 0 -109 -3 -109 -3l6 27l20 5c34 8 55 25 66 72l19 81h-133l-83 -100c-10 -12 -13 -20 -13 -29c0 -10 6 -18 21 -22l30 -7l-6 -27s-58 3 -116 3c-46 0 -81 -3 -81 -3l6 27l30 7c38 9 73 33 100 65l274 321 c9 10 16 20 16 30c0 9 -7 16 -26 20zM404 219l43 190l-156 -190h113zM472 643c0 0 71 -3 136 -3c71 0 136 3 136 3l-12 -55s-63 3 -136 3c-63 0 -136 -3 -136 -3z" />
<glyph horiz-adv-x="673" d="M380 477l6 27s65 -3 132 -3c94 0 232 3 232 3l-26 -114h-18c-4 55 -47 80 -109 80c-18 0 -37 -3 -48 -7l-44 -192h54c35 0 60 19 73 56l12 35h24s-14 -45 -28 -106c-8 -36 -14 -76 -14 -76h-23v18c-2 22 -9 41 -43 41h-63l-33 -142c-10 -44 7 -65 48 -65 c85 0 138 65 161 101l17 -1l-54 -132c-165 2 -205 3 -242 3c-74 0 -109 -3 -109 -3l6 27l20 5c34 8 55 25 66 72l19 81h-133l-83 -100c-10 -12 -13 -20 -13 -29c0 -10 6 -18 21 -22l30 -7l-6 -27s-58 3 -116 3c-46 0 -81 -3 -81 -3l6 27l30 7c38 9 73 33 100 65l274 321 c9 10 16 20 16 30c0 9 -7 16 -26 20zM404 219l43 190l-156 -190h113zM748 740c0 -65 -133 -161 -205 -179l-5 13c62 63 126 144 168 207c29 0 42 -23 42 -41z" />
<glyph horiz-adv-x="537" d="M605 501l-27 -118h-22c-5 58 -55 99 -143 99c-128 0 -237 -110 -237 -278c0 -119 73 -183 160 -183c81 0 140 43 169 105l23 -3l-40 -111c-61 0 -96 -28 -183 -28c-129 0 -234 59 -234 198c0 180 171 337 364 337c77 0 99 -18 170 -18zM631 740 c0 -65 -133 -161 -205 -179l-5 13c62 63 126 144 168 207c29 0 42 -23 42 -41z" />
<glyph horiz-adv-x="537" d="M605 501l-27 -118h-22c-5 58 -55 99 -143 99c-128 0 -237 -110 -237 -278c0 -119 73 -183 160 -183c81 0 140 43 169 105l23 -3l-40 -111c-61 0 -96 -28 -183 -28c-129 0 -234 59 -234 198c0 180 171 337 364 337c77 0 99 -18 170 -18zM465 579l-117 176l66 23l61 -153 c28 58 96 153 155 153c26 0 38 -15 38 -26c-94 -65 -203 -173 -203 -173z" />
<glyph horiz-adv-x="537" d="M605 501l-27 -118h-22c-5 58 -55 99 -143 99c-128 0 -237 -110 -237 -278c0 -119 73 -183 160 -183c81 0 140 43 169 105l23 -3l-40 -111c-61 0 -96 -28 -183 -28c-8 0 -16 0 -23 1c-13 -11 -24 -26 -24 -44c0 -34 54 -43 54 -85c0 -67 -86 -103 -136 -103 c-38 0 -64 17 -64 43c0 27 24 43 45 43c7 0 14 -2 17 -5c-9 -6 -17 -16 -17 -28s8 -26 37 -26c27 0 57 21 57 48c0 37 -43 43 -43 90c0 29 27 56 52 69c-108 13 -189 72 -189 195c0 180 171 337 364 337c77 0 99 -18 170 -18z" />
<glyph horiz-adv-x="537" d="M605 501l-27 -118h-22c-5 58 -55 99 -143 99c-128 0 -237 -110 -237 -278c0 -119 73 -183 160 -183c81 0 140 43 169 105l23 -3l-40 -111c-61 0 -96 -28 -183 -28c-129 0 -234 59 -234 198c0 180 171 337 364 337c77 0 99 -18 170 -18zM312 598l202 180s56 -114 117 -176 c0 -10 -10 -28 -36 -28c-58 0 -92 94 -95 158l-132 -158z" />
<glyph horiz-adv-x="537" d="M605 501l-27 -118h-22c-5 58 -55 99 -143 99c-128 0 -237 -110 -237 -278c0 -119 73 -183 160 -183c81 0 140 43 169 105l23 -3l-40 -111c-61 0 -96 -28 -183 -28c-129 0 -234 59 -234 198c0 180 171 337 364 337c77 0 99 -18 170 -18zM461 610c-25 0 -42 18 -42 43 c0 29 24 61 57 61c25 0 42 -18 42 -43c0 -29 -24 -61 -57 -61z" />
<glyph horiz-adv-x="588" d="M302 463l-84 -366c-10 -44 9 -65 54 -65c99 0 257 39 257 263c0 108 -64 175 -163 175c-23 0 -47 -3 -64 -7zM148 3c-74 0 -109 -3 -109 -3l6 27l20 5c34 8 55 25 66 72l72 310c8 37 2 51 -22 56l-33 7l6 27s51 -3 118 -3c50 0 69 3 120 3c168 0 239 -90 239 -194 c0 -178 -135 -310 -348 -310c-46 0 -68 3 -135 3zM430 579l-117 176l66 23l61 -153c28 58 96 153 155 153c26 0 38 -15 38 -26c-94 -65 -203 -173 -203 -173z" />
<glyph horiz-adv-x="427" d="M148 3c-74 0 -109 -3 -109 -3l6 27l20 5c34 8 55 25 66 72l72 310c8 37 2 51 -22 56l-33 7l6 27s51 -3 118 -3c94 0 232 3 232 3l-26 -114h-18c-4 55 -47 80 -109 80c-18 0 -37 -3 -48 -7l-44 -192h54c35 0 60 19 73 56l12 35h24s-14 -45 -28 -106 c-8 -36 -14 -76 -14 -76h-23v18c-2 22 -9 41 -43 41h-63l-33 -142c-10 -44 7 -65 48 -65c85 0 138 65 161 101l17 -1l-54 -132c-165 2 -205 3 -242 3zM535 740c0 -65 -133 -161 -205 -179l-5 13c62 63 126 144 168 207c29 0 42 -23 42 -41z" />
<glyph horiz-adv-x="427" d="M148 3c-74 0 -109 -3 -109 -3l6 27l20 5c34 8 55 25 66 72l72 310c8 37 2 51 -22 56l-33 7l6 27s51 -3 118 -3c94 0 232 3 232 3l-26 -114h-18c-4 55 -47 80 -109 80c-18 0 -37 -3 -48 -7l-44 -192h54c35 0 60 19 73 56l12 35h24s-14 -45 -28 -106 c-8 -36 -14 -76 -14 -76h-23v18c-2 22 -9 41 -43 41h-63l-33 -142c-10 -44 7 -65 48 -65c85 0 138 65 161 101l17 -1l-54 -132c-165 2 -205 3 -242 3zM529 744h28c-22 -96 -87 -155 -176 -155c-72 0 -115 38 -115 107c0 15 2 30 6 48h68c-3 -12 -4 -23 -4 -33 c0 -41 23 -66 70 -66c61 0 109 38 123 99z" />
<glyph horiz-adv-x="427" d="M148 3c-74 0 -109 -3 -109 -3l6 27l20 5c34 8 55 25 66 72l72 310c8 37 2 51 -22 56l-33 7l6 27s51 -3 118 -3c94 0 232 3 232 3l-26 -114h-18c-4 55 -47 80 -109 80c-18 0 -37 -3 -48 -7l-44 -192h54c35 0 60 19 73 56l12 35h24s-14 -45 -28 -106 c-8 -36 -14 -76 -14 -76h-23v18c-2 22 -9 41 -43 41h-63l-33 -142c-10 -44 7 -65 48 -65c85 0 138 65 161 101l17 -1l-54 -132c-165 2 -205 3 -242 3zM379 579l-117 176l66 23l61 -153c28 58 96 153 155 153c26 0 38 -15 38 -26c-94 -65 -203 -173 -203 -173z" />
<glyph horiz-adv-x="427" d="M148 3c-74 0 -109 -3 -109 -3l6 27l20 5c34 8 55 25 66 72l72 310c8 37 2 51 -22 56l-33 7l6 27s51 -3 118 -3c94 0 232 3 232 3l-26 -114h-18c-4 55 -47 80 -109 80c-18 0 -37 -3 -48 -7l-44 -192h54c35 0 60 19 73 56l12 35h24s-14 -45 -28 -106 c-8 -36 -14 -76 -14 -76h-23v18c-2 22 -9 41 -43 41h-63l-33 -142c-10 -44 7 -65 48 -65c85 0 138 65 161 101l17 -1l-54 -132c-165 2 -205 3 -242 3zM211 598l202 180s56 -114 117 -176c0 -10 -10 -28 -36 -28c-58 0 -92 94 -95 158l-132 -158z" />
<glyph horiz-adv-x="427" d="M148 3c-74 0 -109 -3 -109 -3l6 27l20 5c34 8 55 25 66 72l72 310c8 37 2 51 -22 56l-33 7l6 27s51 -3 118 -3c94 0 232 3 232 3l-26 -114h-18c-4 55 -47 80 -109 80c-18 0 -37 -3 -48 -7l-44 -192h54c35 0 60 19 73 56l12 35h24s-14 -45 -28 -106 c-8 -36 -14 -76 -14 -76h-23v18c-2 22 -9 41 -43 41h-63l-33 -142c-10 -44 7 -65 48 -65c85 0 138 65 161 101l17 -1l-54 -132c-165 2 -205 3 -242 3zM279 602c-27 0 -44 19 -44 44c0 29 24 61 59 61c26 0 43 -19 43 -44c0 -29 -25 -61 -58 -61zM465 602 c-27 0 -44 19 -44 44c0 29 24 61 59 61c26 0 43 -19 43 -44c0 -29 -26 -61 -58 -61z" />
<glyph horiz-adv-x="427" d="M148 3c-74 0 -109 -3 -109 -3l6 27l20 5c34 8 55 25 66 72l72 310c8 37 2 51 -22 56l-33 7l6 27s51 -3 118 -3c94 0 232 3 232 3l-26 -114h-18c-4 55 -47 80 -109 80c-18 0 -37 -3 -48 -7l-44 -192h54c35 0 60 19 73 56l12 35h24s-14 -45 -28 -106 c-8 -36 -14 -76 -14 -76h-23v18c-2 22 -9 41 -43 41h-63l-33 -142c-10 -44 7 -65 48 -65c85 0 138 65 161 101l17 -1l-54 -132c-165 2 -205 3 -242 3zM378 610c-25 0 -42 18 -42 43c0 29 24 61 57 61c25 0 42 -18 42 -43c0 -29 -24 -61 -57 -61z" />
<glyph horiz-adv-x="427" d="M148 3c-74 0 -109 -3 -109 -3l6 27l20 5c34 8 55 25 66 72l72 310c8 37 2 51 -22 56l-33 7l6 27s51 -3 118 -3c94 0 232 3 232 3l-26 -114h-18c-4 55 -47 80 -109 80c-18 0 -37 -3 -48 -7l-44 -192h54c35 0 60 19 73 56l12 35h24s-14 -45 -28 -106 c-8 -36 -14 -76 -14 -76h-23v18c-2 22 -9 41 -43 41h-63l-33 -142c-10 -44 7 -65 48 -65c85 0 138 65 161 101l17 -1l-54 -132c-165 2 -205 3 -242 3zM213 740c0 18 13 41 42 41c42 -63 106 -144 168 -207l-5 -13c-72 18 -205 114 -205 179z" />
<glyph horiz-adv-x="427" d="M148 3c-74 0 -109 -3 -109 -3l6 27l20 5c34 8 55 25 66 72l72 310c8 37 2 51 -22 56l-33 7l6 27s51 -3 118 -3c94 0 232 3 232 3l-26 -114h-18c-4 55 -47 80 -109 80c-18 0 -37 -3 -48 -7l-44 -192h54c35 0 60 19 73 56l12 35h24s-14 -45 -28 -106 c-8 -36 -14 -76 -14 -76h-23v18c-2 22 -9 41 -43 41h-63l-33 -142c-10 -44 7 -65 48 -65c85 0 138 65 161 101l17 -1l-54 -132c-165 2 -205 3 -242 3zM251 643c0 0 71 -3 136 -3c71 0 136 3 136 3l-12 -55s-63 3 -136 3c-63 0 -136 -3 -136 -3z" />
<glyph horiz-adv-x="427" d="M148 3c-74 0 -109 -3 -109 -3l6 27l20 5c34 8 55 25 66 72l72 310c8 37 2 51 -22 56l-33 7l6 27s51 -3 118 -3c94 0 232 3 232 3l-26 -114h-18c-4 55 -47 80 -109 80c-18 0 -37 -3 -48 -7l-44 -192h54c35 0 60 19 73 56l12 35h24s-14 -45 -28 -106 c-8 -36 -14 -76 -14 -76h-23v18c-2 22 -9 41 -43 41h-63l-33 -142c-10 -44 7 -65 48 -65c85 0 138 65 161 101l17 -1l-54 -132c-77 -56 -116 -104 -116 -149c0 -28 17 -45 52 -45c24 0 44 11 52 19c6 -3 9 -10 9 -17c0 -17 -31 -54 -105 -54c-50 0 -83 25 -83 71 c0 87 106 149 156 175c-136 2 -173 3 -207 3z" />
<glyph horiz-adv-x="561" d="M605 501l-27 -118h-22c-8 68 -60 99 -136 99c-125 0 -244 -106 -244 -278c0 -119 73 -182 160 -182c48 0 82 19 90 54l14 61c8 34 -5 43 -27 49l-26 7l6 27h206l-6 -27l-19 -5c-30 -8 -43 -30 -51 -64l-26 -112c-62 0 -105 -28 -192 -28c-129 0 -234 59 -234 198 c0 180 171 337 364 337c77 0 104 -18 170 -18zM604 744h28c-22 -96 -87 -155 -176 -155c-72 0 -115 38 -115 107c0 15 2 30 6 48h68c-3 -12 -4 -23 -4 -33c0 -41 23 -66 70 -66c61 0 109 38 123 99z" />
<glyph horiz-adv-x="561" d="M605 501l-27 -118h-22c-8 68 -60 99 -136 99c-125 0 -244 -106 -244 -278c0 -119 73 -182 160 -182c48 0 82 19 90 54l14 61c8 34 -5 43 -27 49l-26 7l6 27h206l-6 -27l-19 -5c-30 -8 -43 -30 -51 -64l-26 -112c-62 0 -105 -28 -192 -28c-129 0 -234 59 -234 198 c0 180 171 337 364 337c77 0 104 -18 170 -18zM293 598l202 180s56 -114 117 -176c0 -10 -10 -28 -36 -28c-58 0 -92 94 -95 158l-132 -158z" />
<glyph horiz-adv-x="561" d="M605 501l-27 -118h-22c-8 68 -60 99 -136 99c-125 0 -244 -106 -244 -278c0 -119 73 -182 160 -182c48 0 82 19 90 54l14 61c8 34 -5 43 -27 49l-26 7l6 27h206l-6 -27l-19 -5c-30 -8 -43 -30 -51 -64l-26 -112c-62 0 -105 -28 -192 -28c-129 0 -234 59 -234 198 c0 180 171 337 364 337c77 0 104 -18 170 -18zM277 -62c32 0 55 -21 55 -55c0 -93 -109 -153 -190 -163l-2 18c62 16 96 56 96 91c0 20 -11 38 -35 48c8 35 38 61 76 61z" />
<glyph horiz-adv-x="561" d="M605 501l-27 -118h-22c-8 68 -60 99 -136 99c-125 0 -244 -106 -244 -278c0 -119 73 -182 160 -182c48 0 82 19 90 54l14 61c8 34 -5 43 -27 49l-26 7l6 27h206l-6 -27l-19 -5c-30 -8 -43 -30 -51 -64l-26 -112c-62 0 -105 -28 -192 -28c-129 0 -234 59 -234 198 c0 180 171 337 364 337c77 0 104 -18 170 -18zM461 610c-25 0 -42 18 -42 43c0 29 24 61 57 61c25 0 42 -18 42 -43c0 -29 -24 -61 -57 -61z" />
<glyph horiz-adv-x="662" d="M429 387l127 1l6 26c9 37 2 51 -22 56l-33 7l6 27s51 -3 118 -3c74 0 108 3 108 3l-6 -27l-20 -5c-34 -8 -56 -25 -66 -72l-2 -10h68l-9 -40h-68l-60 -260c-9 -37 -2 -51 22 -56l32 -7l-6 -27s-50 3 -117 3c-74 0 -109 -3 -109 -3l6 27l20 5c34 8 55 25 66 72l32 138 h-270l-35 -152c-9 -37 -2 -51 22 -56l32 -7l-6 -27s-50 3 -117 3c-74 0 -109 -3 -109 -3l6 27l20 5c34 8 55 25 66 72l57 247c-28 -1 -52 -1 -70 -1l9 40c17 -1 42 -2 70 -2l6 26c9 37 2 51 -22 56l-33 7l6 27s51 -3 118 -3c74 0 108 3 108 3l-6 -27l-20 -5 c-34 -8 -55 -25 -66 -72l-3 -13h144zM260 279h270l17 72s-101 2 -126 2s-83 -1 -144 -1z" />
<glyph horiz-adv-x="662" d="M490 104l32 138h-270l-35 -152c-9 -37 -2 -51 22 -56l32 -7l-6 -27s-50 3 -117 3c-74 0 -109 -3 -109 -3l6 27l20 5c34 8 55 25 66 72l72 310c8 37 2 51 -22 56l-33 7l6 27s51 -3 118 -3c74 0 108 3 108 3l-6 -27l-20 -5c-34 -8 -55 -25 -66 -72l-28 -121h271l31 135 c9 37 2 51 -22 56l-33 7l6 27s51 -3 118 -3c74 0 108 3 108 3l-6 -27l-20 -5c-34 -8 -55 -25 -66 -72l-71 -310c-9 -37 -2 -51 22 -56l32 -7l-6 -27s-50 3 -117 3c-74 0 -109 -3 -109 -3l6 27l20 5c34 8 55 25 66 72zM322 598l202 180s56 -114 117 -176 c0 -10 -10 -28 -36 -28c-58 0 -92 94 -95 158l-132 -158z" />
<glyph horiz-adv-x="303" d="M131 104l72 310c8 37 2 51 -22 56l-33 7l6 27s51 -3 118 -3c74 0 108 3 108 3l-6 -27l-20 -5c-34 -8 -55 -25 -66 -72l-71 -310c-9 -37 -2 -51 22 -56l32 -7l-6 -27s-50 3 -117 3c-74 0 -109 -3 -109 -3l6 27l20 5c34 8 55 25 66 72zM299 610c-25 0 -42 18 -42 43 c0 29 24 61 57 61c25 0 42 -18 42 -43c0 -29 -24 -61 -57 -61z" />
<glyph horiz-adv-x="303" d="M131 104l72 310c8 37 2 51 -22 56l-33 7l6 27s51 -3 118 -3c74 0 108 3 108 3l-6 -27l-20 -5c-34 -8 -55 -25 -66 -72l-71 -310c-9 -37 -2 -51 22 -56l32 -7l-6 -27s-50 3 -117 3c-74 0 -109 -3 -109 -3l6 27l20 5c34 8 55 25 66 72zM464 740c0 -65 -133 -161 -205 -179 l-5 13c62 63 126 144 168 207c29 0 42 -23 42 -41z" />
<glyph horiz-adv-x="303" d="M131 104l72 310c8 37 2 51 -22 56l-33 7l6 27s51 -3 118 -3c74 0 108 3 108 3l-6 -27l-20 -5c-34 -8 -55 -25 -66 -72l-71 -310c-9 -37 -2 -51 22 -56l32 -7l-6 -27s-50 3 -117 3c-74 0 -109 -3 -109 -3l6 27l20 5c34 8 55 25 66 72zM445 744h28 c-22 -96 -87 -155 -176 -155c-72 0 -115 38 -115 107c0 15 2 30 6 48h68c-3 -12 -4 -23 -4 -33c0 -41 23 -66 70 -66c61 0 109 38 123 99z" />
<glyph horiz-adv-x="303" d="M131 104l72 310c8 37 2 51 -22 56l-33 7l6 27s51 -3 118 -3c74 0 108 3 108 3l-6 -27l-20 -5c-34 -8 -55 -25 -66 -72l-71 -310c-9 -37 -2 -51 22 -56l32 -7l-6 -27s-50 3 -117 3c-74 0 -109 -3 -109 -3l6 27l20 5c34 8 55 25 66 72zM137 598l202 180s56 -114 117 -176 c0 -10 -10 -28 -36 -28c-58 0 -92 94 -95 158l-132 -158z" />
<glyph horiz-adv-x="303" d="M131 104l72 310c8 37 2 51 -22 56l-33 7l6 27s51 -3 118 -3c74 0 108 3 108 3l-6 -27l-20 -5c-34 -8 -55 -25 -66 -72l-71 -310c-9 -37 -2 -51 22 -56l32 -7l-6 -27s-50 3 -117 3c-74 0 -109 -3 -109 -3l6 27l20 5c34 8 55 25 66 72zM199 602c-27 0 -44 19 -44 44 c0 29 24 61 59 61c26 0 43 -19 43 -44c0 -29 -25 -61 -58 -61zM385 602c-27 0 -44 19 -44 44c0 29 24 61 59 61c26 0 43 -19 43 -44c0 -29 -26 -61 -58 -61z" />
<glyph horiz-adv-x="303" d="M131 104l72 310c8 37 2 51 -22 56l-33 7l6 27s51 -3 118 -3c74 0 108 3 108 3l-6 -27l-20 -5c-34 -8 -55 -25 -66 -72l-71 -310c-9 -37 -2 -51 22 -56l32 -7l-6 -27s-50 3 -117 3c-74 0 -109 -3 -109 -3l6 27l20 5c34 8 55 25 66 72zM127 740c0 18 13 41 42 41 c42 -63 106 -144 168 -207l-5 -13c-72 18 -205 114 -205 179z" />
<glyph horiz-adv-x="303" d="M131 104l72 310c8 37 2 51 -22 56l-33 7l6 27s51 -3 118 -3c74 0 108 3 108 3l-6 -27l-20 -5c-34 -8 -55 -25 -66 -72l-71 -310c-9 -37 -2 -51 22 -56l32 -7l-6 -27s-50 3 -117 3c-74 0 -109 -3 -109 -3l6 27l20 5c34 8 55 25 66 72zM170 643c0 0 71 -3 136 -3 c71 0 136 3 136 3l-12 -55s-63 3 -136 3c-63 0 -136 -3 -136 -3z" />
<glyph horiz-adv-x="303" d="M131 104l72 310c8 37 2 51 -22 56l-33 7l6 27s51 -3 118 -3c74 0 108 3 108 3l-6 -27l-20 -5c-34 -8 -55 -25 -66 -72l-71 -310c-9 -37 -2 -51 22 -56l32 -7l-6 -27c-77 -56 -116 -104 -116 -149c0 -28 17 -45 52 -45c24 0 44 11 52 19c6 -3 9 -10 9 -17 c0 -17 -30 -54 -105 -54c-50 0 -83 25 -83 71c0 89 109 152 159 176c-22 1 -50 2 -85 2c-74 0 -109 -3 -109 -3l6 27l20 5c34 8 55 25 66 72z" />
<glyph horiz-adv-x="303" d="M131 104l72 310c8 37 2 51 -22 56l-33 7l6 27s51 -3 118 -3c74 0 108 3 108 3l-6 -27l-20 -5c-34 -8 -55 -25 -66 -72l-71 -310c-9 -37 -2 -51 22 -56l32 -7l-6 -27s-50 3 -117 3c-74 0 -109 -3 -109 -3l6 27l20 5c34 8 55 25 66 72zM253 723c61 0 74 -48 127 -48 c29 0 60 14 81 51l11 -16c-22 -56 -63 -95 -123 -95c-59 0 -70 48 -123 48c-29 0 -60 -14 -80 -51l-12 16c22 54 64 95 119 95z" />
<glyph horiz-adv-x="304" d="M290 400l-79 -342c-17 -72 -41 -112 -75 -143c-56 -51 -91 -48 -154 -96l-8 19c20 24 50 37 82 72c37 40 51 87 61 132l86 372c9 37 2 51 -22 56l-32 7l6 27s51 -3 118 -3c74 0 109 3 109 3l-6 -27l-21 -5c-34 -8 -54 -25 -65 -72zM130 598l202 180s56 -114 117 -176 c0 -10 -10 -28 -36 -28c-58 0 -92 94 -95 158l-132 -158z" />
<glyph horiz-adv-x="562" d="M131 104l72 310c8 37 2 51 -22 56l-33 7l6 27s51 -3 118 -3c74 0 108 3 108 3l-6 -27l-20 -5c-34 -8 -55 -25 -66 -72l-29 -127h48l155 151c10 9 17 21 17 30c0 8 -5 16 -17 18l-26 5l6 27s52 -3 109 -3c41 0 93 3 93 3l-6 -27l-30 -5c-40 -7 -70 -25 -101 -58l-126 -119 l81 -203c20 -51 50 -73 87 -73c13 0 22 3 22 3l-6 -27s-23 -11 -63 -11c-55 0 -113 20 -136 92l-40 126c-10 31 -29 43 -51 43c-10 0 -18 -2 -23 -4l-35 -151c-9 -37 -2 -51 22 -56l32 -7l-6 -27s-50 3 -117 3c-74 0 -109 -3 -109 -3l6 27l20 5c34 8 55 25 66 72zM276 -62 c32 0 55 -21 55 -55c0 -93 -109 -153 -190 -163l-2 18c62 16 96 56 96 91c0 20 -11 38 -35 48c8 35 38 61 76 61z" />
<glyph horiz-adv-x="410" d="M148 3c-74 0 -109 -3 -109 -3l6 27l20 5c34 8 55 25 66 72l72 310c8 37 2 51 -22 56l-33 7l6 27s51 -3 118 -3c74 0 108 3 108 3l-6 -27l-20 -5c-34 -8 -55 -25 -66 -72l-71 -310c-9 -37 -4 -60 41 -60c75 0 124 62 154 118l22 -1l-55 -147s-138 3 -231 3zM448 740 c0 -65 -133 -161 -205 -179l-5 13c62 63 126 144 168 207c29 0 42 -23 42 -41z" />
<glyph horiz-adv-x="410" d="M497 597c32 0 54 -23 54 -60c0 -93 -100 -140 -190 -158l-1 18c61 16 96 56 96 91c0 20 -11 38 -35 48c8 35 38 61 76 61zM148 3c-74 0 -109 -3 -109 -3l6 27l20 5c34 8 55 25 66 72l72 310c8 37 2 51 -22 56l-33 7l6 27s51 -3 118 -3c74 0 108 3 108 3l-6 -27l-20 -5 c-34 -8 -55 -25 -66 -72l-71 -310c-9 -37 -4 -60 41 -60c75 0 124 62 154 118l22 -1l-55 -147s-138 3 -231 3z" />
<glyph horiz-adv-x="410" d="M198 -62c32 0 55 -21 55 -55c0 -93 -109 -153 -190 -163l-2 18c62 16 96 56 96 91c0 20 -11 38 -35 48c8 35 38 61 76 61zM148 3c-74 0 -109 -3 -109 -3l6 27l20 5c34 8 55 25 66 72l72 310c8 37 2 51 -22 56l-33 7l6 27s51 -3 118 -3c74 0 108 3 108 3l-6 -27l-20 -5 c-34 -8 -55 -25 -66 -72l-71 -310c-9 -37 -4 -60 41 -60c75 0 124 62 154 118l22 -1l-55 -147s-138 3 -231 3z" />
<glyph horiz-adv-x="410" d="M148 3c-74 0 -109 -3 -109 -3l6 27l20 5c34 8 55 25 66 72l72 310c8 37 2 51 -22 56l-33 7l6 27s51 -3 118 -3c74 0 108 3 108 3l-6 -27l-20 -5c-34 -8 -55 -25 -66 -72l-71 -310c-9 -37 -4 -60 41 -60c75 0 124 62 154 118l22 -1l-55 -147s-138 3 -231 3zM391 240 c-30 0 -50 21 -50 50c0 34 28 70 67 70c30 0 49 -21 49 -50c0 -34 -28 -70 -66 -70z" />
<glyph horiz-adv-x="410" d="M148 3c-74 0 -109 -3 -109 -3l6 27l20 5c34 8 55 25 66 72l22 95c-39 -20 -70 -39 -70 -39l-16 41s38 17 97 46l39 167c8 37 2 51 -22 56l-33 7l6 27s51 -3 118 -3c74 0 108 3 108 3l-6 -27l-20 -5c-34 -8 -55 -25 -66 -72l-23 -99c60 33 116 64 116 64l16 -41 c-37 -17 -92 -45 -143 -72l-37 -162c-9 -37 -4 -60 41 -60c75 0 124 62 154 118l22 -1l-55 -147s-138 3 -231 3z" />
<glyph horiz-adv-x="597" d="M497 477l6 27s46 -3 102 -3c47 0 86 3 86 3l-6 -28l-21 -6c-35 -10 -55 -28 -67 -81l-90 -392l-30 -4l-261 372l-61 -266c-11 -47 0 -57 36 -65l33 -7l-6 -27s-72 3 -110 3c-35 0 -86 -3 -86 -3l6 27l20 5c36 9 57 30 69 83l67 290c10 45 1 57 -27 65l-26 7l6 27 c53 -2 97 -3 132 -3c0 -17 2 -33 20 -59l211 -298l60 260c10 45 -3 60 -31 66zM599 740c0 -65 -133 -161 -205 -179l-5 13c62 63 126 144 168 207c29 0 42 -23 42 -41z" />
<glyph horiz-adv-x="597" d="M497 477l6 27s46 -3 102 -3c47 0 86 3 86 3l-6 -28l-21 -6c-35 -10 -55 -28 -67 -81l-90 -392l-30 -4l-261 372l-61 -266c-11 -47 0 -57 36 -65l33 -7l-6 -27s-72 3 -110 3c-35 0 -86 -3 -86 -3l6 27l20 5c36 9 57 30 69 83l67 290c10 45 1 57 -27 65l-26 7l6 27 c53 -2 97 -3 132 -3c0 -17 2 -33 20 -59l211 -298l60 260c10 45 -3 60 -31 66zM446 579l-117 176l66 23l61 -153c28 58 96 153 155 153c26 0 38 -15 38 -26c-94 -65 -203 -173 -203 -173z" />
<glyph horiz-adv-x="597" d="M497 477l6 27s46 -3 102 -3c47 0 86 3 86 3l-6 -28l-21 -6c-35 -10 -55 -28 -67 -81l-90 -392l-30 -4l-261 372l-61 -266c-11 -47 0 -57 36 -65l33 -7l-6 -27s-72 3 -110 3c-35 0 -86 -3 -86 -3l6 27l20 5c36 9 57 30 69 83l67 290c10 45 1 57 -27 65l-26 7l6 27 c53 -2 97 -3 132 -3c0 -17 2 -33 20 -59l211 -298l60 260c10 45 -3 60 -31 66zM289 -62c32 0 55 -21 55 -55c0 -93 -109 -153 -190 -163l-2 18c62 16 96 56 96 91c0 20 -11 38 -35 48c8 35 38 61 76 61z" />
<glyph horiz-adv-x="597" d="M497 477l6 27s46 -3 102 -3c47 0 86 3 86 3l-6 -28l-21 -6c-35 -10 -55 -28 -67 -81l-90 -392l-30 -4l-261 372l-61 -266c-11 -47 0 -57 36 -65l33 -7l-6 -27s-72 3 -110 3c-35 0 -86 -3 -86 -3l6 27l20 5c36 9 57 30 69 83l67 290c10 45 1 57 -27 65l-26 7l6 27 c53 -2 97 -3 132 -3c0 -17 2 -33 20 -59l211 -298l60 260c10 45 -3 60 -31 66zM431 723c61 0 74 -48 127 -48c29 0 60 14 81 51l11 -16c-22 -56 -63 -95 -123 -95c-59 0 -70 48 -123 48c-29 0 -60 -14 -80 -51l-12 16c22 54 64 95 119 95z" />
<glyph d="M311 22c133 0 218 139 218 285c0 113 -59 175 -137 175c-132 0 -218 -139 -218 -286c0 -113 59 -174 137 -174zM431 519c116 0 201 -76 201 -200c0 -163 -142 -335 -358 -335c-118 0 -203 76 -203 201c0 164 143 334 360 334zM587 740c0 -65 -133 -161 -205 -179l-5 13 c62 63 126 144 168 207c29 0 42 -23 42 -41z" />
<glyph d="M311 22c133 0 218 139 218 285c0 113 -59 175 -137 175c-132 0 -218 -139 -218 -286c0 -113 59 -174 137 -174zM431 519c116 0 201 -76 201 -200c0 -163 -142 -335 -358 -335c-118 0 -203 76 -203 201c0 164 143 334 360 334zM580 744h28c-22 -96 -87 -155 -176 -155 c-72 0 -115 38 -115 107c0 15 2 30 6 48h68c-3 -12 -4 -23 -4 -33c0 -41 23 -66 70 -66c61 0 109 38 123 99z" />
<glyph d="M311 22c133 0 218 139 218 285c0 113 -59 175 -137 175c-132 0 -218 -139 -218 -286c0 -113 59 -174 137 -174zM431 519c116 0 201 -76 201 -200c0 -163 -142 -335 -358 -335c-118 0 -203 76 -203 201c0 164 143 334 360 334zM281 598l202 180s56 -114 117 -176 c0 -10 -10 -28 -36 -28c-58 0 -92 94 -95 158l-132 -158z" />
<glyph d="M311 22c133 0 218 139 218 285c0 113 -59 175 -137 175c-132 0 -218 -139 -218 -286c0 -113 59 -174 137 -174zM431 519c116 0 201 -76 201 -200c0 -163 -142 -335 -358 -335c-118 0 -203 76 -203 201c0 164 143 334 360 334zM348 602c-27 0 -44 19 -44 44 c0 29 24 61 59 61c26 0 43 -19 43 -44c0 -29 -25 -61 -58 -61zM534 602c-27 0 -44 19 -44 44c0 29 24 61 59 61c26 0 43 -19 43 -44c0 -29 -26 -61 -58 -61z" />
<glyph d="M311 22c133 0 218 139 218 285c0 113 -59 175 -137 175c-132 0 -218 -139 -218 -286c0 -113 59 -174 137 -174zM431 519c116 0 201 -76 201 -200c0 -163 -142 -335 -358 -335c-118 0 -203 76 -203 201c0 164 143 334 360 334zM278 740c0 18 13 41 42 41 c42 -63 106 -144 168 -207l-5 -13c-72 18 -205 114 -205 179z" />
<glyph d="M311 22c133 0 218 139 218 285c0 113 -59 175 -137 175c-132 0 -218 -139 -218 -286c0 -113 59 -174 137 -174zM431 519c116 0 201 -76 201 -200c0 -163 -142 -335 -358 -335c-118 0 -203 76 -203 201c0 164 143 334 360 334zM555 740c0 -65 -133 -161 -205 -179l-5 13 c62 63 126 144 168 207c29 0 42 -23 42 -41zM709 740c0 -65 -133 -161 -205 -179l-5 13c62 63 126 144 168 207c29 0 42 -23 42 -41z" />
<glyph d="M311 22c133 0 218 139 218 285c0 113 -59 175 -137 175c-132 0 -218 -139 -218 -286c0 -113 59 -174 137 -174zM431 519c116 0 201 -76 201 -200c0 -163 -142 -335 -358 -335c-118 0 -203 76 -203 201c0 164 143 334 360 334zM318 643c0 0 71 -3 136 -3c71 0 136 3 136 3 l-12 -55s-63 3 -136 3c-63 0 -136 -3 -136 -3z" />
<glyph d="M311 22c133 0 218 139 218 285c0 113 -59 175 -137 175c-132 0 -218 -139 -218 -286c0 -113 59 -174 137 -174zM431 519c116 0 201 -76 201 -200c0 -163 -142 -335 -358 -335c-118 0 -203 76 -203 201c0 164 143 334 360 334zM402 723c61 0 74 -48 127 -48 c29 0 60 14 81 51l11 -16c-22 -56 -63 -95 -123 -95c-59 0 -70 48 -123 48c-29 0 -60 -14 -80 -51l-12 16c22 54 64 95 119 95z" />
<glyph d="M431 519c46 0 87 -12 121 -32l65 69h57c-31 -29 -62 -58 -96 -91c34 -32 54 -86 54 -147c0 -162 -142 -334 -358 -334c-51 0 -96 13 -130 37l-55 -56h-57l84 80c-28 32 -45 83 -45 140c0 164 143 334 360 334zM311 22c133 0 219 139 219 285c0 35 -6 72 -15 95 c-72 -73 -166 -170 -315 -323c25 -38 64 -57 111 -57zM185 112c103 102 206 208 313 319c-25 34 -63 51 -106 51c-132 0 -217 -139 -217 -286c0 -30 3 -64 10 -84zM587 740c0 -65 -133 -161 -205 -179l-5 13c62 63 126 144 168 207c29 0 42 -23 42 -41z" />
<glyph horiz-adv-x="531" d="M352 470c-24 0 -37 -3 -49 -7l-50 -214c17 11 36 16 55 16c26 0 40 -9 40 -9c54 44 76 79 76 135c0 47 -28 79 -72 79zM247 222l-30 -132c-9 -37 -2 -51 22 -56l32 -7l-6 -27s-50 3 -117 3c-74 0 -109 -3 -109 -3l6 27l20 5c34 8 55 25 66 72l72 310c8 37 2 51 -22 56 l-33 7l6 27s51 -3 118 -3c33 0 98 3 111 3c91 0 142 -42 142 -106c0 -129 -134 -152 -155 -155c12 -9 20 -21 28 -45l33 -95c17 -48 37 -84 112 -84l-4 -19s-31 -16 -72 -16c-67 0 -114 30 -127 94l-21 103c-6 31 -20 47 -45 47c-17 0 -27 -6 -27 -6zM541 740 c0 -65 -133 -161 -205 -179l-5 13c62 63 126 144 168 207c29 0 42 -23 42 -41z" />
<glyph horiz-adv-x="531" d="M352 470c-24 0 -37 -3 -49 -7l-50 -214c17 11 36 16 55 16c26 0 40 -9 40 -9c54 44 76 79 76 135c0 47 -28 79 -72 79zM247 222l-30 -132c-9 -37 -2 -51 22 -56l32 -7l-6 -27s-50 3 -117 3c-74 0 -109 -3 -109 -3l6 27l20 5c34 8 55 25 66 72l72 310c8 37 2 51 -22 56 l-33 7l6 27s51 -3 118 -3c33 0 98 3 111 3c91 0 142 -42 142 -106c0 -129 -134 -152 -155 -155c12 -9 20 -21 28 -45l33 -95c17 -48 37 -84 112 -84l-4 -19s-31 -16 -72 -16c-67 0 -114 30 -127 94l-21 103c-6 31 -20 47 -45 47c-17 0 -27 -6 -27 -6zM387 579l-117 176 l66 23l61 -153c28 58 96 153 155 153c26 0 38 -15 38 -26c-94 -65 -203 -173 -203 -173z" />
<glyph horiz-adv-x="531" d="M352 470c-24 0 -37 -3 -49 -7l-50 -214c17 11 36 16 55 16c26 0 40 -9 40 -9c54 44 76 79 76 135c0 47 -28 79 -72 79zM247 222l-30 -132c-9 -37 -2 -51 22 -56l32 -7l-6 -27s-50 3 -117 3c-74 0 -109 -3 -109 -3l6 27l20 5c34 8 55 25 66 72l72 310c8 37 2 51 -22 56 l-33 7l6 27s51 -3 118 -3c33 0 98 3 111 3c91 0 142 -42 142 -106c0 -129 -134 -152 -155 -155c12 -9 20 -21 28 -45l33 -95c17 -48 37 -84 112 -84l-4 -19s-31 -16 -72 -16c-67 0 -114 30 -127 94l-21 103c-6 31 -20 47 -45 47c-17 0 -27 -6 -27 -6zM278 -62 c32 0 55 -21 55 -55c0 -93 -109 -153 -190 -163l-2 18c62 16 96 56 96 91c0 20 -11 38 -35 48c8 35 38 61 76 61z" />
<glyph horiz-adv-x="382" d="M450 503l-34 -112h-21c14 60 -15 95 -78 95c-60 0 -97 -39 -97 -87c0 -88 163 -111 163 -238c0 -110 -90 -177 -211 -177c-68 0 -86 22 -138 22l29 124h23c-11 -51 1 -113 90 -113c62 0 116 43 116 102c0 91 -157 105 -157 233c0 92 83 167 192 167c67 0 87 -16 123 -16z M524 740c0 -65 -133 -161 -205 -179l-5 13c62 63 126 144 168 207c29 0 42 -23 42 -41z" />
<glyph horiz-adv-x="382" d="M450 503l-34 -112h-21c14 60 -15 95 -78 95c-60 0 -97 -39 -97 -87c0 -88 163 -111 163 -238c0 -110 -90 -177 -211 -177c-68 0 -86 22 -138 22l29 124h23c-11 -51 1 -113 90 -113c62 0 116 43 116 102c0 91 -157 105 -157 233c0 92 83 167 192 167c67 0 87 -16 123 -16z M369 579l-117 176l66 23l61 -153c28 58 96 153 155 153c26 0 38 -15 38 -26c-94 -65 -203 -173 -203 -173z" />
<glyph horiz-adv-x="382" d="M450 503l-34 -112h-21c14 60 -15 95 -78 95c-60 0 -97 -39 -97 -87c0 -89 164 -110 164 -241c0 -94 -75 -168 -195 -173c-11 -9 -24 -21 -24 -40c0 -39 61 -41 61 -93c0 -55 -76 -93 -142 -93c-42 0 -74 16 -74 45c0 24 21 46 50 46c5 0 11 -1 16 -4 c-8 -7 -17 -20 -17 -32c0 -14 12 -26 45 -26c35 0 58 17 58 39c0 30 -58 40 -58 86c0 39 40 62 60 71c-62 2 -80 22 -130 22l29 124h23c-11 -51 0 -113 89 -113c63 0 117 43 117 102c0 91 -157 105 -157 233c0 92 83 167 192 167c67 0 87 -16 123 -16z" />
<glyph horiz-adv-x="382" d="M450 503l-34 -112h-21c14 60 -15 95 -78 95c-60 0 -97 -39 -97 -87c0 -88 163 -111 163 -238c0 -110 -90 -177 -211 -177c-68 0 -86 22 -138 22l29 124h23c-11 -51 1 -113 90 -113c62 0 116 43 116 102c0 91 -157 105 -157 233c0 92 83 167 192 167c67 0 87 -16 123 -16z M193 598l202 180s56 -114 117 -176c0 -10 -10 -28 -36 -28c-58 0 -92 94 -95 158l-132 -158z" />
<glyph horiz-adv-x="382" d="M450 503l-34 -112h-21c14 60 -15 95 -78 95c-60 0 -97 -39 -97 -87c0 -88 163 -111 163 -238c0 -110 -90 -177 -211 -177c-68 0 -86 22 -138 22l29 124h23c-11 -51 1 -113 90 -113c62 0 116 43 116 102c0 91 -157 105 -157 233c0 92 83 167 192 167c67 0 87 -16 123 -16z M174 -62c32 0 55 -21 55 -55c0 -93 -109 -153 -190 -163l-2 18c62 16 96 56 96 91c0 20 -11 38 -35 48c8 35 38 61 76 61z" />
<glyph horiz-adv-x="494" d="M227 104l84 361h-47c-61 0 -104 -24 -129 -79l-21 3l39 119h17s5 -8 27 -8h347c21 0 29 8 29 8h16l-39 -122l-21 1c12 54 -4 78 -56 78h-73l-87 -375c-8 -37 -2 -51 22 -56l32 -7l-6 -27s-50 3 -117 3c-74 0 -109 -3 -109 -3l6 27l21 5c34 8 54 25 65 72zM387 579 l-117 176l66 23l61 -153c28 58 96 153 155 153c26 0 38 -15 38 -26c-94 -65 -203 -173 -203 -173z" />
<glyph horiz-adv-x="494" d="M227 104l84 361h-47c-61 0 -104 -24 -129 -79l-21 3l39 119h17s5 -8 27 -8h347c21 0 29 8 29 8h16l-39 -122l-21 1c12 54 -4 78 -56 78h-73l-87 -375c-8 -37 -2 -51 22 -56l32 -7l-6 -27s-43 2 -101 3c-17 -10 -35 -28 -35 -51c0 -34 54 -43 54 -85 c0 -67 -86 -103 -136 -103c-38 0 -64 17 -64 43c0 27 24 43 45 43c7 0 14 -2 17 -5c-9 -6 -17 -16 -17 -28s8 -26 37 -26c27 0 57 21 57 48c0 37 -43 43 -43 90c0 33 36 64 63 74c-70 0 -103 -3 -103 -3l6 27l21 5c34 8 54 25 65 72z" />
<glyph horiz-adv-x="494" d="M227 104l38 164c-49 -1 -112 -3 -112 -3l10 42s62 -1 111 -2l37 160h-47c-61 0 -104 -24 -129 -79l-21 3l39 119h17s5 -8 27 -8h347c21 0 29 8 29 8h16l-39 -122l-21 1c12 54 -4 78 -56 78h-73l-37 -160c50 1 112 2 112 2l-10 -42s-61 2 -111 3l-41 -178 c-9 -37 -2 -51 22 -56l32 -7l-6 -27s-50 3 -117 3c-74 0 -109 -3 -109 -3l6 27l21 5c34 8 54 25 65 72z" />
<glyph horiz-adv-x="457" d="M131 104l72 310c8 37 2 51 -22 56l-33 7l6 27s51 -3 118 -3c74 0 108 3 108 3l-6 -27l-20 -5c-34 -8 -54 -25 -66 -72l-3 -11c23 0 51 20 99 20c56 0 114 -34 114 -114c0 -126 -105 -180 -181 -180c-48 0 -68 19 -90 20l-10 -45c-8 -37 -2 -51 22 -56l32 -7l-6 -27 s-50 3 -117 3c-74 0 -109 -3 -109 -3l6 27l20 5c34 8 55 25 66 72zM337 374c-29 0 -42 -10 -57 -10l-47 -204c15 -1 24 -10 53 -10c60 0 113 68 113 142c0 46 -22 82 -62 82z" />
<glyph horiz-adv-x="602" d="M148 477l7 27s50 -3 117 -3c74 0 109 3 109 3l-7 -27l-20 -5c-34 -8 -54 -25 -65 -72l-55 -236c-24 -104 11 -145 96 -145c106 0 141 64 160 145l56 242c10 45 3 57 -24 64l-29 7l7 27s55 -3 91 -3c41 0 94 3 94 3l-6 -27l-21 -5c-36 -9 -54 -28 -66 -81l-52 -224 c-28 -121 -112 -183 -235 -183c-124 0 -187 62 -159 183l57 247c9 37 2 51 -22 56zM621 740c0 -65 -133 -161 -205 -179l-5 13c62 63 126 144 168 207c29 0 42 -23 42 -41z" />
<glyph horiz-adv-x="602" d="M148 477l7 27s50 -3 117 -3c74 0 109 3 109 3l-7 -27l-20 -5c-34 -8 -54 -25 -65 -72l-55 -236c-24 -104 11 -145 96 -145c106 0 141 64 160 145l56 242c10 45 3 57 -24 64l-29 7l7 27s55 -3 91 -3c41 0 94 3 94 3l-6 -27l-21 -5c-36 -9 -54 -28 -66 -81l-52 -224 c-28 -121 -112 -183 -235 -183c-124 0 -187 62 -159 183l57 247c9 37 2 51 -22 56zM625 744h28c-22 -96 -87 -155 -176 -155c-72 0 -115 38 -115 107c0 15 2 30 6 48h68c-3 -12 -4 -23 -4 -33c0 -41 23 -66 70 -66c61 0 109 38 123 99z" />
<glyph horiz-adv-x="602" d="M148 477l7 27s50 -3 117 -3c74 0 109 3 109 3l-7 -27l-20 -5c-34 -8 -54 -25 -65 -72l-55 -236c-24 -104 11 -145 96 -145c106 0 141 64 160 145l56 242c10 45 3 57 -24 64l-29 7l7 27s55 -3 91 -3c41 0 94 3 94 3l-6 -27l-21 -5c-36 -9 -54 -28 -66 -81l-52 -224 c-28 -121 -112 -183 -235 -183c-124 0 -187 62 -159 183l57 247c9 37 2 51 -22 56zM307 598l202 180s56 -114 117 -176c0 -10 -10 -28 -36 -28c-58 0 -92 94 -95 158l-132 -158z" />
<glyph horiz-adv-x="602" d="M148 477l7 27s50 -3 117 -3c74 0 109 3 109 3l-7 -27l-20 -5c-34 -8 -54 -25 -65 -72l-55 -236c-24 -104 11 -145 96 -145c106 0 141 64 160 145l56 242c10 45 3 57 -24 64l-29 7l7 27s55 -3 91 -3c41 0 94 3 94 3l-6 -27l-21 -5c-36 -9 -54 -28 -66 -81l-52 -224 c-28 -121 -112 -183 -235 -183c-124 0 -187 62 -159 183l57 247c9 37 2 51 -22 56zM385 602c-27 0 -44 19 -44 44c0 29 24 61 59 61c26 0 43 -19 43 -44c0 -29 -25 -61 -58 -61zM571 602c-27 0 -44 19 -44 44c0 29 24 61 59 61c26 0 43 -19 43 -44c0 -29 -26 -61 -58 -61z " />
<glyph horiz-adv-x="602" d="M148 477l7 27s50 -3 117 -3c74 0 109 3 109 3l-7 -27l-20 -5c-34 -8 -54 -25 -65 -72l-55 -236c-24 -104 11 -145 96 -145c106 0 141 64 160 145l56 242c10 45 3 57 -24 64l-29 7l7 27s55 -3 91 -3c41 0 94 3 94 3l-6 -27l-21 -5c-36 -9 -54 -28 -66 -81l-52 -224 c-28 -121 -112 -183 -235 -183c-124 0 -187 62 -159 183l57 247c9 37 2 51 -22 56zM283 740c0 18 13 41 42 41c42 -63 106 -144 168 -207l-5 -13c-72 18 -205 114 -205 179z" />
<glyph horiz-adv-x="602" d="M148 477l7 27s50 -3 117 -3c74 0 109 3 109 3l-7 -27l-20 -5c-34 -8 -54 -25 -65 -72l-55 -236c-24 -104 11 -145 96 -145c106 0 141 64 160 145l56 242c10 45 3 57 -24 64l-29 7l7 27s55 -3 91 -3c41 0 94 3 94 3l-6 -27l-21 -5c-36 -9 -54 -28 -66 -81l-52 -224 c-28 -121 -112 -183 -235 -183c-124 0 -187 62 -159 183l57 247c9 37 2 51 -22 56zM562 740c0 -65 -133 -161 -205 -179l-5 13c62 63 126 144 168 207c29 0 42 -23 42 -41zM716 740c0 -65 -133 -161 -205 -179l-5 13c62 63 126 144 168 207c29 0 42 -23 42 -41z" />
<glyph horiz-adv-x="602" d="M148 477l7 27s50 -3 117 -3c74 0 109 3 109 3l-7 -27l-20 -5c-34 -8 -54 -25 -65 -72l-55 -236c-24 -104 11 -145 96 -145c106 0 141 64 160 145l56 242c10 45 3 57 -24 64l-29 7l7 27s55 -3 91 -3c41 0 94 3 94 3l-6 -27l-21 -5c-36 -9 -54 -28 -66 -81l-52 -224 c-28 -121 -112 -183 -235 -183c-124 0 -187 62 -159 183l57 247c9 37 2 51 -22 56zM343 643c0 0 71 -3 136 -3c71 0 136 3 136 3l-12 -55s-63 3 -136 3c-63 0 -136 -3 -136 -3z" />
<glyph horiz-adv-x="602" d="M148 477l7 27s50 -3 117 -3c74 0 109 3 109 3l-7 -27l-20 -5c-34 -8 -54 -25 -65 -72l-55 -236c-5 -21 -7 -41 -7 -57c0 -63 39 -88 103 -88c106 0 141 64 160 145l56 242c10 45 3 57 -24 64l-29 7l7 27s55 -3 91 -3c41 0 94 3 94 3l-6 -27l-21 -5 c-36 -9 -54 -28 -66 -81l-52 -224c-21 -89 -72 -145 -145 -169c-76 -56 -115 -104 -115 -149c0 -28 17 -45 52 -45c24 0 44 11 52 19c6 -3 9 -10 9 -17c0 -17 -31 -54 -105 -54c-50 0 -83 25 -83 71c0 76 79 131 133 163c-10 -1 -22 -2 -33 -2c-104 0 -166 44 -166 130 c0 16 3 34 7 53l57 247c9 37 2 51 -22 56z" />
<glyph horiz-adv-x="602" d="M148 477l7 27s50 -3 117 -3c74 0 109 3 109 3l-7 -27l-20 -5c-34 -8 -54 -25 -65 -72l-55 -236c-24 -104 11 -145 96 -145c106 0 141 64 160 145l56 242c10 45 3 57 -24 64l-29 7l7 27s55 -3 91 -3c41 0 94 3 94 3l-6 -27l-21 -5c-36 -9 -54 -28 -66 -81l-52 -224 c-28 -121 -112 -183 -235 -183c-124 0 -187 62 -159 183l57 247c9 37 2 51 -22 56zM478 618c55 0 74 44 74 81c0 35 -23 55 -52 55c-52 0 -74 -42 -74 -81c0 -35 24 -55 52 -55zM519 788c46 0 80 -29 80 -77c0 -62 -60 -127 -140 -127c-46 0 -79 28 -79 77 c0 62 60 127 139 127z" />
<glyph horiz-adv-x="602" d="M148 477l7 27s50 -3 117 -3c74 0 109 3 109 3l-7 -27l-20 -5c-34 -8 -54 -25 -65 -72l-55 -236c-24 -104 11 -145 96 -145c106 0 141 64 160 145l56 242c10 45 3 57 -24 64l-29 7l7 27s55 -3 91 -3c41 0 94 3 94 3l-6 -27l-21 -5c-36 -9 -54 -28 -66 -81l-52 -224 c-28 -121 -112 -183 -235 -183c-124 0 -187 62 -159 183l57 247c9 37 2 51 -22 56zM433 723c61 0 74 -48 127 -48c29 0 60 14 81 51l11 -16c-22 -56 -63 -95 -123 -95c-59 0 -70 48 -123 48c-29 0 -60 -14 -80 -51l-12 16c22 54 64 95 119 95z" />
<glyph horiz-adv-x="788" d="M427 477l6 27c48 -1 82 -3 133 -3c0 0 -9 -33 -7 -63l23 -317l172 302c5 9 10 16 10 24c0 12 -8 22 -26 25l-26 5l6 27s62 -3 93 -3c32 0 81 3 81 3l-6 -27l-23 -5c-31 -7 -54 -32 -75 -69l-240 -417l-28 -4l-40 384l-205 -380l-31 -4l-57 447c-4 29 -15 38 -40 43l-26 5 l6 27s53 -3 106 -3c45 0 107 3 107 3l-6 -27l-20 -5c-30 -7 -38 -26 -38 -49c0 -6 0 -14 1 -19l30 -282l162 293c9 16 10 27 10 29c0 13 -8 23 -29 28zM698 740c0 -65 -133 -161 -205 -179l-5 13c62 63 126 144 168 207c29 0 42 -23 42 -41z" />
<glyph horiz-adv-x="788" d="M427 477l6 27c48 -1 82 -3 133 -3c0 0 -9 -33 -7 -63l23 -317l172 302c5 9 10 16 10 24c0 12 -8 22 -26 25l-26 5l6 27s62 -3 93 -3c32 0 81 3 81 3l-6 -27l-23 -5c-31 -7 -54 -32 -75 -69l-240 -417l-28 -4l-40 384l-205 -380l-31 -4l-57 447c-4 29 -15 38 -40 43l-26 5 l6 27s53 -3 106 -3c45 0 107 3 107 3l-6 -27l-20 -5c-30 -7 -38 -26 -38 -49c0 -6 0 -14 1 -19l30 -282l162 293c9 16 10 27 10 29c0 13 -8 23 -29 28zM386 598l202 180s56 -114 117 -176c0 -10 -10 -28 -36 -28c-58 0 -92 94 -95 158l-132 -158z" />
<glyph horiz-adv-x="788" d="M427 477l6 27c48 -1 82 -3 133 -3c0 0 -9 -33 -7 -63l23 -317l172 302c5 9 10 16 10 24c0 12 -8 22 -26 25l-26 5l6 27s62 -3 93 -3c32 0 81 3 81 3l-6 -27l-23 -5c-31 -7 -54 -32 -75 -69l-240 -417l-28 -4l-40 384l-205 -380l-31 -4l-57 447c-4 29 -15 38 -40 43l-26 5 l6 27s53 -3 106 -3c45 0 107 3 107 3l-6 -27l-20 -5c-30 -7 -38 -26 -38 -49c0 -6 0 -14 1 -19l30 -282l162 293c9 16 10 27 10 29c0 13 -8 23 -29 28zM452 602c-27 0 -44 19 -44 44c0 29 24 61 59 61c26 0 43 -19 43 -44c0 -29 -25 -61 -58 -61zM638 602 c-27 0 -44 19 -44 44c0 29 24 61 59 61c26 0 43 -19 43 -44c0 -29 -26 -61 -58 -61z" />
<glyph horiz-adv-x="788" d="M427 477l6 27c48 -1 82 -3 133 -3c0 0 -9 -33 -7 -63l23 -317l172 302c5 9 10 16 10 24c0 12 -8 22 -26 25l-26 5l6 27s62 -3 93 -3c32 0 81 3 81 3l-6 -27l-23 -5c-31 -7 -54 -32 -75 -69l-240 -417l-28 -4l-40 384l-205 -380l-31 -4l-57 447c-4 29 -15 38 -40 43l-26 5 l6 27s53 -3 106 -3c45 0 107 3 107 3l-6 -27l-20 -5c-30 -7 -38 -26 -38 -49c0 -6 0 -14 1 -19l30 -282l162 293c9 16 10 27 10 29c0 13 -8 23 -29 28zM377 740c0 18 13 41 42 41c42 -63 106 -144 168 -207l-5 -13c-72 18 -205 114 -205 179z" />
<glyph horiz-adv-x="503" d="M334 243l125 164c10 13 26 34 26 45c0 10 -7 17 -22 20l-22 5l6 27s44 -2 89 -2c50 0 71 2 71 2l-6 -27l-18 -5c-33 -9 -57 -33 -80 -63l-155 -198l-28 -121c-9 -37 -2 -51 22 -56l32 -7l-6 -27s-50 3 -117 3c-74 0 -110 -3 -110 -3l6 27l20 5c34 8 55 25 66 72l24 107 l-73 231c-6 19 -17 26 -37 30l-24 5l6 27s48 -3 89 -3c65 0 110 3 110 3l-6 -27l-22 -5c-17 -4 -24 -15 -24 -28c0 -6 1 -14 4 -23zM569 740c0 -65 -133 -161 -205 -179l-5 13c62 63 126 144 168 207c29 0 42 -23 42 -41z" />
<glyph horiz-adv-x="503" d="M334 243l125 164c10 13 26 34 26 45c0 10 -7 17 -22 20l-22 5l6 27s44 -2 89 -2c50 0 71 2 71 2l-6 -27l-18 -5c-33 -9 -57 -33 -80 -63l-155 -198l-28 -121c-9 -37 -2 -51 22 -56l32 -7l-6 -27s-50 3 -117 3c-74 0 -110 -3 -110 -3l6 27l20 5c34 8 55 25 66 72l24 107 l-73 231c-6 19 -17 26 -37 30l-24 5l6 27s48 -3 89 -3c65 0 110 3 110 3l-6 -27l-22 -5c-17 -4 -24 -15 -24 -28c0 -6 1 -14 4 -23zM248 598l202 180s56 -114 117 -176c0 -10 -10 -28 -36 -28c-58 0 -92 94 -95 158l-132 -158z" />
<glyph horiz-adv-x="503" d="M334 243l125 164c10 13 26 34 26 45c0 10 -7 17 -22 20l-22 5l6 27s44 -2 89 -2c50 0 71 2 71 2l-6 -27l-18 -5c-33 -9 -57 -33 -80 -63l-155 -198l-28 -121c-9 -37 -2 -51 22 -56l32 -7l-6 -27s-50 3 -117 3c-74 0 -110 -3 -110 -3l6 27l20 5c34 8 55 25 66 72l24 107 l-73 231c-6 19 -17 26 -37 30l-24 5l6 27s48 -3 89 -3c65 0 110 3 110 3l-6 -27l-22 -5c-17 -4 -24 -15 -24 -28c0 -6 1 -14 4 -23zM326 602c-27 0 -44 19 -44 44c0 29 24 61 59 61c26 0 43 -19 43 -44c0 -29 -25 -61 -58 -61zM512 602c-27 0 -44 19 -44 44 c0 29 24 61 59 61c26 0 43 -19 43 -44c0 -29 -26 -61 -58 -61z" />
<glyph horiz-adv-x="503" d="M334 243l125 164c10 13 26 34 26 45c0 10 -7 17 -22 20l-22 5l6 27s44 -2 89 -2c50 0 71 2 71 2l-6 -27l-18 -5c-33 -9 -57 -33 -80 -63l-155 -198l-28 -121c-9 -37 -2 -51 22 -56l32 -7l-6 -27s-50 3 -117 3c-74 0 -110 -3 -110 -3l6 27l20 5c34 8 55 25 66 72l24 107 l-73 231c-6 19 -17 26 -37 30l-24 5l6 27s48 -3 89 -3c65 0 110 3 110 3l-6 -27l-22 -5c-17 -4 -24 -15 -24 -28c0 -6 1 -14 4 -23zM233 740c0 18 13 41 42 41c42 -63 106 -144 168 -207l-5 -13c-72 18 -205 114 -205 179z" />
<glyph horiz-adv-x="487" d="M553 504l3 -17l-410 -451l123 4c104 3 161 38 207 109l20 -5l-70 -144h-396l-5 10l413 456l-142 -5c-86 -3 -124 -41 -145 -87l-21 3l48 136h29s1 -10 35 -10c119 0 311 1 311 1zM569 740c0 -65 -133 -161 -205 -179l-5 13c62 63 126 144 168 207c29 0 42 -23 42 -41z " />
<glyph horiz-adv-x="487" d="M553 504l3 -17l-410 -451l123 4c104 3 161 38 207 109l20 -5l-70 -144h-396l-5 10l413 456l-142 -5c-86 -3 -124 -41 -145 -87l-21 3l48 136h29s1 -10 35 -10c119 0 311 1 311 1zM404 579l-117 176l66 23l61 -153c28 58 96 153 155 153c26 0 38 -15 38 -26 c-94 -65 -203 -173 -203 -173z" />
<glyph horiz-adv-x="487" d="M553 504l3 -17l-410 -451l123 4c104 3 161 38 207 109l20 -5l-70 -144h-396l-5 10l413 456l-142 -5c-86 -3 -124 -41 -145 -87l-21 3l48 136h29s1 -10 35 -10c119 0 311 1 311 1zM407 610c-25 0 -42 18 -42 43c0 29 24 61 57 61c25 0 42 -18 42 -43 c0 -29 -24 -61 -57 -61z" />
<glyph horiz-adv-x="758" d="M450 503l-34 -112h-21c14 60 -15 95 -78 95c-60 0 -97 -39 -97 -87c0 -88 163 -111 163 -238c0 -110 -90 -177 -211 -177c-68 0 -86 22 -138 22l29 124h23c-11 -51 1 -113 90 -113c62 0 116 43 116 102c0 91 -157 105 -157 233c0 92 83 167 192 167c67 0 87 -16 123 -16z M826 503l-34 -112h-21c14 60 -15 95 -78 95c-60 0 -97 -39 -97 -87c0 -88 163 -111 163 -238c0 -110 -90 -177 -211 -177c-68 0 -86 22 -138 22l29 124h23c-11 -51 1 -113 90 -113c62 0 116 43 116 102c0 91 -157 105 -157 233c0 92 83 167 192 167c67 0 87 -16 123 -16z " />
<glyph horiz-adv-x="276" d="M356 714l-85 -367c-5 -21 3 -27 24 -30l31 -5l-6 -26s-50 2 -98 2c-46 0 -103 -2 -103 -2l6 26l29 5c23 4 49 17 58 58l65 280c-25 -14 -55 -22 -74 -22c-16 0 -24 8 -24 18c0 7 5 13 10 16c44 7 117 30 156 49z" />
<glyph horiz-adv-x="357" d="M91 286l-2 17l118 93c67 53 171 142 171 217c0 32 -17 63 -60 63c-42 0 -70 -29 -70 -61c0 -2 0 -8 1 -10c-10 -3 -21 -6 -30 -6c-22 0 -34 11 -34 29c0 36 58 86 153 86c76 0 115 -38 115 -91c0 -101 -145 -199 -234 -261l-30 -21l153 5c32 1 52 21 67 47l18 -2 l-49 -105h-287z" />
<glyph horiz-adv-x="330" d="M308 676c-37 0 -60 -30 -60 -57c0 -6 1 -10 2 -14c-7 -4 -18 -6 -31 -6c-22 0 -36 11 -36 29c0 35 53 86 149 86c59 0 92 -32 92 -71c0 -57 -56 -96 -122 -114v-5c54 -8 93 -43 93 -93c0 -91 -85 -155 -203 -155c-50 0 -86 19 -86 47c0 24 24 41 49 41c11 0 15 -1 22 -4 c-5 -7 -8 -13 -8 -23c0 -18 13 -29 37 -29c62 0 112 53 112 110c0 51 -46 77 -112 77v25c86 22 143 59 143 116c0 20 -12 40 -41 40z" />
<glyph horiz-adv-x="381" d="M449 398h-85l-14 -59c-4 -16 7 -20 19 -22l24 -5l-6 -26h-161l6 25l24 6c17 4 27 12 32 32l11 49h-174l-5 18l138 141c41 42 63 80 63 121c0 11 -2 22 -5 28c8 5 19 8 29 8c30 0 47 -22 47 -45c0 -42 -43 -83 -105 -140l-95 -89h117l19 86l73 33l-27 -119h85z" />
<glyph horiz-adv-x="344" d="M215 308c68 0 123 60 123 125c0 48 -32 77 -81 77c-39 0 -65 -14 -65 -14l-11 3l64 208h150c31 0 48 9 67 39l15 -2l-34 -95h-181l-29 -91c10 2 32 4 46 4c93 0 136 -48 136 -109c0 -111 -111 -177 -216 -177c-58 0 -91 22 -91 51c0 26 23 45 50 45c7 0 14 -1 22 -4 c-5 -9 -7 -18 -7 -25c0 -19 13 -35 42 -35z" />
<glyph horiz-adv-x="376" d="M307 495c-27 0 -61 -17 -89 -23c-5 -13 -15 -47 -15 -78c0 -51 24 -90 65 -90c58 0 98 65 98 119c0 38 -19 72 -59 72zM475 724l4 -23c-123 -31 -213 -104 -250 -200c38 7 65 33 116 33c54 0 98 -37 98 -96c0 -81 -80 -162 -200 -162c-67 0 -114 47 -114 124 c0 187 204 302 346 324z" />
<glyph horiz-adv-x="357" d="M214 707h271l6 -12l-142 -175c-66 -82 -102 -139 -102 -209c0 -17 2 -27 2 -27c-8 -4 -25 -8 -34 -8c-30 0 -48 21 -48 51c0 43 27 81 104 166l148 163l-166 -10c-32 -2 -55 -21 -68 -48l-20 3z" />
<glyph horiz-adv-x="338" d="M186 362c0 -33 23 -55 54 -55c44 0 80 30 80 76c0 49 -61 98 -61 98c-41 -46 -73 -66 -73 -119zM332 684c-42 0 -76 -32 -76 -75c0 -35 27 -61 62 -86c27 31 63 56 63 110c0 28 -17 51 -49 51zM450 634c0 -72 -79 -94 -109 -126c13 -9 59 -47 59 -98 c0 -92 -103 -134 -169 -134c-63 0 -113 30 -113 84c0 74 77 97 117 138c-36 31 -56 53 -56 89c0 76 74 127 165 127c60 0 106 -31 106 -80z" />
<glyph horiz-adv-x="376" d="M298 495c27 0 61 17 89 23c5 13 15 47 15 78c0 51 -24 90 -65 90c-58 0 -98 -65 -98 -119c0 -38 19 -72 59 -72zM130 266l-4 23c123 31 213 104 250 200c-38 -7 -65 -33 -116 -33c-54 0 -98 37 -98 96c0 81 80 162 200 162c67 0 114 -47 114 -124 c0 -187 -204 -302 -346 -324z" />
<glyph horiz-adv-x="413" d="M357 682c-88 0 -144 -140 -144 -242c0 -79 30 -130 72 -130c89 0 144 139 144 240c0 80 -32 132 -72 132zM262 276c-73 0 -125 58 -125 155c0 140 94 283 244 283c72 0 124 -58 124 -154c0 -141 -97 -284 -243 -284z" />
<glyph horiz-adv-x="276" d="M290 428l-85 -367c-5 -21 3 -27 24 -30l31 -5l-6 -26s-50 2 -98 2c-46 0 -103 -2 -103 -2l6 26l29 5c23 4 49 17 58 58l65 280c-25 -14 -55 -22 -74 -22c-16 0 -24 8 -24 18c0 7 5 13 10 16c44 7 117 30 156 49z" />
<glyph horiz-adv-x="357" d="M25 0l-2 17l118 93c67 53 171 142 171 217c0 32 -17 63 -60 63c-42 0 -70 -29 -70 -61c0 -2 0 -6 1 -10c-8 -4 -18 -6 -30 -6c-22 0 -34 11 -34 29c0 36 58 86 153 86c76 0 115 -38 115 -91c0 -101 -145 -199 -234 -261l-30 -21l153 5c32 1 52 21 67 47l18 -2l-49 -105 h-287z" />
<glyph horiz-adv-x="330" d="M242 390c-37 0 -60 -30 -60 -57c0 -6 1 -10 2 -14c-7 -4 -18 -6 -31 -6c-22 0 -36 11 -36 29c0 35 53 86 149 86c59 0 92 -32 92 -71c0 -57 -56 -96 -122 -114v-5c54 -8 93 -43 93 -93c0 -91 -85 -155 -203 -155c-50 0 -86 19 -86 47c0 24 24 41 49 41c11 0 15 -1 22 -4 c-5 -7 -8 -13 -8 -23c0 -18 13 -29 37 -29c62 0 112 53 112 110c0 51 -46 77 -112 77v25c86 22 143 59 143 116c0 20 -12 40 -41 40z" />
<glyph horiz-adv-x="381" d="M383 112h-85l-14 -59c-4 -16 7 -20 19 -22l24 -5l-6 -26h-161l6 25l24 6c17 4 27 12 32 32l11 49h-174l-5 18l138 141c41 42 63 80 63 121c0 11 -2 22 -5 28c8 5 19 8 29 8c30 0 47 -22 47 -45c0 -42 -43 -83 -105 -140l-95 -89h117l19 86l73 33l-27 -119h85z" />
<glyph horiz-adv-x="344" d="M149 22c68 0 123 60 123 125c0 48 -33 77 -81 77c-39 0 -65 -14 -65 -14l-11 3l64 208h150c31 0 48 9 67 39l15 -2l-34 -95h-181l-29 -91c10 2 32 4 46 4c93 0 136 -48 136 -109c0 -111 -110 -177 -216 -177c-58 0 -91 22 -91 51c0 26 23 45 50 45c7 0 14 -1 22 -4 c-5 -8 -8 -18 -8 -25c0 -19 15 -35 43 -35z" />
<glyph horiz-adv-x="376" d="M240 209c-27 0 -61 -17 -89 -23c-5 -13 -15 -47 -15 -78c0 -51 24 -90 65 -90c58 0 98 65 98 119c0 38 -19 72 -59 72zM408 438l4 -23c-123 -31 -213 -104 -250 -200c38 7 65 33 116 33c54 0 98 -37 98 -96c0 -81 -80 -162 -200 -162c-67 0 -114 47 -114 124 c0 187 204 302 346 324z" />
<glyph horiz-adv-x="357" d="M148 421h271l6 -12l-142 -175c-60 -75 -102 -139 -102 -209c0 -17 2 -27 2 -27c-8 -4 -25 -8 -34 -8c-30 0 -48 21 -48 51c0 43 27 81 104 166l148 163l-166 -10c-32 -2 -55 -21 -68 -48l-20 3z" />
<glyph horiz-adv-x="338" d="M120 76c0 -33 23 -55 54 -55c44 0 80 30 80 76c0 49 -61 98 -61 98c-41 -46 -73 -66 -73 -119zM266 398c-42 0 -76 -32 -76 -75c0 -35 27 -61 62 -86c27 31 63 56 63 110c0 28 -17 51 -49 51zM384 348c0 -72 -79 -94 -109 -126c13 -9 59 -47 59 -98 c0 -92 -103 -134 -169 -134c-63 0 -113 30 -113 84c0 74 77 97 117 138c-36 31 -56 53 -56 89c0 76 74 127 165 127c60 0 106 -31 106 -80z" />
<glyph horiz-adv-x="376" d="M232 209c27 0 61 17 89 23c5 13 15 47 15 78c0 51 -24 90 -65 90c-58 0 -98 -65 -98 -119c0 -38 19 -72 59 -72zM64 -20l-4 23c123 31 213 104 250 200c-38 -7 -65 -33 -116 -33c-54 0 -98 37 -98 96c0 81 80 162 200 162c67 0 114 -47 114 -124 c0 -187 -204 -302 -346 -324z" />
<glyph horiz-adv-x="413" d="M291 396c-88 0 -144 -140 -144 -242c0 -79 30 -130 72 -130c89 0 144 139 144 240c0 80 -32 132 -72 132zM196 -10c-73 0 -125 58 -125 155c0 140 94 283 244 283c72 0 124 -58 124 -154c0 -141 -97 -284 -243 -284z" />
<glyph horiz-adv-x="307" d="M248 31l31 -4l-6 -27s-68 3 -112 3c-46 0 -125 -3 -125 -3l6 27l28 4c31 4 60 29 69 67l55 239c10 43 -3 60 -61 60v22c94 9 176 46 176 46l-86 -375c-11 -47 -5 -55 25 -59zM301 636c-25 0 -42 18 -42 43c0 29 24 61 57 61c25 0 42 -18 42 -43c0 -29 -24 -61 -57 -61z " />
<glyph horiz-adv-x="903" d="M649 445c-23 -23 -52 -116 -52 -116l156 4l-18 -50h-155l-42 -110c-14 -36 -41 -107 -41 -137c0 -15 5 -24 17 -24c45 0 88 60 121 115l17 -10c-37 -74 -112 -178 -185 -178c-34 0 -51 22 -51 62c0 22 4 50 16 84l69 200h-315c-23 -61 -33 -123 -33 -173 c0 -174 112 -266 275 -266c304 0 470 351 470 607c0 136 -56 284 -177 284c-19 0 -36 -5 -48 -15c-16 8 -23 23 -23 34c0 27 23 49 64 49c100 0 218 -118 218 -315c0 -399 -239 -721 -545 -721c-224 0 -317 148 -317 313c0 70 17 141 47 205h-123l10 20l127 5 c58 96 147 163 252 163c59 0 86 -29 86 -62c0 -41 -38 -74 -88 -90l1 -3l132 8l24 69c14 40 39 61 75 61c18 0 29 -7 36 -13zM392 398c0 23 -19 37 -45 37c-58 0 -122 -62 -151 -126c112 4 196 35 196 89z" />
<glyph horiz-adv-x="806" d="M495 714c153 0 263 -99 263 -269c0 -216 -154 -411 -357 -452c26 -86 84 -137 145 -162l-9 -12c-105 2 -215 72 -248 167c-137 12 -232 109 -232 267c0 244 196 461 438 461zM368 23c198 0 290 243 290 402c0 161 -95 250 -211 250c-198 0 -290 -243 -290 -402 c0 -161 95 -250 211 -250z" />
<glyph unicode="&#xb2;" horiz-adv-x="357" d="M99 322l-2 17l118 93c67 53 171 142 171 217c0 32 -17 63 -60 63c-42 0 -70 -29 -70 -61c0 -2 0 -8 1 -10c-10 -3 -21 -6 -30 -6c-22 0 -34 11 -34 29c0 36 58 86 153 86c76 0 115 -38 115 -91c0 -101 -145 -199 -234 -261l-30 -21l153 5c32 1 52 21 67 47l18 -2 l-49 -105h-287z" />
<glyph unicode="&#xb3;" horiz-adv-x="330" d="M316 712c-37 0 -60 -30 -60 -57c0 -6 1 -10 2 -14c-7 -4 -18 -6 -31 -6c-22 0 -36 11 -36 29c0 35 53 86 149 86c59 0 92 -32 92 -71c0 -57 -56 -96 -122 -114v-5c54 -8 93 -43 93 -93c0 -91 -85 -155 -203 -155c-50 0 -86 19 -86 47c0 24 24 41 49 41c11 0 15 -1 22 -4 c-5 -7 -8 -13 -8 -23c0 -18 13 -29 37 -29c62 0 112 53 112 110c0 51 -46 77 -112 77v25c86 22 143 59 143 116c0 20 -12 40 -41 40z" />
<glyph unicode="&#xb9;" horiz-adv-x="276" d="M364 750l-85 -367c-5 -21 3 -27 24 -30l31 -5l-6 -26s-50 2 -98 2c-46 0 -103 -2 -103 -2l6 26l29 5c23 4 49 17 58 58l65 280c-25 -14 -55 -22 -74 -22c-16 0 -24 8 -24 18c0 7 5 13 10 16c44 7 117 30 156 49z" />
<glyph unicode="&#xbc;" horiz-adv-x="773" d="M751 788l44 -22c-199 -274 -504 -721 -592 -857l-45 23c90 125 431 612 593 856zM356 714l-85 -367c-5 -21 3 -27 24 -30l31 -5l-6 -26s-50 2 -98 2c-46 0 -103 -2 -103 -2l6 26l29 5c23 4 49 17 58 58l65 280c-25 -14 -55 -22 -74 -22c-16 0 -24 8 -24 18 c0 7 5 13 10 16c44 7 117 30 156 49zM775 112h-85l-14 -59c-4 -16 7 -20 19 -22l24 -5l-6 -26h-161l6 25l24 6c17 4 27 12 32 32l11 49h-174l-5 18l138 141c41 42 63 80 63 121c0 11 -2 22 -5 28c8 5 19 8 29 8c30 0 47 -22 47 -45c0 -42 -43 -83 -105 -140l-95 -89h117 l19 86l73 33l-27 -119h85z" />
<glyph unicode="&#xbd;" horiz-adv-x="805" d="M745 788l44 -22c-199 -274 -504 -721 -592 -857l-45 23c90 125 431 612 593 856zM473 0l-2 17l118 93c67 53 171 142 171 217c0 32 -17 63 -60 63s-70 -29 -70 -61c0 -1 0 -6 1 -10c-10 -3 -21 -6 -30 -6c-22 0 -35 11 -35 29c0 36 58 86 154 86c76 0 115 -38 115 -91 c0 -101 -145 -199 -234 -261l-30 -21l153 5c32 1 52 21 67 47l18 -2l-49 -105h-287zM356 714l-85 -367c-5 -21 3 -27 24 -30l31 -5l-6 -26s-50 2 -98 2c-46 0 -103 -2 -103 -2l6 26l29 5c23 4 49 17 58 58l65 280c-25 -14 -55 -22 -74 -22c-16 0 -24 8 -24 18 c0 7 5 13 10 16c44 7 117 30 156 49z" />
<glyph unicode="&#xbe;" horiz-adv-x="774" d="M751 788l44 -22c-200 -274 -504 -721 -592 -857l-45 23c90 125 431 612 593 856zM308 676c-37 0 -60 -30 -60 -57c0 -6 1 -10 2 -14c-7 -4 -18 -6 -31 -6c-22 0 -36 11 -36 29c0 35 53 86 149 86c59 0 92 -32 92 -71c0 -57 -56 -96 -122 -114v-5c54 -8 93 -43 93 -93 c0 -91 -85 -155 -203 -155c-50 0 -86 19 -86 47c0 24 24 41 49 41c11 0 15 -1 22 -4c-5 -7 -8 -13 -8 -23c0 -18 13 -29 37 -29c62 0 112 53 112 110c0 51 -46 77 -112 77v25c86 22 143 59 143 116c0 20 -12 40 -41 40zM774 112h-85l-14 -59c-4 -16 7 -20 19 -22l24 -5 l-6 -26h-161l6 25l24 6c17 4 27 12 32 32l11 49h-174l-5 18l138 141c41 42 63 80 63 121c0 11 -2 22 -5 28c8 5 19 8 29 8c30 0 47 -22 47 -45c0 -42 -43 -83 -105 -140l-95 -89h117l19 86l73 33l-27 -119h85z" />
<glyph unicode="&#x100;" horiz-adv-x="673" d="M360 867c0 0 73 -3 138 -3c71 0 140 3 140 3l-13 -55s-65 3 -138 3c-63 0 -140 -3 -140 -3zM441 303l-26 294l-163 -294h189zM428 705l67 11l57 -623c3 -37 19 -53 57 -59l32 -5l-7 -29s-54 3 -125 3c-72 0 -155 -3 -155 -3l7 29l21 5c50 10 78 37 74 90l-10 138h-213 l-72 -137c-14 -26 -25 -43 -25 -64c0 -16 14 -23 41 -27l32 -5l-7 -29s-72 3 -119 3c-45 0 -120 -3 -120 -3l7 29l21 5c64 15 89 54 119 107z" />
<glyph unicode="&#x101;" horiz-adv-x="477" d="M374 50c34 0 68 49 93 90l15 -10c-23 -54 -79 -147 -149 -147c-31 0 -52 15 -52 57c0 44 20 89 30 115h-4c-29 -60 -83 -172 -185 -172c-61 0 -88 49 -88 114c0 162 137 342 286 342c39 0 60 -17 77 -31c5 16 24 57 58 57c16 0 29 -7 38 -15c-30 -35 -138 -280 -138 -378 c0 -14 5 -22 19 -22zM159 42c84 0 180 211 208 314c-12 29 -35 45 -67 45c-104 0 -188 -153 -188 -284c0 -52 11 -75 47 -75zM256 643c0 0 71 -3 136 -3c71 0 136 3 136 3l-12 -55s-63 3 -136 3c-63 0 -136 -3 -136 -3z" />
<glyph unicode="&#x102;" horiz-adv-x="673" d="M621 912h28c-22 -96 -87 -155 -176 -155c-72 0 -115 38 -115 107c0 15 2 30 6 48h68c-3 -12 -4 -23 -4 -33c0 -41 23 -66 70 -66c61 0 109 38 123 99zM441 303l-26 294l-163 -294h189zM428 705l67 11l57 -623c3 -37 19 -53 57 -59l32 -5l-7 -29s-54 3 -125 3 c-72 0 -155 -3 -155 -3l7 29l21 5c50 10 78 37 74 90l-10 138h-213l-72 -137c-14 -26 -25 -43 -25 -64c0 -16 14 -23 41 -27l32 -5l-7 -29s-72 3 -119 3c-45 0 -120 -3 -120 -3l7 29l21 5c64 15 89 54 119 107z" />
<glyph unicode="&#x103;" horiz-adv-x="479" d="M374 50c34 0 68 49 93 90l15 -10c-23 -54 -79 -147 -149 -147c-31 0 -52 15 -52 57c0 44 20 89 30 115h-4c-29 -60 -83 -172 -185 -172c-61 0 -88 49 -88 114c0 162 137 342 286 342c39 0 60 -17 77 -31c5 16 24 57 58 57c16 0 29 -7 38 -15c-30 -35 -138 -280 -138 -378 c0 -14 5 -22 19 -22zM159 42c84 0 180 211 208 314c-12 29 -35 45 -67 45c-104 0 -188 -153 -188 -284c0 -52 11 -75 47 -75zM518 698h28c-22 -96 -87 -155 -176 -155c-72 0 -115 38 -115 107c0 15 2 30 6 48h68c-3 -12 -4 -23 -4 -33c0 -41 23 -66 70 -66 c61 0 109 38 123 99z" />
<glyph unicode="&#x106;" horiz-adv-x="679" d="M601 927c3 1 8 2 12 2c16 0 29 -13 29 -32c0 -56 -95 -116 -144 -131l-7 9c36 38 79 91 110 152zM718 596c0 -46 -35 -82 -76 -82c-25 0 -40 9 -40 9c5 12 12 31 12 58c0 44 -36 93 -135 93c-215 0 -321 -199 -321 -401c0 -155 73 -249 180 -249c139 0 218 67 265 152 l26 -7l-65 -147c-63 0 -105 -38 -239 -38c-169 0 -267 107 -267 269c0 250 190 461 469 461c118 0 191 -55 191 -118z" />
<glyph unicode="&#x107;" horiz-adv-x="395" d="M357 349c4 11 6 20 6 28c0 25 -16 41 -51 41c-116 0 -185 -182 -185 -302c0 -49 24 -75 64 -75c63 0 118 50 151 96l15 -11c-27 -55 -87 -142 -186 -142c-86 0 -126 41 -126 121c0 163 140 361 318 361c35 0 73 -15 73 -55c0 -38 -32 -64 -65 -64c-5 0 -11 1 -14 2z M543 694c0 -65 -133 -161 -205 -179l-5 13c62 63 126 144 168 207c29 0 42 -23 42 -41z" />
<glyph unicode="&#x108;" horiz-adv-x="679" d="M368 780l192 137s68 -81 130 -139c-1 -16 -15 -24 -29 -24c-44 0 -89 57 -111 117l-133 -120zM718 596c0 -46 -35 -82 -76 -82c-25 0 -40 9 -40 9c5 12 12 31 12 58c0 44 -36 93 -135 93c-215 0 -321 -199 -321 -401c0 -155 73 -249 180 -249c139 0 218 67 265 152l26 -7 l-65 -147c-63 0 -105 -38 -239 -38c-169 0 -267 107 -267 269c0 250 190 461 469 461c118 0 191 -55 191 -118z" />
<glyph unicode="&#x109;" horiz-adv-x="395" d="M357 349c4 11 6 20 6 28c0 25 -16 41 -51 41c-116 0 -185 -182 -185 -302c0 -49 24 -75 64 -75c63 0 118 50 151 96l15 -11c-27 -55 -87 -142 -186 -142c-86 0 -126 41 -126 121c0 163 140 361 318 361c35 0 73 -15 73 -55c0 -38 -32 -64 -65 -64c-5 0 -11 1 -14 2z M208 552l202 180s56 -114 117 -176c0 -10 -10 -28 -36 -28c-58 0 -92 94 -95 158l-132 -158z" />
<glyph unicode="&#x10a;" horiz-adv-x="679" d="M521 785c-31 0 -52 22 -52 52c0 36 29 74 71 74c31 0 51 -22 51 -53c0 -35 -30 -73 -70 -73zM718 596c0 -46 -35 -82 -76 -82c-25 0 -40 9 -40 9c5 12 12 31 12 58c0 44 -36 93 -135 93c-215 0 -321 -199 -321 -401c0 -155 73 -249 180 -249c139 0 218 67 265 152l26 -7 l-65 -147c-63 0 -105 -38 -239 -38c-169 0 -267 107 -267 269c0 250 190 461 469 461c118 0 191 -55 191 -118z" />
<glyph unicode="&#x10b;" horiz-adv-x="395" d="M357 349c4 11 6 20 6 28c0 25 -16 41 -51 41c-116 0 -185 -182 -185 -302c0 -49 24 -75 64 -75c63 0 118 50 151 96l15 -11c-27 -55 -87 -142 -186 -142c-86 0 -126 41 -126 121c0 163 140 361 318 361c35 0 73 -15 73 -55c0 -38 -32 -64 -65 -64c-5 0 -11 1 -14 2z M395 610c-25 0 -42 18 -42 43c0 29 24 61 57 61c25 0 42 -18 42 -43c0 -29 -24 -61 -57 -61z" />
<glyph unicode="&#x10c;" horiz-adv-x="679" d="M534 751l-130 131l63 35l77 -120c27 46 92 118 146 118c26 0 36 -14 36 -28zM718 596c0 -46 -35 -82 -76 -82c-25 0 -40 9 -40 9c5 12 12 31 12 58c0 44 -36 93 -135 93c-215 0 -321 -199 -321 -401c0 -155 73 -249 180 -249c139 0 218 67 265 152l26 -7l-65 -147 c-63 0 -105 -38 -239 -38c-169 0 -267 107 -267 269c0 250 190 461 469 461c118 0 191 -55 191 -118z" />
<glyph unicode="&#x10d;" horiz-adv-x="395" d="M357 349c4 11 6 20 6 28c0 25 -16 41 -51 41c-116 0 -185 -182 -185 -302c0 -49 24 -75 64 -75c63 0 118 50 151 96l15 -11c-27 -55 -87 -142 -186 -142c-86 0 -126 41 -126 121c0 163 140 361 318 361c35 0 73 -15 73 -55c0 -38 -32 -64 -65 -64c-5 0 -11 1 -14 2z M382 533l-117 176l66 23l61 -153c28 58 96 153 155 153c26 0 38 -15 38 -26c-94 -65 -203 -173 -203 -173z" />
<glyph unicode="&#x10e;" horiz-adv-x="804" d="M513 751l-130 131l63 35l77 -120c27 46 92 118 146 118c26 0 36 -14 36 -28zM341 659l-122 -534c-1 -4 -6 -25 -6 -40c0 -36 26 -51 81 -51c222 0 400 129 400 362c0 160 -90 270 -276 270c-34 0 -57 -3 -77 -7zM140 3c-85 0 -132 -3 -132 -3l7 29l21 5 c55 13 81 40 94 98l107 469c2 10 4 20 4 29c0 24 -16 31 -46 36l-32 5l7 29s29 -3 117 -3c48 0 113 3 152 3c229 0 355 -128 355 -284c0 -255 -192 -416 -487 -416c-57 0 -108 3 -167 3z" />
<glyph unicode="&#x10f;" horiz-adv-x="570" d="M687 750c25 0 37 -18 37 -45c0 -65 -57 -126 -104 -172l-10 9c22 38 37 73 37 109c0 17 -4 34 -11 52c7 30 28 47 51 47zM164 43c86 0 218 183 218 334c0 30 -15 48 -40 48c-126 0 -229 -212 -229 -320c0 -42 16 -62 51 -62zM614 750l-207 -586c-14 -39 -25 -77 -25 -93 c0 -13 6 -21 20 -21c38 0 84 65 106 96l15 -11c-31 -59 -93 -152 -167 -152c-31 0 -49 11 -49 58c0 35 18 80 30 114h-4c-29 -57 -101 -171 -205 -171c-61 0 -93 34 -93 102c0 162 149 380 323 380c33 0 57 -14 67 -26l62 181c2 6 7 22 7 33c0 22 -22 28 -64 28v22 s97 4 184 46z" />
<glyph unicode="&#x110;" horiz-adv-x="804" d="M140 3c-85 0 -132 -3 -132 -3l7 29l21 5c55 13 81 40 94 98l43 190c-50 -1 -107 -2 -107 -2l12 56s56 -1 107 -2l52 227c2 10 4 20 4 29c0 24 -16 31 -46 36l-32 5l7 29s29 -3 117 -3c48 0 113 3 152 3c229 0 355 -128 355 -284c0 -255 -192 -416 -487 -416 c-57 0 -108 3 -167 3zM341 659l-66 -286c8 0 137 3 173 3l-13 -56c-32 0 -165 2 -171 2l-45 -197c-1 -4 -6 -25 -6 -40c0 -36 26 -51 81 -51c222 0 400 129 400 362c0 160 -90 270 -276 270c-34 0 -57 -3 -77 -7z" />
<glyph unicode="&#x112;" horiz-adv-x="565" d="M323 867c0 0 73 -3 138 -3c71 0 140 3 140 3l-13 -55s-65 3 -138 3c-63 0 -140 -3 -140 -3zM282 34c136 0 200 94 234 154l21 -3l-62 -185s-249 3 -335 3c-88 -1 -132 -3 -132 -3l7 29l21 5c55 13 81 40 94 98l107 469c2 10 4 20 4 29c0 24 -16 31 -46 36l-32 5l7 29 s52 -3 140 -3c136 0 319 3 319 3l-43 -164h-20c0 78 -43 130 -143 130c-34 0 -61 -3 -78 -7l-67 -281h77c57 0 85 28 109 77l19 39h26s-25 -71 -38 -128c-14 -62 -18 -110 -18 -110h-25l-1 25c-1 37 -18 58 -60 58h-99l-51 -214c-1 -4 -6 -25 -6 -40c0 -36 21 -51 71 -51z " />
<glyph unicode="&#x113;" horiz-adv-x="404" d="M346 390c0 23 -13 36 -34 36c-84 0 -142 -126 -163 -185c68 20 197 63 197 149zM423 397c0 -78 -95 -134 -282 -183c-10 -34 -15 -63 -15 -98c0 -37 17 -75 69 -75c63 0 126 61 150 96l15 -11c-14 -25 -83 -142 -194 -142c-80 0 -122 45 -122 121c0 143 116 361 302 361 c57 0 77 -36 77 -69zM236 643c0 0 71 -3 136 -3c71 0 136 3 136 3l-12 -55s-63 3 -136 3c-63 0 -136 -3 -136 -3z" />
<glyph unicode="&#x114;" horiz-adv-x="565" d="M589 912h28c-22 -96 -87 -155 -176 -155c-72 0 -115 38 -115 107c0 15 2 30 6 48h68c-3 -12 -4 -23 -4 -33c0 -41 23 -66 70 -66c61 0 109 38 123 99zM282 34c136 0 200 94 234 154l21 -3l-62 -185s-249 3 -335 3c-88 -1 -132 -3 -132 -3l7 29l21 5c55 13 81 40 94 98 l107 469c2 10 4 20 4 29c0 24 -16 31 -46 36l-32 5l7 29s52 -3 140 -3c136 0 319 3 319 3l-43 -164h-20c0 78 -43 130 -143 130c-34 0 -61 -3 -78 -7l-67 -281h77c57 0 85 28 109 77l19 39h26s-25 -71 -38 -128c-14 -62 -18 -110 -18 -110h-25l-1 25c-1 37 -18 58 -60 58 h-99l-51 -214c-1 -4 -6 -25 -6 -40c0 -36 21 -51 71 -51z" />
<glyph unicode="&#x115;" horiz-adv-x="404" d="M346 390c0 23 -13 36 -34 36c-84 0 -142 -126 -163 -185c68 20 197 63 197 149zM423 397c0 -78 -95 -134 -282 -183c-10 -34 -15 -63 -15 -98c0 -37 17 -75 69 -75c63 0 126 61 150 96l15 -11c-14 -25 -83 -142 -194 -142c-80 0 -122 45 -122 121c0 143 116 361 302 361 c57 0 77 -36 77 -69zM504 698h28c-22 -96 -87 -155 -176 -155c-72 0 -115 38 -115 107c0 15 2 30 6 48h68c-3 -12 -4 -23 -4 -33c0 -41 23 -66 70 -66c61 0 109 38 123 99z" />
<glyph unicode="&#x116;" horiz-adv-x="565" d="M446 785c-31 0 -52 22 -52 52c0 36 29 74 71 74c31 0 51 -22 51 -53c0 -35 -30 -73 -70 -73zM282 34c136 0 200 94 234 154l21 -3l-62 -185s-249 3 -335 3c-88 -1 -132 -3 -132 -3l7 29l21 5c55 13 81 40 94 98l107 469c2 10 4 20 4 29c0 24 -16 31 -46 36l-32 5l7 29 s52 -3 140 -3c136 0 319 3 319 3l-43 -164h-20c0 78 -43 130 -143 130c-34 0 -61 -3 -78 -7l-67 -281h77c57 0 85 28 109 77l19 39h26s-25 -71 -38 -128c-14 -62 -18 -110 -18 -110h-25l-1 25c-1 37 -18 58 -60 58h-99l-51 -214c-1 -4 -6 -25 -6 -40c0 -36 21 -51 71 -51z " />
<glyph unicode="&#x117;" horiz-adv-x="404" d="M346 390c0 23 -13 36 -34 36c-84 0 -142 -126 -163 -185c68 20 197 63 197 149zM423 397c0 -78 -95 -134 -282 -183c-10 -34 -15 -63 -15 -98c0 -37 17 -75 69 -75c63 0 126 61 150 96l15 -11c-14 -25 -83 -142 -194 -142c-80 0 -122 45 -122 121c0 143 116 361 302 361 c57 0 77 -36 77 -69zM383 610c-25 0 -42 18 -42 43c0 29 24 61 57 61c25 0 42 -18 42 -43c0 -29 -24 -61 -57 -61z" />
<glyph unicode="&#x118;" horiz-adv-x="565" d="M282 34c136 0 200 94 234 154l21 -3l-62 -185c-77 -56 -116 -104 -116 -149c0 -28 17 -45 52 -45c24 0 44 11 52 19c6 -3 9 -10 9 -17c0 -17 -31 -54 -105 -54c-50 0 -83 25 -83 71c0 87 107 151 158 175c-70 1 -235 3 -302 3c-88 -1 -132 -3 -132 -3l7 29l21 5 c55 13 81 40 94 98l107 469c2 10 4 20 4 29c0 24 -16 31 -46 36l-32 5l7 29s52 -3 140 -3c136 0 319 3 319 3l-43 -164h-20c0 78 -43 130 -143 130c-34 0 -61 -3 -78 -7l-67 -281h77c57 0 85 28 109 77l19 39h26s-25 -71 -38 -128c-14 -62 -18 -110 -18 -110h-25l-1 25 c-1 37 -18 58 -60 58h-99l-51 -214c-1 -4 -6 -25 -6 -40c0 -36 21 -51 71 -51z" />
<glyph unicode="&#x11a;" horiz-adv-x="565" d="M437 751l-130 131l63 35l77 -120c27 46 92 118 146 118c26 0 36 -14 36 -28zM282 34c136 0 200 94 234 154l21 -3l-62 -185s-249 3 -335 3c-88 -1 -132 -3 -132 -3l7 29l21 5c55 13 81 40 94 98l107 469c2 10 4 20 4 29c0 24 -16 31 -46 36l-32 5l7 29s52 -3 140 -3 c136 0 319 3 319 3l-43 -164h-20c0 78 -43 130 -143 130c-34 0 -61 -3 -78 -7l-67 -281h77c57 0 85 28 109 77l19 39h26s-25 -71 -38 -128c-14 -62 -18 -110 -18 -110h-25l-1 25c-1 37 -18 58 -60 58h-99l-51 -214c-1 -4 -6 -25 -6 -40c0 -36 21 -51 71 -51z" />
<glyph unicode="&#x11b;" horiz-adv-x="405" d="M346 390c0 23 -13 36 -34 36c-84 0 -142 -126 -163 -185c68 20 197 63 197 149zM423 397c0 -78 -95 -134 -282 -183c-10 -34 -15 -63 -15 -98c0 -37 17 -75 69 -75c63 0 126 61 150 96l15 -11c-14 -25 -83 -142 -194 -142c-80 0 -122 45 -122 121c0 143 116 361 302 361 c57 0 77 -36 77 -69zM358 533l-117 176l66 23l61 -153c28 58 96 153 155 153c26 0 38 -15 38 -26c-94 -65 -203 -173 -203 -173z" />
<glyph unicode="&#x11c;" horiz-adv-x="738" d="M368 780l192 137s68 -81 130 -139c-1 -16 -15 -24 -29 -24c-44 0 -89 57 -111 117l-133 -120zM666 523l-16 2c0 65 -15 150 -162 150c-204 0 -331 -192 -331 -401c0 -148 82 -251 202 -251c85 0 155 29 174 105l21 83c2 6 3 12 3 17c0 24 -14 35 -51 40l-39 5l7 29h258 l-6 -29l-15 -5c-42 -14 -66 -49 -80 -96l-37 -128c-60 0 -125 -60 -257 -60c-175 0 -280 94 -280 289c0 243 201 441 466 441c82 0 138 -28 193 -28z" />
<glyph unicode="&#x11d;" horiz-adv-x="438" d="M267 437c-77 0 -105 -126 -105 -189c0 -61 21 -89 53 -89c77 0 107 125 107 189c0 52 -16 89 -55 89zM156 -226c106 0 141 53 141 94c0 44 -29 62 -97 82c-64 19 -130 38 -130 99c0 53 49 80 91 86c-41 12 -71 47 -71 106c0 110 90 225 199 225c32 0 52 -7 75 -28 c14 -3 37 -6 51 -6c26 0 51 7 70 20c8 -6 17 -17 17 -32c0 -22 -15 -40 -45 -40c-32 0 -55 23 -73 28c6 -13 10 -30 10 -59c0 -107 -81 -209 -182 -218c-34 -6 -74 -20 -74 -53c0 -29 42 -42 99 -59c98 -28 132 -68 132 -131c0 -87 -91 -151 -226 -151 c-113 0 -185 52 -185 129c0 52 34 84 75 84c23 0 38 -13 40 -27c-23 -4 -47 -20 -47 -57c0 -47 46 -92 130 -92zM169 552l202 180s56 -114 117 -176c0 -10 -10 -28 -36 -28c-58 0 -92 94 -95 158l-132 -158z" />
<glyph unicode="&#x11e;" horiz-adv-x="737" d="M686 912h28c-22 -96 -87 -155 -176 -155c-72 0 -115 38 -115 107c0 15 2 30 6 48h68c-3 -12 -4 -23 -4 -33c0 -41 23 -66 70 -66c61 0 109 38 123 99zM666 523l-16 2c0 65 -15 150 -162 150c-204 0 -331 -192 -331 -401c0 -148 82 -251 202 -251c85 0 155 29 174 105 l21 83c2 6 3 12 3 17c0 24 -14 35 -51 40l-39 5l7 29h258l-6 -29l-15 -5c-42 -14 -66 -49 -80 -96l-37 -128c-60 0 -125 -60 -257 -60c-175 0 -280 94 -280 289c0 243 201 441 466 441c82 0 138 -28 193 -28z" />
</font>
</defs>
</svg>
